<?xml version="1.0" encoding="utf-8"?>
<!-- Generator: Adobe Illustrator 17.0.0, SVG Export Plug-In . SVG Version: 6.00 Build 0)  -->
<!DOCTYPE svg PUBLIC "-//W3C//DTD SVG 1.1//EN" "http://www.w3.org/Graphics/SVG/1.1/DTD/svg11.dtd">
<svg version="1.1" id="Слой_1" xmlns="http://www.w3.org/2000/svg" xmlns:xlink="http://www.w3.org/1999/xlink" x="0px" y="0px"
	 width="132.1px" height="136px" viewBox="0 0 132.1 136" enable-background="new 0 0 132.1 136" xml:space="preserve">
<g>
	<polygon fill="none" points="62.9,18.8 62.8,18.9 62.9,19 	"/>
	<path fill="none" d="M76.1,56.9l-0.6,0.5c-0.1,0.1-0.2,0.2-0.3,0.3C75.1,57.8,75,57.9,75,58c-0.1,0.1-0.2,0.3-0.2,0.5l0,0.1
		c0.1-0.2,0.2-0.5,0.4-0.7l0.4-0.5l0.4,0.4c0.1,0.2,0.4,0.5,0.9,0.9c0.4,0.4,0.9,0.7,1.5,1.1c0.5,0.3,1.2,0.7,2.1,1
		c1.5,0.5,3.5,0.8,5.7,0.7c1.9-0.1,4-0.4,6.4-1c0,0,0.1,0,0.1,0c0,0-0.1,0-0.1,0c-2.3,0.4-4.3,0.7-6.1,0.7l-0.3,0
		c-2.1,0-4-0.4-5.4-0.9c-0.8-0.3-1.4-0.7-1.9-1c-0.6-0.4-1.1-0.8-1.3-1c-0.3-0.3-0.6-0.6-0.8-0.9l-0.4-0.5
		C76.2,56.9,76.1,56.9,76.1,56.9z"/>
	<path fill="none" d="M76.8,56.6l-0.2,0.1c-0.1,0-0.2,0.1-0.3,0.1L76.8,56.6C76.8,56.6,76.8,56.6,76.8,56.6z"/>
	<path fill="none" d="M76.3,24.2c-0.4,0.3-0.5,0.5-0.4,0.5c0.2,0,0.3,0,0.5-0.1c1.6-1.2,4.3-1.7,6.1-1.7c0.7,0,2,0.1,2.8,0.5
		c0.2,0.1,0.4,0.1,0.4,0.1c0.1-0.1,0-0.5-0.5-0.8c-0.7-0.5-1.7-0.8-2.9-0.8C80,21.9,77.7,22.9,76.3,24.2z"/>
	<path fill="#397279" d="M77,19c2.1,0,4.3,0.2,6.3,0.7l3.9-16.1C82.8,2,78.1,1,73.3,0.4l-0.5,18.2C74.2,18.7,75.6,18.8,77,19
		C76.9,19,77,19,77,19z"/>
	<path fill="#397279" d="M3.6,45.4c-1.9,5.6-3.1,11.4-3.6,17.4l18.4,2.5c0.6-4.5,2.4-10.4,3.9-14.3L3.6,45.4z"/>
	<path fill="#397279" d="M18.9,83l-0.8-5.9c0-1.2-0.1-2.3-0.1-3.5L0.1,73.8c0.1,1.4,0.3,2.9,0.6,4.7l1.6,7.8
		c4.4,16.4,14.6,30.4,28.7,39.5l7.4-10C28.2,107.6,21.3,96,18.9,83z"/>
	<path fill="#397279" d="M70.8,126.9c-8.2,0-20.3-1.8-31.5-10.5L34,127.6c8.3,5.3,20.3,8.4,32,8.4c2.7,0,5.4-0.2,8.3-0.5l-0.5-8.7
		C72.7,126.8,71.7,126.9,70.8,126.9z"/>
	<path fill="#397279" d="M98.6,108.9c-0.6,0.4-1.2,0.8-1.9,1.2l-0.2,0.1c-3.9,2.1-8.1,3.2-12.4,3.2c-12.6,0-23.2-9-25.4-21.3
		l-1.5-0.2c-0.8-0.1-1.6-0.2-2.4-0.4c-0.4-0.1-0.9-0.2-1.3-0.2c-0.8-0.1-1.6-0.3-2.4-0.6c-0.4-0.1-0.8-0.2-1.3-0.3
		c-0.5-0.1-1.1-0.3-1.6-0.5L46.3,89c-1.3,0-2.5-0.2-3.5-0.7c-1.2-0.5-2.3-1.2-3.2-1.8c-0.9-0.6-1.9-1.4-2.8-2.3
		c-0.6-0.5-1.2-1.1-1.7-1.6c-0.3-0.3-0.5-0.5-0.8-0.8c-0.8-0.9-1.6-1.7-2.3-2.6c-0.8-0.9-1.4-1.9-2-3.1c-0.5-1.1-0.8-2.3-0.9-3.6
		C29,71.2,29,70,29.4,68.8c0.1-0.2,0.1-0.4,0.1-0.6c0.1-0.4,0.2-0.8,0.4-1.2l0.8-1.6l0.3-0.4c0.6-0.9,1.3-1.8,2.2-2.5l0.6-0.6
		c0.2-0.1,0.4-0.3,0.5-0.4l0.3-0.2c0.2-0.1,0.4-0.2,0.5-0.3c0.3-0.2,0.7-0.4,1.1-0.6l1.6-0.6l1.8-0.3c0.3-0.1,0.8-0.1,1.3,0
		c0.2,0,0.3,0,0.5,0c0.6,0,1.2,0,1.9,0.2c1.2,0.2,2.3,0.7,3.3,1.2c1.3,0.8,2.2,1.5,2.9,2.2c0.9,0.9,1.5,2,2,2.9
		c0.1,0.3,0.2,0.5,0.3,0.8c0.2,0.4,0.4,0.9,0.5,1.4l0.6,2.1c0.1,0.4,0.3,0.8,0.5,1.2c0.1,0.2,0.2,0.5,0.3,0.7
		c0.2,0.6,0.6,1.3,0.9,1.9c0.4,0.7,0.7,1.2,1.1,1.7l0.3,0.4c0.3,0.4,0.6,0.9,1,1.2c0.2,0.2,0.4,0.4,0.5,0.6c0.3,0.3,0.6,0.6,0.9,0.9
		c0.2,0.2,0.4,0.3,0.6,0.5c0.1,0.1,0.3,0.2,0.4,0.3c0.1-0.2,0.1-0.4,0.2-0.6c0.8-2.2,1.8-4.4,3.2-6.3c-0.1-0.1-0.2-0.2-0.4-0.3
		l-0.5-0.4c-0.5-0.4-1-0.8-1.6-1.3c-0.1-0.1-0.3-0.3-0.4-0.4c-0.3-0.3-0.7-0.7-1-1.1l-1.1-1.4l-0.8-1.5c-0.3-0.5-0.5-0.9-0.6-1.3
		l-0.6-1.8l0.9-0.3l0.7,1.8c0.1,0.4,0.3,0.8,0.6,1.1l0.8,1.4l1.1,1.3c0.2,0.3,0.6,0.6,0.9,0.9c0.1,0.1,0.3,0.2,0.4,0.4
		c0.4,0.4,0.9,0.8,1.5,1.1c0.2,0.1,0.4,0.3,0.6,0.4c0.3,0.2,0.7,0.4,1,0.6L66,73c0.4,0.2,0.7,0.4,1.1,0.5c0.2,0.1,0.3,0.1,0.5,0.2
		l1.4,0.6l2.5,0.8c0.5,0.1,1.1,0.2,1.7,0.3c-2.6-1-5.3-2.9-6.4-6.3c-1-3.4-1.3-8.5-0.6-13.5c0-3.2-0.7-5.6-2.2-7.1
		c-2.2-2.2-6.1-3-12.4-2.7l-0.1,0l-0.1,0c-0.6-0.3-2.6-1.5-3-1.8l-0.2-0.2l0.1-0.3c2-9.5,9.9-18.1,20.4-21.7l0.3,0.9
		c-9.1,3.3-15.9,11-17.9,20.1c0.3,0.2,0.7,0.5,1.1,0.6c6.3-0.3,10.8,0.9,13.5,3.6c1.9,2,2.9,4.8,2.8,8.3c-0.7,5.2-0.6,9.4,0.4,12.5
		c1.1,3.6,3.2,5.7,6.6,6.6c1.8,0.3,3.7,0.4,5.4,0.4c5.2,0,9.9-1.2,14.2-3.5c1.8-1.2,3.3-2.4,4.7-3.8c0.9-1.1,3.6-4.2,5.8-5.7
		c2.5-1.6,4.4-3.6,4.3-4.4c-0.1-0.2-0.5-0.4-1.2-0.4c-1-0.1-2.3-0.4-2.9-0.7c-0.5,0.2-1,0.5-1.5,0.8c-1.5,0.8-3.2,1.8-5.1,2.6
		c-1.1,0.4-2.1,0.8-3.1,1.1c-0.6,0.2-1.2,0.3-1.7,0.4c-0.5,0.1-1,0.2-1.5,0.4c-2.5,0.6-4.7,1-6.6,1c-2.3,0.1-4.4-0.1-6-0.7
		c-1-0.3-1.7-0.7-2.3-1.1c-0.6-0.4-1.1-0.8-1.6-1.2c-0.2-0.2-0.4-0.4-0.6-0.5c0,0,0,0.1,0,0.1c0,0.1-0.1,0.2-0.1,0.3
		c-0.1,0.1-0.1,0.2-0.1,0.2L75,60.2c-0.1,0.2-0.1,0.4-0.2,0.6L74.8,61c-0.1,0.3-0.1,0.4-0.1,0.4l-0.5,1.2l-0.4-1.2
		c0,0-0.1-0.1-0.1-0.4c0-0.1,0-0.2,0-0.2c-0.1-0.2-0.1-0.5-0.1-0.9c0-0.1,0-0.2,0-0.3c0-0.4,0-0.8,0.3-1.3l0-0.1
		c0.1-0.2,0.2-0.5,0.4-0.8c0,0,0.1-0.1,0.1-0.2c0.1-0.2,0.3-0.4,0.5-0.6l0.7-0.5c0.3-0.1,0.5-0.2,0.6-0.3l0.2-0.1
		c0.4-0.2,0.8-0.2,1.1-0.2c0.1,0,0.3,0,0.4,0c0.9,0,1.5,0.2,1.5,0.2l1.4,0.3l-1.3,0.6c0,0-0.5,0.2-1.3,0.5c-0.1,0-0.2,0.1-0.3,0.1
		c-0.1,0-0.2,0.1-0.2,0.1c0.1,0.1,0.2,0.2,0.3,0.3c0.3,0.3,0.7,0.7,1.1,0.9c0.4,0.3,1,0.6,1.7,0.9c1.3,0.5,3.1,0.8,5.1,0.9l0.3,0
		c1.7,0,3.6-0.2,5.9-0.6c0.5-0.1,1-0.2,1.5-0.3c0.6-0.1,1.1-0.2,1.7-0.3c1.1-0.2,2.1-0.6,3-0.9c1.9-0.7,3.7-1.5,5.1-2.2
		c1.5-0.7,2.6-1.3,3.5-1.5c1.6-0.5,4.7-2.7,5-4c0-0.2,0-0.3-0.1-0.4c-3.8-3.2-4.4-5.3-5.6-9.5l-0.3-1c-0.2-0.6-0.4-1.2-0.7-1.8
		l-0.2-0.6c-2.3-5-6.2-9.2-11.1-12.2c-3-1.8-6.1-3-9.2-3.6c0.4,0.2,0.8,0.4,1.1,0.6c0.7,0.5,1.1,1.3,0.9,1.9
		c-0.2,0.6-0.9,0.8-1.8,0.4c-0.4-0.3-1.3-0.4-2.3-0.4c-1.7,0-4.1,0.4-5.5,1.5l-0.1,0.1c-0.9,0.4-1.6,0.2-1.8-0.4
		c-0.2-0.5,0.1-1.1,0.7-1.6c1.4-1.4,3.9-2.4,6.2-2.5c-0.9-0.1-1.7-0.1-2.6-0.1l-0.4,0c-1.7-0.2-3.2-0.3-4.7-0.3h-1.5
		c-1.2,0-2.3,0-3.5,0.1c-18,1.2-34.5,11.9-42.9,27.9c-0.7,1.4-1.4,2.9-2.1,4.6c-1.7,4.1-2.8,8.4-3.4,12.8c-0.3,2.4-0.4,4.6-0.4,6.9
		v0.3c0,1.2,0.1,2.5,0.2,3.7l0,0.2c0.2,2,0.2,2.4,0.7,5.6c2.4,12.7,9.4,24,19.7,31.8c1.4,1.1,2.7,1.9,3.9,2.7c8.3,5.3,18,8,27.9,8
		c1,0,2,0,3.1-0.1l0.3,0c9.2-0.6,18.1-3.7,25.7-8.8c1.8-1.3,2.5-3.1,1.9-4.8C103,109.4,100.7,108.2,98.6,108.9z M81.7,25
		c6.4,0,11.6,5.2,11.6,11.6c0,6.4-5.2,11.6-11.6,11.6c-6.4,0-11.6-5.2-11.6-11.6C70.1,30.3,75.3,25,81.7,25z"/>
	<path fill="#397279" d="M56.1,79.5c-0.2-0.2-0.3-0.4-0.5-0.6c-0.4-0.5-0.8-1-1.1-1.5L54.3,77c-0.4-0.6-0.8-1.2-1.1-2
		c-0.1-0.2-0.2-0.4-0.3-0.5c-0.2-0.5-0.5-1-0.6-1.5c-0.1-0.2-0.2-0.5-0.3-0.7c-0.2-0.5-0.3-0.9-0.5-1.4l-0.5-2.1
		c-0.1-0.4-0.3-0.9-0.4-1.3c-0.1-0.2-0.2-0.5-0.3-0.7c-0.5-0.9-1-1.8-1.8-2.6c-0.6-0.7-1.4-1.3-2.6-2c-1.1-0.6-2.1-0.9-3-1
		C42.5,61,42,61,41.4,61l-0.1,0c-0.1,0-0.3,0-0.4,0c-0.4,0-0.7,0-1,0.1l-1.7,0.3L36.7,62c-0.3,0.1-0.6,0.3-0.8,0.5
		c-0.2,0.1-0.4,0.2-0.5,0.4L35.1,63c-0.1,0.1-0.3,0.2-0.4,0.3l-0.6,0.5c-0.7,0.6-1.2,1.3-1.7,2.1l-0.2,0.4l-0.6,1.4
		c-0.1,0.3-0.2,0.6-0.3,0.9c0,0.2-0.1,0.4-0.1,0.6c-0.3,0.9-0.2,2-0.2,3l0,0.1c0.1,1.1,0.4,2.1,0.8,3c0.5,1.1,1.1,1.9,1.7,2.6
		c0.7,0.8,1.5,1.7,2.3,2.5c0.3,0.2,0.5,0.5,0.8,0.8c0.5,0.5,1,1,1.6,1.5c0.9,0.8,1.8,1.5,2.6,2c0.7,0.5,1.6,1,2.5,1.4
		c-0.4-0.4-0.8-0.8-1.2-1.2c-0.5-0.5-1-1.1-1.4-1.7l-0.2-0.3c-0.5-0.7-0.9-1.4-1.3-2.1c-0.3-0.6-0.7-1.3-0.9-2c-0.5-1.2-0.8-2.3-1-3
		L37,74.5l0.9-0.3l0.5,1.1c0.3,0.7,0.7,1.7,1.3,2.8c0.3,0.6,0.6,1.1,1,1.8c0.3,0.4,0.5,0.8,0.9,1.3c0.1,0.2,0.3,0.4,0.4,0.6
		c0.5,0.6,1,1.2,1.5,1.8c0.5,0.6,1.1,1.1,1.6,1.6l0.2,0.2c0.7,0.6,1.4,1.1,2,1.5c0.1,0,0.1,0.1,0.2,0.1l0.2,0.1l1.4,0.5
		c0.4,0.2,0.9,0.3,1.3,0.4c0.4,0.1,0.8,0.2,1.3,0.3c0.8,0.2,1.5,0.4,2.3,0.5c0.2,0,0.4,0.1,0.6,0.1c-0.2-0.1-0.4-0.2-0.6-0.4
		l-0.6-0.4c-0.4-0.3-0.8-0.5-1.2-0.8l-1.6-1.4c-0.4-0.3-0.8-0.8-1.1-1.2L48,83c-0.4-0.6-0.7-1.2-0.9-1.7c-0.1-0.2-0.2-0.4-0.3-0.6
		l-0.4-0.9l0.8-0.5c0,0,0.9,1.1,2.1,2.8c0.2,0.2,0.5,0.5,0.8,0.8c0.5,0.5,1,1.1,1.6,1.6l1.5,1.3c0.3,0.2,0.7,0.4,1,0.7
		c0.2,0.1,0.4,0.3,0.6,0.4c0.4,0.3,0.8,0.5,1.3,0.7l0.9,0.4c0.5,0.2,0.9,0.4,1.3,0.5l1.8,0.6l2.8,0.6l2.3,0l0.1,0.5l-0.1-0.5
		l1.7-0.3c0.1,0,0.2,0,0.3-0.1c0.2,0,0.3,0,0.4-0.1l1.6-0.6c0.4-0.1,0.9-0.3,1.4-0.6l1.1-0.6c-0.2,0-0.3-0.1-0.5-0.1
		c-1.7-0.3-3.1-0.7-4.4-1.1c-0.8-0.2-1.5-0.5-2.1-0.8c-0.2-0.1-0.5-0.2-0.7-0.3c-0.5-0.2-0.9-0.4-1.4-0.6l-1.9-1.1l-1.9-1.3
		c-0.4-0.3-0.8-0.7-1.2-1c-0.2-0.2-0.4-0.3-0.6-0.5C56.8,80.3,56.5,79.9,56.1,79.5z"/>
	<path fill="#397279" d="M58.3,90C58.3,90,58.3,90,58.3,90L58.3,90L58.3,90z"/>
	<path fill="#397279" d="M80.1,43.4c0.4,0.1,1,0.2,1.7,0.2c3.9,0,7-3.1,7-6.9c0-3.2-2.2-6-5.3-6.7c-1-0.3-2.4-0.3-3.7,0.1
		c0.2,0.4,0.3,0.9,0.3,1.4c0,1.9-1.6,3.5-3.5,3.5c-0.5,0-1-0.1-1.4-0.3c-0.2,0.6-0.3,1.3-0.3,2C74.8,39.9,76.9,42.6,80.1,43.4z"/>
	<path fill="#397279" d="M128.5,106.8c-0.1,0.1-0.2,0.3-0.3,0.4c-0.6,0.7-1.2,1.4-1.9,2.1c-0.5,0.5-1.1,1-1.7,1.5
		c-0.2,0.2-0.4,0.3-0.6,0.5c-0.3,0.2-0.5,0.3-0.7,0.5c-0.6,0.4-1.3,0.9-2,1.2c-0.9,0.5-1.8,0.9-2.9,1.3l-0.5,0.2
		c-0.8,0.3-1.6,0.5-2.5,0.7c-0.8,0.2-1.7,0.3-2.8,0.5c-0.7,0.1-1.3,0.1-2,0.1l-0.6,0c-0.3,0-0.6,0-0.9,0c-0.5,0-0.9,0-1.4-0.1
		c-0.2,0-0.4-0.1-0.6-0.1c-0.4-0.1-0.8-0.1-1.1-0.2l-0.1,0l0,0.3l-0.1-0.3l-0.9-0.2c-0.2,0.3-0.4,0.5-0.7,0.8
		c3.1,2.5,7.1,3.8,11.5,3.8c6.9,0,13.2-3.7,16.4-9.8C131.5,108.6,130.3,107.6,128.5,106.8z"/>
	<path fill="#397279" d="M99.8,107c0.1,0,0.3,0,0.4,0c3,0,4.4,2.2,5.1,3.8l0.9-0.1l0-0.1l0,0.1l0.2,0c0.3,0,0.6-0.1,0.9-0.2
		c0.2,0,0.4-0.1,0.6-0.1c0.3-0.1,0.7-0.2,1.1-0.3c0.3-0.1,0.5-0.2,0.8-0.3l0.5-0.2c0.6-0.2,1.1-0.5,1.7-0.8c0.9-0.5,1.7-0.9,2.4-1.3
		c0.7-0.4,1.3-0.9,1.9-1.4l0.4-0.3c0.6-0.5,1.2-1,1.7-1.6l-0.5-0.1c-0.9-0.2-1.8-0.3-2.7-0.5l-0.7-0.2c-0.8-0.2-1.6-0.4-2.3-0.5
		c-1.9-0.6-3.5-1.4-4.8-2.4l-0.4-0.3l0-0.1c-3-2.7-4.6-6.8-4.6-11.9c-3.4,3.4-5.4,8-5.4,12.9l0,1c0,2.3,0,3.5,0.9,5.4
		C98.4,107.3,98.8,107.1,99.8,107z"/>
	<path fill="#397279" d="M117.2,107.3c-0.7,0.5-1.3,1.1-2,1.6c-0.7,0.5-1.5,1-2.5,1.5c-0.6,0.3-1.2,0.6-1.8,0.9l-0.5,0.2
		c-0.3,0.1-0.6,0.2-0.8,0.3c-0.5,0.2-0.9,0.3-1.3,0.4c-0.2,0-0.4,0.1-0.6,0.2c-0.4,0.1-0.8,0.2-1.1,0.2l-0.9,0.1l0,0.1
		c0,0.1,0,0.1,0,0.2l0,0.3l0.8,0.2c0.3,0.1,0.5,0.1,0.9,0.2c0.2,0,0.4,0.1,0.7,0.1c0.3,0.1,0.8,0.1,1.2,0.1c0.3,0,0.6,0,0.8,0.1
		l0.1,0l0.9,0c0.4,0,0.9,0,1.4-0.1c1-0.1,1.9-0.2,2.7-0.4c0.8-0.1,1.5-0.3,2.3-0.6l0.5-0.2c0.8-0.3,1.8-0.6,2.7-1.1
		c0.7-0.3,1.3-0.7,2-1.1c0.2-0.1,0.5-0.3,0.7-0.4l0.5-0.4c0.6-0.4,1.2-0.9,1.7-1.4c0.8-0.6,1.4-1.3,1.9-2c0,0,0.1-0.1,0.1-0.1
		c-2.3-0.9-5.1-1.5-7.5-1.9c-0.1,0.1-0.1,0.1-0.2,0.2c-0.7,0.8-1.5,1.6-2.2,2.2L117.2,107.3z"/>
	<path fill="#397279" d="M106,35.8c0.4-1,0.7-2.1,0.7-3.2v-0.5c-0.3-5.7-5-10.1-10.7-10.1c-1.3,0-2.6,0.2-3.7,0.6c1,0.5,2,1,2.9,1.5
		C99.9,26.9,103.5,30.9,106,35.8z"/>
	<path fill="#397279" d="M92.4,20.2c1-0.5,2.5-0.9,4.1-0.9c2,0,3.9,0.4,4.8,1.1c0.3,0.2,0.4,0.2,0.4,0.2v0.5l0-0.5
		c0-0.1,0-0.5-0.4-0.9c-0.8-0.9-2.3-1.4-4.1-1.4c-1.8,0-3.6,0.5-4.9,1.4c-0.4,0.2-0.5,0.4-0.5,0.4c0,0,0.1,0,0.2,0
		C92.1,20.2,92.2,20.2,92.4,20.2z"/>
	<path fill="#397279" d="M23.1,49.5c0.5-0.9,1.1-2.2,1.2-2.3c8.6-16.5,24.6-27.1,42.6-28.4c0.1,0,1.4-0.1,2.1-0.1L65.6,0
		c-2.2,0-4.5,0.2-7.1,0.5l4.8,18.2l-0.5,0.2l0,0.2l-0.1-0.2L62.4,19L54.1,1.1c-21.4,4-39.7,19.1-47.9,39.4L22.9,50L23.1,49.5z"/>
	<polygon fill="#397279" points="0,71 17.9,71.7 18,69.6 0,67.9 	"/>
</g>
</svg>
