<?xml version="1.0" encoding="utf-8"?>
<!-- Generator: Adobe Illustrator 16.0.0, SVG Export Plug-In . SVG Version: 6.00 Build 0)  -->
<!DOCTYPE svg PUBLIC "-//W3C//DTD SVG 1.1//EN" "http://www.w3.org/Graphics/SVG/1.1/DTD/svg11.dtd">
<svg version="1.1" id="Слой_1" xmlns="http://www.w3.org/2000/svg" xmlns:xlink="http://www.w3.org/1999/xlink" x="0px" y="0px"
	 width="73px" height="311.2px" viewBox="0 0 73 311.2" enable-background="new 0 0 73 311.2" xml:space="preserve">
<g>
	<g opacity="0.3">
		<path fill="#FFFFFF" d="M71.4,269.7l-10.9,11l0.1,0.399L71.5,270.2C71.4,270,71.4,269.8,71.4,269.7z"/>
		<path fill="#FFFFFF" d="M43.1,247.5l5-5c-0.1,0-0.3-0.101-0.4-0.101l-5,5L43.1,247.5z"/>
		<path fill="#FFFFFF" d="M42.8,252l8.4-8.398c-0.1,0-0.2-0.102-0.4-0.102l-8.1,8.2C42.8,251.8,42.8,251.899,42.8,252z"/>
		<path fill="#FFFFFF" d="M54.1,245c-0.1-0.101-0.2-0.101-0.3-0.2l-9.1,9.102l-0.1,0.5"/>
		<path fill="#FFFFFF" d="M44.3,259.099L56.7,246.7c-0.1-0.101-0.2-0.101-0.3-0.2L44,258.899C44.2,258.899,44.2,259,44.3,259.099z"
			/>
		<path fill="#FFFFFF" d="M45.6,262l13.6-13.601c-0.1-0.102-0.2-0.102-0.3-0.199l-13.4,13.5L45.6,262z"/>
		<path fill="#FFFFFF" d="M46.7,265.2l14.7-14.7c-0.1-0.101-0.2-0.198-0.3-0.198l-14.6,14.6L46.7,265.2z"/>
		<path fill="#FFFFFF" d="M47.8,268.3L63.5,252.6c-0.1-0.102-0.2-0.2-0.2-0.302L47.7,267.9L47.8,268.3z"/>
		<path fill="#FFFFFF" d="M65.2,254.7l-16.4,16.399l0.1,0.398l16.5-16.601C65.3,254.899,65.3,254.8,65.2,254.7z"/>
		<path fill="#FFFFFF" d="M66.9,257.2l-16.9,17v0.102l0.5-0.102l16.6-16.601C67,257.399,67,257.3,66.9,257.2z"/>
		<path fill="#FFFFFF" d="M68.4,260L55.3,273.1l0.7-0.2L68.6,260.3C68.5,260.2,68.4,260.099,68.4,260z"/>
		<path fill="#FFFFFF" d="M69.7,262.899l-11.4,11.398l0.1,0.4l11.4-11.4C69.8,263.2,69.7,263.099,69.7,262.899z"/>
		<path fill="#FFFFFF" d="M70.7,266.2l-11.3,11.3l0.1,0.399l11.3-11.3C70.7,266.399,70.7,266.3,70.7,266.2z"/>
		<path fill="#FFFFFF" d="M71.7,273.599l-10.2,10.198l0.1,0.4l10.1-10.101C71.7,273.899,71.7,273.8,71.7,273.599z"/>
		<path fill="#FFFFFF" d="M62.7,287.399l8.8-8.8c0-0.2,0-0.399,0.1-0.602l-9,9L62.7,287.399z"/>
		<path fill="#FFFFFF" d="M63.8,290.599l6.6-6.602c0.1-0.2,0.1-0.5,0.2-0.7l-6.9,7L63.8,290.599z"/>
		<path fill="#FFFFFF" d="M64.8,293.8l2.3-2.3c0.2-0.398,0.4-0.8,0.6-1.1l-3.1,3.1L64.8,293.8z"/>
		<polygon fill="#FFFFFF" points="45.3,266.099 45.3,266.5 45.9,266 45.8,265.599 		"/>
		<polygon fill="#FFFFFF" points="47,268.599 45.7,269.899 45.8,270.3 47.1,269 		"/>
		<polygon fill="#FFFFFF" points="46.2,273.7 46.2,274.099 48.2,272.2 48,271.8 		"/>
		<polygon fill="#FFFFFF" points="43.7,268.2 44.4,267.5 44.3,267 43.8,267.599 		"/>
		<polygon fill="#FFFFFF" points="44.8,270.899 43.2,272.399 43.2,272.899 44.8,271.3 		"/>
		<path fill="#FFFFFF" d="M34.9,264.099L34.9,264.099c-0.2,0-0.3,0-0.3,0l-2.5,2.5l0.1,0.5l2.9-2.899
			C35,264.099,35,264.099,34.9,264.099z"/>
		<path fill="#FFFFFF" d="M38.5,264.3l-6,6v0.5l6.3-6.3C38.8,264.5,38.6,264.399,38.5,264.3z"/>
		<polygon fill="#FFFFFF" points="33,274.599 43,264.599 43.1,264 33,274.099 		"/>
		<polygon fill="#FFFFFF" points="36.4,275.5 42.8,269.099 42.8,268.5 35.9,275.5 		"/>
		<polygon fill="#FFFFFF" points="40.7,275.5 41.9,274.2 42,273.599 40.2,275.5 		"/>
		<polygon fill="#FFFFFF" points="30.1,269 30.9,268.2 30.9,267.8 30.2,268.5 		"/>
		<polygon fill="#FFFFFF" points="27.7,275.099 27.7,275.7 31.3,272 31.3,271.599 		"/>
		<polygon fill="#FFFFFF" points="31.7,275.5 31.7,275.5 31.7,275.399 		"/>
		<polygon fill="#FFFFFF" points="26.8,272.3 29.2,269.899 29.3,269.3 27.1,271.5 		"/>
		<path fill="#FFFFFF" d="M30.3,242.8l-26,26c0,0.2-0.1,0.4-0.1,0.602l26.7-26.7C30.7,242.7,30.5,242.8,30.3,242.8z"/>
		<path fill="#FFFFFF" d="M30.9,246.3L3.7,273.6c0,0.2,0,0.398,0,0.5l27.6-27.7L30.9,246.3z"/>
		<path fill="#FFFFFF" d="M31.4,250.3l-0.2,0.4l-0.1-0.101l-27.4,27.3c0,0.2,0,0.301,0,0.5l28-27.899L31.4,250.3z"/>
		<path fill="#FFFFFF" d="M32,253.899L4.2,281.7c0,0.102,0.1,0.3,0.1,0.399l28-28.102L32,253.899z"/>
		<path fill="#FFFFFF" d="M30.3,260.3L30.3,260.3L30.3,260.3l-0.1-0.398l0,0l-12.7,12.7l0.4,0.101L29.2,261.4
			C29.4,261,29.8,260.599,30.3,260.3z"/>
		<path fill="#FFFFFF" d="M5.1,285.5l11.2-11.2l0.3-0.8L5.1,285C5.1,285.2,5.1,285.399,5.1,285.5z"/>
		<path fill="#FFFFFF" d="M6.3,288.599l7.9-7.899l0.3-0.801L6.2,288.2C6.2,288.399,6.2,288.5,6.3,288.599z"/>
		<polygon fill="#FFFFFF" points="27.1,267.3 21,273.399 21.4,273.5 26.8,268 		"/>
		<path fill="#FFFFFF" d="M7.6,291.5l4.3-4.3l0.3-0.801L7.4,291.2C7.5,291.3,7.6,291.399,7.6,291.5z"/>
		<polygon fill="#FFFFFF" points="24.6,274.3 24.8,273.899 24.4,274.2 		"/>
		<path fill="#FFFFFF" d="M9.2,294.099l0.6-0.602l0.3-0.8l-1,1C9.1,293.899,9.2,294,9.2,294.099z"/>
		<path fill="#FFFFFF" d="M25.3,243.599L5.1,263.8c0,0.2-0.1,0.4-0.1,0.602l21-20.9C25.7,243.5,25.5,243.599,25.3,243.599z"/>
	</g>
	<g>
		<path fill="#FFFFFF" d="M70.2,261.7c-1.8-4.2-4.4-8.101-7.6-11.301c-3.3-3.3-7.1-5.8-11.3-7.602c-4.4-1.898-9.1-2.8-13.9-2.8
			c-4.8,0-9.5,0.9-13.9,2.8c-4.2,1.802-8.1,4.4-11.3,7.602C8.9,253.7,6.4,257.5,4.6,261.7c-1.9,4.399-2.8,9.102-2.8,13.899
			s0.9,9.5,2.8,13.898c1.8,4.2,4.4,8.102,7.6,11.3c3.3,3.302,7.1,5.802,11.3,7.602c4.4,1.898,9.1,2.801,13.9,2.801
			c4.8,0,9.5-0.9,13.9-2.801c4.2-1.8,8.1-4.399,11.3-7.602c3.3-3.3,5.8-7.1,7.6-11.3c1.9-4.398,2.8-9.1,2.8-13.898
			S72,266.099,70.2,261.7z M43.1,242.599v3.101h-0.4h-1.1h-8.3h-1.1h-0.4v-3.101c1.8-0.302,3.7-0.5,5.6-0.5S41.3,242.3,43.1,242.599
			z M43.4,257.399v-1c0-0.3-0.3-0.602-0.6-0.602c-0.3,0-0.5,0.302-0.5,0.602v3.301v1.5v0.1v1.4v0.1l0,0v0.102l0,0v0.1l0,0
			c0,0.102-0.1,0.102-0.1,0.2l0,0c0,0,0,0,0,0.102l0,0c0,0,0,0-0.1,0l0,0c0,0,0,0-0.1,0.1c0,0,0,0-0.1,0l0,0l0,0l0,0c0,0,0,0-0.1,0
			l0,0c0,0,0,0-0.1,0l0,0c0,0,0,0-0.1,0l0,0h-0.1c-0.2,0-0.3-0.1-0.5-0.1c-0.2-0.102-0.4-0.4-0.4-0.7v-2.2v-0.8h-1l0,0v3.101
			c0,0.3-0.2,0.5-0.4,0.602c-0.1,0.1-0.3,0.1-0.5,0.1c-0.2,0-0.3-0.1-0.5-0.1c-0.2-0.2-0.4-0.4-0.4-0.7v-3l0,0h-1l0,0v3
			c0,0.3-0.1,0.5-0.4,0.7c-0.1,0.1-0.3,0.1-0.5,0.1c-0.2,0-0.3-0.1-0.5-0.1c-0.2-0.102-0.3-0.302-0.4-0.602V259.6l0,0h-1l0,0v3.101
			c0,0.199-0.2,0.399-0.4,0.602c-0.1,0.1-0.3,0.1-0.5,0.1c-0.2,0-0.3-0.1-0.5-0.1c-0.2-0.2-0.4-0.4-0.4-0.7v-11h9.5l2,2.601
			c0.6,0.699,0.5,1.199,0,2.102L43.4,257.399z M44,266.5l1.1,8.899l0,0h-0.4h-1.6L44,266.5z M32.7,264.599L32.7,264.599
			L32.7,264.599C32.8,264.7,32.8,264.7,32.7,264.599c0.1,0,0.1,0,0.2,0l0,0H33l0,0h0.1l0,0h0.1l0,0l0,0h0.1l0,0h0.1l0,0h0.1l0,0h0.1
			l0,0l0,0l0,0c0.3-0.102,0.5-0.2,0.7-0.399c0.2,0.199,0.4,0.3,0.7,0.399l0,0l0,0l0,0h0.1l0,0h0.1l0,0h0.1l0,0h0.1l0,0l0,0h0.1l0,0
			h0.1l0,0h0.1l0,0h0.1l0,0l0,0l0,0c0.3-0.102,0.5-0.2,0.7-0.399c0.2,0.199,0.4,0.3,0.7,0.399l0,0l0,0l0,0h0.1l0,0h0.1l0,0h0.1l0,0
			h0.1l0,0l0,0h0.1l0,0h0.1l0,0h0.1l0,0H38l0,0l0,0l0,0c0.3-0.102,0.5-0.2,0.7-0.399c0.2,0.199,0.4,0.3,0.7,0.399l0,0l0,0h0.1l0,0
			h0.1l0,0h0.1l0,0h0.1l0,0l0,0h0.1c0.1,0,0.1,0,0.2,0l0,0c0.1,0,0.2,0,0.2-0.102l0,0l0,0h0.1l0,0h0.1l0,0c0,0,0,0,0.1,0l0,0
			c0,0,0,0,0.1,0l0,0l0,0l0,0l0,0l0,0l0,0l0,0l0,0l0,0l0,0l-1.2,11.2h-2.1h-0.1h-4.2l-1.2-11.2
			C32.1,264.399,32.4,264.5,32.7,264.599z M32.2,250.7v-3.9h1.1h8.3h1.1v3.802h-1.9H39h-3.9h-1.4h-1.5V250.7L32.2,250.7z
			 M3.8,275.599c0-16.2,11.5-29.7,26.8-32.802v4.102H31v4.898h0.4l0,0v6.5c-0.9,0.302-1.5,1-1.7,1.5l0,0l-5.2,14.5l-7.7-1.8
			l-7.3,21.9C6,289,3.8,282.5,3.8,275.599z M31.7,275.5h-1.6h-0.4l0,0l1.1-8.898L31.7,275.5z M28.3,275.099l-2.3-0.5l3.5-9.7
			L28.3,275.099z M13.5,299.099v-0.302h-0.3c-0.2-0.3-0.5-0.5-0.7-0.8v-0.2h-0.1c-0.3-0.3-0.6-0.6-0.9-0.898v-0.102h-0.1
			c-0.4-0.5-0.7-1-1.1-1.5l7.3-21.6l0.7,0.2v0.3h0.3V274l0.7,0.2l0,0h0.1l3,0.7v0.3h0.3v-0.301l0.7,0.2v0.101h0.3l0.6,0.102
			l-0.1,0.198h-3.9l-2.6,27.2c-0.4-0.301-0.7-0.5-1.1-0.801l0,0l0,0c-0.3-0.3-0.7-0.5-1-0.8v-0.2h-0.2c-0.3-0.199-0.5-0.5-0.8-0.699
			v-0.301l0,0h-0.3C14,299.599,13.8,299.399,13.5,299.099z M37.3,309.099c-6.9,0-13.3-2.102-18.6-5.7l1.7-18.3h0.2v-0.302h-0.2
			l0.1-0.698h0.1v-0.302h-0.1l0.7-7.3H28l-0.5,4.3h-0.1v0.302l0,0L26.1,292l1.4,0.102l0.8-7.2v0.1h0.3v-0.3h-0.3l0.1-0.7h0.2v-0.3
			h-0.2l0.9-7.301h0.4h7.4h0.1h7.4H45l0.9,7.301h-0.2v0.3h0.2l0.1,0.7h-0.3v0.3H46l0.8,7l1.4-0.101L46.9,281H47v-0.3h-0.1
			l-0.5-4.301h6.8l0.7,7.301h-0.1v0.3h0.1l0.1,0.7h-0.2v0.3H54l1.7,18.3C50.6,307,44.2,309.099,37.3,309.099z M45.2,264.899l3.5,9.7
			l-2.3,0.5L45.2,264.899z M62.3,297.8h-0.2v0.2c-0.2,0.3-0.5,0.5-0.7,0.8h-0.3v0.302c-0.2,0.198-0.5,0.5-0.7,0.698h-0.3l0,0v0.302
			c-0.3,0.198-0.5,0.5-0.8,0.698h-0.2v0.2c-0.3,0.3-0.7,0.602-1,0.8l0,0l0,0c-0.4,0.302-0.7,0.602-1.1,0.802l-2.6-27.2h-3.9
			l-0.1-0.199L51,275.1h0.3V275l0.7-0.2v0.2h0.3v-0.101l3-0.699h0.1l0,0l0.7-0.2v0.2h0.3v-0.301l0.7-0.199v0.1l0,0v0.302h0.2
			l0.9,2.698l0,0v0.302h0.2l0.9,2.698l0,0v0.302h0.1l0.9,2.698l0,0v0.302h0.1l0.9,2.698l0,0v0.302h0.1l0.9,2.698l0,0v0.302h0.1
			l0.9,2.698v0.302h0.1l0.2,0.698h-0.3v0.302h0.3v-0.2l0.7,2v0.301h0.1l0.1,0.199c-0.4,0.5-0.7,1-1.1,1.5l0,0v0.1
			C62.9,297.2,62.6,297.5,62.3,297.8z M65.1,294.3l-7.3-21.8l-7.7,1.8l-5.2-14.5l0,0c-0.1-0.3-0.4-0.698-0.9-1.1
			c0.5-0.9,1-1.601,1.1-1.601c0.5-1,0.9-2.102-0.1-3.302l-1.5-1.897h0.4V247h0.4v-4c15.2,3.2,26.6,16.7,26.6,32.8
			C70.8,282.5,68.7,289,65.1,294.3z"/>
		<polygon fill="#FFFFFF" points="17.6,274.8 17.4,274.8 17.3,275.2 17.6,275.2 		"/>
		<rect x="18.3" y="274.8" fill="#FFFFFF" width="0.3" height="0.302"/>
		<rect x="19.3" y="274.8" fill="#FFFFFF" width="0.3" height="0.302"/>
		<rect x="20.4" y="274.8" fill="#FFFFFF" width="0.3" height="0.302"/>
		<rect x="21.4" y="274.8" fill="#FFFFFF" width="0.3" height="0.302"/>
		<rect x="17.3" y="275.8" fill="#FFFFFF" width="0.3" height="0.302"/>
		<rect x="18.3" y="275.8" fill="#FFFFFF" width="0.3" height="0.302"/>
		<rect x="19.3" y="275.8" fill="#FFFFFF" width="0.3" height="0.302"/>
		<rect x="17.3" y="276.8" fill="#FFFFFF" width="0.3" height="0.302"/>
		<rect x="18.3" y="276.8" fill="#FFFFFF" width="0.3" height="0.302"/>
		<rect x="19.3" y="276.8" fill="#FFFFFF" width="0.3" height="0.302"/>
		<polygon fill="#FFFFFF" points="16.6,277.8 16.4,277.8 16.3,278.2 16.6,278.2 		"/>
		<rect x="17.3" y="277.8" fill="#FFFFFF" width="0.3" height="0.302"/>
		<rect x="18.3" y="277.8" fill="#FFFFFF" width="0.3" height="0.302"/>
		<rect x="19.3" y="277.8" fill="#FFFFFF" width="0.3" height="0.302"/>
		<rect x="16.3" y="278.8" fill="#FFFFFF" width="0.3" height="0.302"/>
		<rect x="17.3" y="278.8" fill="#FFFFFF" width="0.3" height="0.302"/>
		<rect x="18.3" y="278.8" fill="#FFFFFF" width="0.3" height="0.302"/>
		<rect x="19.3" y="278.8" fill="#FFFFFF" width="0.3" height="0.302"/>
		<rect x="16.3" y="279.8" fill="#FFFFFF" width="0.3" height="0.302"/>
		<rect x="17.3" y="279.8" fill="#FFFFFF" width="0.3" height="0.302"/>
		<rect x="18.3" y="279.8" fill="#FFFFFF" width="0.3" height="0.302"/>
		<rect x="19.3" y="279.8" fill="#FFFFFF" width="0.3" height="0.302"/>
		<polygon fill="#FFFFFF" points="15.6,280.8 15.4,280.8 15.3,281.2 15.6,281.2 		"/>
		<rect x="16.3" y="280.8" fill="#FFFFFF" width="0.3" height="0.302"/>
		<rect x="17.3" y="280.8" fill="#FFFFFF" width="0.3" height="0.302"/>
		<rect x="18.3" y="280.8" fill="#FFFFFF" width="0.3" height="0.302"/>
		<rect x="19.3" y="280.8" fill="#FFFFFF" width="0.3" height="0.302"/>
		<rect x="15.3" y="281.8" fill="#FFFFFF" width="0.3" height="0.302"/>
		<rect x="16.3" y="281.8" fill="#FFFFFF" width="0.3" height="0.302"/>
		<rect x="17.3" y="281.8" fill="#FFFFFF" width="0.3" height="0.302"/>
		<rect x="18.3" y="281.8" fill="#FFFFFF" width="0.3" height="0.302"/>
		<polygon fill="#FFFFFF" points="19.6,281.8 19.3,281.8 19.3,282.2 19.6,282.2 		"/>
		<rect x="15.3" y="282.8" fill="#FFFFFF" width="0.3" height="0.302"/>
		<rect x="16.3" y="282.8" fill="#FFFFFF" width="0.3" height="0.302"/>
		<rect x="17.3" y="282.8" fill="#FFFFFF" width="0.3" height="0.302"/>
		<rect x="18.3" y="282.8" fill="#FFFFFF" width="0.3" height="0.302"/>
		<polygon fill="#FFFFFF" points="19.5,282.8 19.3,282.8 19.3,283.2 19.5,283.2 		"/>
		<polygon fill="#FFFFFF" points="14.6,283.8 14.4,283.8 14.3,284.2 14.6,284.2 		"/>
		<rect x="15.3" y="283.8" fill="#FFFFFF" width="0.3" height="0.302"/>
		<rect x="16.3" y="283.8" fill="#FFFFFF" width="0.3" height="0.302"/>
		<rect x="17.3" y="283.8" fill="#FFFFFF" width="0.3" height="0.302"/>
		<rect x="18.3" y="283.8" fill="#FFFFFF" width="0.3" height="0.302"/>
		<polygon fill="#FFFFFF" points="19.4,283.8 19.3,283.8 19.3,284.2 19.4,284.2 		"/>
		<rect x="14.3" y="284.8" fill="#FFFFFF" width="0.3" height="0.302"/>
		<rect x="15.3" y="284.8" fill="#FFFFFF" width="0.3" height="0.302"/>
		<rect x="16.3" y="284.8" fill="#FFFFFF" width="0.3" height="0.302"/>
		<rect x="17.3" y="284.8" fill="#FFFFFF" width="0.3" height="0.302"/>
		<rect x="18.3" y="284.8" fill="#FFFFFF" width="0.3" height="0.302"/>
		<path fill="#FFFFFF" d="M19.3,284.8L19.3,284.8L19.3,284.8z"/>
		<rect x="14.3" y="285.8" fill="#FFFFFF" width="0.3" height="0.302"/>
		<rect x="15.3" y="285.8" fill="#FFFFFF" width="0.3" height="0.302"/>
		<rect x="16.3" y="285.8" fill="#FFFFFF" width="0.3" height="0.302"/>
		<rect x="17.3" y="285.8" fill="#FFFFFF" width="0.3" height="0.302"/>
		<rect x="18.3" y="285.8" fill="#FFFFFF" width="0.3" height="0.302"/>
		<polygon fill="#FFFFFF" points="13.3,287.2 13.5,287.2 13.5,286.8 13.4,286.8 		"/>
		<rect x="14.3" y="286.8" fill="#FFFFFF" width="0.3" height="0.302"/>
		<rect x="15.3" y="286.8" fill="#FFFFFF" width="0.3" height="0.302"/>
		<rect x="16.3" y="286.8" fill="#FFFFFF" width="0.3" height="0.302"/>
		<rect x="17.3" y="286.8" fill="#FFFFFF" width="0.3" height="0.302"/>
		<rect x="18.3" y="286.8" fill="#FFFFFF" width="0.3" height="0.302"/>
		<rect x="13.2" y="287.8" fill="#FFFFFF" width="0.3" height="0.302"/>
		<rect x="14.3" y="287.8" fill="#FFFFFF" width="0.3" height="0.302"/>
		<rect x="15.3" y="287.8" fill="#FFFFFF" width="0.3" height="0.302"/>
		<rect x="16.3" y="287.8" fill="#FFFFFF" width="0.3" height="0.302"/>
		<rect x="17.3" y="287.8" fill="#FFFFFF" width="0.3" height="0.302"/>
		<rect x="18.3" y="287.8" fill="#FFFFFF" width="0.3" height="0.302"/>
		<rect x="13.2" y="288.8" fill="#FFFFFF" width="0.3" height="0.302"/>
		<rect x="14.3" y="288.8" fill="#FFFFFF" width="0.3" height="0.302"/>
		<rect x="15.3" y="288.8" fill="#FFFFFF" width="0.3" height="0.302"/>
		<rect x="16.3" y="288.8" fill="#FFFFFF" width="0.3" height="0.302"/>
		<rect x="17.3" y="288.8" fill="#FFFFFF" width="0.3" height="0.302"/>
		<rect x="18.3" y="288.8" fill="#FFFFFF" width="0.3" height="0.302"/>
		<polygon fill="#FFFFFF" points="12.3,290.2 12.6,290.2 12.6,289.8 12.4,289.8 		"/>
		<rect x="13.2" y="289.8" fill="#FFFFFF" width="0.3" height="0.302"/>
		<rect x="14.3" y="289.8" fill="#FFFFFF" width="0.3" height="0.302"/>
		<rect x="15.3" y="289.8" fill="#FFFFFF" width="0.3" height="0.302"/>
		<rect x="16.3" y="289.8" fill="#FFFFFF" width="0.3" height="0.302"/>
		<rect x="17.3" y="289.8" fill="#FFFFFF" width="0.3" height="0.302"/>
		<rect x="18.3" y="289.8" fill="#FFFFFF" width="0.3" height="0.302"/>
		<rect x="12.2" y="290.8" fill="#FFFFFF" width="0.3" height="0.302"/>
		<rect x="13.2" y="290.8" fill="#FFFFFF" width="0.3" height="0.302"/>
		<rect x="14.3" y="290.8" fill="#FFFFFF" width="0.3" height="0.302"/>
		<rect x="15.3" y="290.8" fill="#FFFFFF" width="0.3" height="0.302"/>
		<rect x="16.3" y="290.8" fill="#FFFFFF" width="0.3" height="0.302"/>
		<rect x="17.3" y="290.8" fill="#FFFFFF" width="0.3" height="0.302"/>
		<rect x="18.3" y="290.8" fill="#FFFFFF" width="0.3" height="0.302"/>
		<rect x="12.2" y="291.8" fill="#FFFFFF" width="0.3" height="0.302"/>
		<rect x="13.2" y="291.8" fill="#FFFFFF" width="0.3" height="0.302"/>
		<rect x="14.3" y="291.8" fill="#FFFFFF" width="0.3" height="0.302"/>
		<rect x="15.3" y="291.8" fill="#FFFFFF" width="0.3" height="0.302"/>
		<rect x="16.3" y="291.8" fill="#FFFFFF" width="0.3" height="0.302"/>
		<rect x="17.3" y="291.8" fill="#FFFFFF" width="0.3" height="0.302"/>
		<polygon fill="#FFFFFF" points="18.7,291.899 18.7,291.8 18.3,291.8 18.3,292.2 18.6,292.2 		"/>
		<polygon fill="#FFFFFF" points="11.3,293.2 11.5,293.2 11.5,292.8 11.4,292.8 		"/>
		<rect x="12.2" y="292.8" fill="#FFFFFF" width="0.3" height="0.302"/>
		<rect x="13.2" y="292.8" fill="#FFFFFF" width="0.3" height="0.302"/>
		<rect x="14.3" y="292.8" fill="#FFFFFF" width="0.3" height="0.302"/>
		<rect x="15.3" y="292.8" fill="#FFFFFF" width="0.3" height="0.302"/>
		<rect x="16.3" y="292.8" fill="#FFFFFF" width="0.3" height="0.302"/>
		<rect x="17.3" y="292.8" fill="#FFFFFF" width="0.3" height="0.302"/>
		<polygon fill="#FFFFFF" points="18.6,292.8 18.3,292.8 18.3,293.2 18.5,293.2 		"/>
		<polygon fill="#FFFFFF" points="11.2,294.2 11.2,294.2 11.5,294.2 11.5,294.2 11.5,293.8 11.2,293.8 		"/>
		<polygon fill="#FFFFFF" points="12.2,294.2 12.2,294.2 12.6,294.2 12.6,294.2 12.6,293.8 12.2,293.8 		"/>
		<polygon fill="#FFFFFF" points="13.2,294.2 13.2,294.2 13.5,294.2 13.5,294.2 13.5,293.8 13.2,293.8 		"/>
		<polygon fill="#FFFFFF" points="14.6,294.2 14.6,293.8 14.3,293.8 14.3,294.2 14.3,294.2 		"/>
		<polygon fill="#FFFFFF" points="15.6,294.2 15.6,293.8 15.3,293.8 15.3,294.2 15.3,294.2 		"/>
		<polygon fill="#FFFFFF" points="16.6,294.2 16.6,293.8 16.3,293.8 16.3,294.2 16.3,294.2 		"/>
		<polygon fill="#FFFFFF" points="17.6,294.2 17.6,293.8 17.3,293.8 17.3,294.2 17.3,294.2 		"/>
		<polygon fill="#FFFFFF" points="18.5,293.8 18.3,293.8 18.3,294.2 18.3,294.2 18.5,294.2 		"/>
		<rect x="11.2" y="294.8" fill="#FFFFFF" width="0.3" height="0.302"/>
		<rect x="12.2" y="294.8" fill="#FFFFFF" width="0.3" height="0.302"/>
		<rect x="13.2" y="294.8" fill="#FFFFFF" width="0.3" height="0.302"/>
		<rect x="14.3" y="294.8" fill="#FFFFFF" width="0.3" height="0.302"/>
		<rect x="15.3" y="294.8" fill="#FFFFFF" width="0.3" height="0.302"/>
		<rect x="16.3" y="294.8" fill="#FFFFFF" width="0.3" height="0.302"/>
		<rect x="17.3" y="294.8" fill="#FFFFFF" width="0.3" height="0.302"/>
		<polygon fill="#FFFFFF" points="18.4,294.8 18.3,294.8 18.3,295.2 18.4,295.2 		"/>
		<polygon fill="#FFFFFF" points="11.2,296.2 11.2,296.2 11.5,296.2 11.5,296.2 11.5,295.8 11.2,295.8 		"/>
		<polygon fill="#FFFFFF" points="12.2,296.2 12.2,296.2 12.6,296.2 12.6,296.2 12.6,295.8 12.2,295.8 		"/>
		<polygon fill="#FFFFFF" points="13.2,296.2 13.2,296.2 13.5,296.2 13.5,296.2 13.5,295.8 13.2,295.8 		"/>
		<polygon fill="#FFFFFF" points="14.6,296.2 14.6,295.8 14.3,295.8 14.3,296.2 14.3,296.2 		"/>
		<polygon fill="#FFFFFF" points="15.6,296.2 15.6,295.8 15.3,295.8 15.3,296.2 15.3,296.2 		"/>
		<polygon fill="#FFFFFF" points="16.6,296.2 16.6,295.8 16.3,295.8 16.3,296.2 16.3,296.2 		"/>
		<polygon fill="#FFFFFF" points="17.6,296.2 17.6,295.8 17.3,295.8 17.3,296.2 17.3,296.2 		"/>
		<polygon fill="#FFFFFF" points="12.2,297.2 12.2,297.2 12.6,297.2 12.6,297.2 12.6,296.8 12.2,296.8 		"/>
		<polygon fill="#FFFFFF" points="13.2,297.2 13.2,297.2 13.5,297.2 13.5,297.2 13.5,296.8 13.2,296.8 		"/>
		<polygon fill="#FFFFFF" points="14.6,297.2 14.6,296.8 14.3,296.8 14.3,297.2 14.3,297.2 		"/>
		<polygon fill="#FFFFFF" points="15.6,297.2 15.6,296.8 15.3,296.8 15.3,297.2 15.3,297.2 		"/>
		<polygon fill="#FFFFFF" points="16.6,297.2 16.6,296.8 16.3,296.8 16.3,297.2 16.3,297.2 		"/>
		<polygon fill="#FFFFFF" points="17.6,297.2 17.6,296.8 17.3,296.8 17.3,297.2 17.3,297.2 		"/>
		<polygon fill="#FFFFFF" points="13.2,298.2 13.2,298.2 13.5,298.2 13.5,298.2 13.5,297.8 13.2,297.8 		"/>
		<polygon fill="#FFFFFF" points="14.6,298.2 14.6,297.8 14.3,297.8 14.3,298.2 14.3,298.2 		"/>
		<polygon fill="#FFFFFF" points="15.6,298.2 15.6,297.8 15.3,297.8 15.3,298.2 15.3,298.2 		"/>
		<polygon fill="#FFFFFF" points="16.6,298.2 16.6,297.8 16.3,297.8 16.3,298.2 16.3,298.2 		"/>
		<polygon fill="#FFFFFF" points="17.6,298.2 17.6,297.8 17.3,297.8 17.3,298.2 17.3,298.2 		"/>
		<polygon fill="#FFFFFF" points="14.6,299.2 14.6,298.8 14.3,298.8 14.3,299.2 14.3,299.2 		"/>
		<polygon fill="#FFFFFF" points="15.6,299.2 15.6,298.8 15.3,298.8 15.3,299.2 15.3,299.2 		"/>
		<polygon fill="#FFFFFF" points="16.6,299.2 16.6,298.8 16.3,298.8 16.3,299.2 16.3,299.2 		"/>
		<polygon fill="#FFFFFF" points="17.6,299.2 17.6,298.8 17.3,298.8 17.3,299.2 17.3,299.2 		"/>
		<polygon fill="#FFFFFF" points="15.6,299.8 15.6,299.8 15.3,299.8 15.3,299.8 15.3,300.2 15.6,300.2 		"/>
		<polygon fill="#FFFFFF" points="16.6,299.8 16.6,299.8 16.3,299.8 16.3,299.8 16.3,300.2 16.6,300.2 		"/>
		<polygon fill="#FFFFFF" points="17.6,299.8 17.6,299.8 17.3,299.8 17.3,299.8 17.3,300.2 17.6,300.2 		"/>
		<rect x="16.3" y="300.8" fill="#FFFFFF" width="0.3" height="0.302"/>
		<rect x="17.3" y="300.8" fill="#FFFFFF" width="0.3" height="0.302"/>
		<rect x="17.3" y="301.8" fill="#FFFFFF" width="0.3" height="0.302"/>
		<rect x="21.4" y="280.8" fill="#FFFFFF" width="0.3" height="0.302"/>
		<rect x="22.4" y="280.8" fill="#FFFFFF" width="0.3" height="0.302"/>
		<rect x="23.4" y="280.8" fill="#FFFFFF" width="0.3" height="0.302"/>
		<rect x="24.4" y="280.8" fill="#FFFFFF" width="0.3" height="0.302"/>
		<rect x="25.5" y="280.8" fill="#FFFFFF" width="0.3" height="0.302"/>
		<rect x="26.5" y="280.8" fill="#FFFFFF" width="0.3" height="0.302"/>
		<rect x="29.6" y="280.8" fill="#FFFFFF" width="0.3" height="0.302"/>
		<rect x="30.6" y="280.8" fill="#FFFFFF" width="0.3" height="0.302"/>
		<rect x="31.6" y="280.8" fill="#FFFFFF" width="0.3" height="0.302"/>
		<rect x="32.6" y="280.8" fill="#FFFFFF" width="0.3" height="0.302"/>
		<rect x="33.6" y="280.8" fill="#FFFFFF" width="0.3" height="0.302"/>
		<rect x="34.6" y="280.8" fill="#FFFFFF" width="0.3" height="0.302"/>
		<rect x="35.7" y="280.8" fill="#FFFFFF" width="0.3" height="0.302"/>
		<rect x="36.7" y="280.8" fill="#FFFFFF" width="0.3" height="0.302"/>
		<rect x="37.7" y="280.8" fill="#FFFFFF" width="0.3" height="0.302"/>
		<rect x="38.7" y="280.8" fill="#FFFFFF" width="0.3" height="0.302"/>
		<rect x="39.8" y="280.8" fill="#FFFFFF" width="0.3" height="0.302"/>
		<rect x="40.8" y="280.8" fill="#FFFFFF" width="0.3" height="0.302"/>
		<rect x="41.8" y="280.8" fill="#FFFFFF" width="0.3" height="0.302"/>
		<rect x="42.8" y="280.8" fill="#FFFFFF" width="0.3" height="0.302"/>
		<rect x="43.8" y="280.8" fill="#FFFFFF" width="0.3" height="0.302"/>
		<rect x="44.8" y="280.8" fill="#FFFFFF" width="0.3" height="0.302"/>
		<rect x="47.9" y="280.8" fill="#FFFFFF" width="0.3" height="0.302"/>
		<rect x="48.9" y="280.8" fill="#FFFFFF" width="0.3" height="0.302"/>
		<rect x="49.9" y="280.8" fill="#FFFFFF" width="0.3" height="0.302"/>
		<rect x="50.9" y="280.8" fill="#FFFFFF" width="0.3" height="0.302"/>
		<rect x="52" y="280.8" fill="#FFFFFF" width="0.3" height="0.302"/>
		<rect x="53" y="280.8" fill="#FFFFFF" width="0.3" height="0.302"/>
		<rect x="21.4" y="281.8" fill="#FFFFFF" width="0.3" height="0.302"/>
		<rect x="22.4" y="281.8" fill="#FFFFFF" width="0.3" height="0.302"/>
		<rect x="23.4" y="281.8" fill="#FFFFFF" width="0.3" height="0.302"/>
		<rect x="24.4" y="281.8" fill="#FFFFFF" width="0.3" height="0.302"/>
		<rect x="25.5" y="281.8" fill="#FFFFFF" width="0.3" height="0.302"/>
		<rect x="26.5" y="281.8" fill="#FFFFFF" width="0.3" height="0.302"/>
		<rect x="29.6" y="281.8" fill="#FFFFFF" width="0.3" height="0.302"/>
		<rect x="30.6" y="281.8" fill="#FFFFFF" width="0.3" height="0.302"/>
		<rect x="31.6" y="281.8" fill="#FFFFFF" width="0.3" height="0.302"/>
		<rect x="32.6" y="281.8" fill="#FFFFFF" width="0.3" height="0.302"/>
		<rect x="33.6" y="281.8" fill="#FFFFFF" width="0.3" height="0.302"/>
		<rect x="34.6" y="281.8" fill="#FFFFFF" width="0.3" height="0.302"/>
		<rect x="35.7" y="281.8" fill="#FFFFFF" width="0.3" height="0.302"/>
		<rect x="36.7" y="281.8" fill="#FFFFFF" width="0.3" height="0.302"/>
		<rect x="37.7" y="281.8" fill="#FFFFFF" width="0.3" height="0.302"/>
		<rect x="38.7" y="281.8" fill="#FFFFFF" width="0.3" height="0.302"/>
		<rect x="39.8" y="281.8" fill="#FFFFFF" width="0.3" height="0.302"/>
		<rect x="40.8" y="281.8" fill="#FFFFFF" width="0.3" height="0.302"/>
		<rect x="41.8" y="281.8" fill="#FFFFFF" width="0.3" height="0.302"/>
		<rect x="42.8" y="281.8" fill="#FFFFFF" width="0.3" height="0.302"/>
		<rect x="43.8" y="281.8" fill="#FFFFFF" width="0.3" height="0.302"/>
		<rect x="44.8" y="281.8" fill="#FFFFFF" width="0.3" height="0.302"/>
		<rect x="47.9" y="281.8" fill="#FFFFFF" width="0.3" height="0.302"/>
		<rect x="48.9" y="281.8" fill="#FFFFFF" width="0.3" height="0.302"/>
		<rect x="49.9" y="281.8" fill="#FFFFFF" width="0.3" height="0.302"/>
		<rect x="50.9" y="281.8" fill="#FFFFFF" width="0.3" height="0.302"/>
		<rect x="52" y="281.8" fill="#FFFFFF" width="0.3" height="0.302"/>
		<rect x="53" y="281.8" fill="#FFFFFF" width="0.3" height="0.302"/>
		<rect x="21.4" y="283.8" fill="#FFFFFF" width="0.3" height="0.302"/>
		<rect x="22.4" y="283.8" fill="#FFFFFF" width="0.3" height="0.302"/>
		<rect x="21.4" y="284.8" fill="#FFFFFF" width="0.3" height="0.302"/>
		<rect x="22.4" y="284.8" fill="#FFFFFF" width="0.3" height="0.302"/>
		<rect x="23.4" y="283.8" fill="#FFFFFF" width="0.3" height="0.302"/>
		<rect x="24.4" y="283.8" fill="#FFFFFF" width="0.3" height="0.302"/>
		<rect x="23.4" y="284.8" fill="#FFFFFF" width="0.3" height="0.302"/>
		<rect x="24.4" y="284.8" fill="#FFFFFF" width="0.3" height="0.302"/>
		<rect x="25.5" y="283.8" fill="#FFFFFF" width="0.3" height="0.302"/>
		<rect x="26.5" y="283.8" fill="#FFFFFF" width="0.3" height="0.302"/>
		<rect x="25.5" y="284.8" fill="#FFFFFF" width="0.3" height="0.302"/>
		<rect x="26.5" y="284.8" fill="#FFFFFF" width="0.3" height="0.302"/>
		<rect x="29.6" y="283.8" fill="#FFFFFF" width="0.3" height="0.302"/>
		<rect x="30.6" y="283.8" fill="#FFFFFF" width="0.3" height="0.302"/>
		<rect x="29.6" y="284.8" fill="#FFFFFF" width="0.3" height="0.302"/>
		<rect x="30.6" y="284.8" fill="#FFFFFF" width="0.3" height="0.302"/>
		<rect x="31.6" y="283.8" fill="#FFFFFF" width="0.3" height="0.302"/>
		<rect x="32.6" y="283.8" fill="#FFFFFF" width="0.3" height="0.302"/>
		<rect x="31.6" y="284.8" fill="#FFFFFF" width="0.3" height="0.302"/>
		<rect x="32.6" y="284.8" fill="#FFFFFF" width="0.3" height="0.302"/>
		<rect x="33.6" y="283.8" fill="#FFFFFF" width="0.3" height="0.302"/>
		<rect x="34.6" y="283.8" fill="#FFFFFF" width="0.3" height="0.302"/>
		<rect x="33.6" y="284.8" fill="#FFFFFF" width="0.3" height="0.302"/>
		<rect x="34.6" y="284.8" fill="#FFFFFF" width="0.3" height="0.302"/>
		<rect x="35.7" y="283.8" fill="#FFFFFF" width="0.3" height="0.302"/>
		<rect x="36.7" y="283.8" fill="#FFFFFF" width="0.3" height="0.302"/>
		<rect x="35.7" y="284.8" fill="#FFFFFF" width="0.3" height="0.302"/>
		<rect x="36.7" y="284.8" fill="#FFFFFF" width="0.3" height="0.302"/>
		<rect x="37.7" y="283.8" fill="#FFFFFF" width="0.3" height="0.302"/>
		<rect x="38.7" y="283.8" fill="#FFFFFF" width="0.3" height="0.302"/>
		<rect x="37.7" y="284.8" fill="#FFFFFF" width="0.3" height="0.302"/>
		<rect x="38.7" y="284.8" fill="#FFFFFF" width="0.3" height="0.302"/>
		<rect x="39.8" y="283.8" fill="#FFFFFF" width="0.3" height="0.302"/>
		<rect x="40.8" y="283.8" fill="#FFFFFF" width="0.3" height="0.302"/>
		<rect x="39.8" y="284.8" fill="#FFFFFF" width="0.3" height="0.302"/>
		<rect x="40.8" y="284.8" fill="#FFFFFF" width="0.3" height="0.302"/>
		<rect x="41.8" y="283.8" fill="#FFFFFF" width="0.3" height="0.302"/>
		<rect x="42.8" y="283.8" fill="#FFFFFF" width="0.3" height="0.302"/>
		<rect x="41.8" y="284.8" fill="#FFFFFF" width="0.3" height="0.302"/>
		<rect x="42.8" y="284.8" fill="#FFFFFF" width="0.3" height="0.302"/>
		<rect x="43.8" y="283.8" fill="#FFFFFF" width="0.3" height="0.302"/>
		<rect x="44.8" y="283.8" fill="#FFFFFF" width="0.3" height="0.302"/>
		<rect x="43.8" y="284.8" fill="#FFFFFF" width="0.3" height="0.302"/>
		<rect x="44.8" y="284.8" fill="#FFFFFF" width="0.3" height="0.302"/>
		<rect x="47.9" y="283.8" fill="#FFFFFF" width="0.3" height="0.302"/>
		<rect x="48.9" y="283.8" fill="#FFFFFF" width="0.3" height="0.302"/>
		<rect x="47.9" y="284.8" fill="#FFFFFF" width="0.3" height="0.302"/>
		<rect x="48.9" y="284.8" fill="#FFFFFF" width="0.3" height="0.302"/>
		<rect x="49.9" y="283.8" fill="#FFFFFF" width="0.3" height="0.302"/>
		<rect x="50.9" y="283.8" fill="#FFFFFF" width="0.3" height="0.302"/>
		<rect x="49.9" y="284.8" fill="#FFFFFF" width="0.3" height="0.302"/>
		<rect x="50.9" y="284.8" fill="#FFFFFF" width="0.3" height="0.302"/>
		<rect x="52" y="283.8" fill="#FFFFFF" width="0.3" height="0.302"/>
		<rect x="53" y="283.8" fill="#FFFFFF" width="0.3" height="0.302"/>
		<rect x="52" y="284.8" fill="#FFFFFF" width="0.3" height="0.302"/>
		<rect x="53" y="284.8" fill="#FFFFFF" width="0.3" height="0.302"/>
		<rect x="53" y="274.8" fill="#FFFFFF" width="0.3" height="0.302"/>
		<rect x="54" y="274.8" fill="#FFFFFF" width="0.3" height="0.302"/>
		<rect x="55" y="274.8" fill="#FFFFFF" width="0.3" height="0.302"/>
		<rect x="56" y="274.8" fill="#FFFFFF" width="0.3" height="0.302"/>
		<rect x="57.1" y="274.8" fill="#FFFFFF" width="0.3" height="0.302"/>
		<rect x="55" y="275.8" fill="#FFFFFF" width="0.3" height="0.302"/>
		<rect x="56" y="275.8" fill="#FFFFFF" width="0.3" height="0.302"/>
		<rect x="57.1" y="275.8" fill="#FFFFFF" width="0.3" height="0.302"/>
		<rect x="55" y="276.8" fill="#FFFFFF" width="0.3" height="0.302"/>
		<rect x="56" y="276.8" fill="#FFFFFF" width="0.3" height="0.302"/>
		<rect x="57.1" y="276.8" fill="#FFFFFF" width="0.3" height="0.302"/>
		<rect x="55" y="277.8" fill="#FFFFFF" width="0.3" height="0.302"/>
		<rect x="56" y="277.8" fill="#FFFFFF" width="0.3" height="0.302"/>
		<rect x="57.1" y="277.8" fill="#FFFFFF" width="0.3" height="0.302"/>
		<rect x="58.1" y="277.8" fill="#FFFFFF" width="0.3" height="0.302"/>
		<rect x="55" y="278.8" fill="#FFFFFF" width="0.3" height="0.302"/>
		<rect x="56" y="278.8" fill="#FFFFFF" width="0.3" height="0.302"/>
		<rect x="57.1" y="278.8" fill="#FFFFFF" width="0.3" height="0.302"/>
		<rect x="58.1" y="278.8" fill="#FFFFFF" width="0.3" height="0.302"/>
		<rect x="55" y="279.8" fill="#FFFFFF" width="0.3" height="0.302"/>
		<rect x="56" y="279.8" fill="#FFFFFF" width="0.3" height="0.302"/>
		<rect x="57.1" y="279.8" fill="#FFFFFF" width="0.3" height="0.302"/>
		<rect x="58.1" y="279.8" fill="#FFFFFF" width="0.3" height="0.302"/>
		<rect x="55" y="280.8" fill="#FFFFFF" width="0.3" height="0.302"/>
		<rect x="56" y="280.8" fill="#FFFFFF" width="0.3" height="0.302"/>
		<rect x="57.1" y="280.8" fill="#FFFFFF" width="0.3" height="0.302"/>
		<rect x="58.1" y="280.8" fill="#FFFFFF" width="0.3" height="0.302"/>
		<rect x="59.1" y="280.8" fill="#FFFFFF" width="0.3" height="0.302"/>
		<polygon fill="#FFFFFF" points="55.1,282.2 55.4,282.2 55.4,281.8 55.1,281.8 		"/>
		<rect x="56" y="281.8" fill="#FFFFFF" width="0.3" height="0.302"/>
		<rect x="57.1" y="281.8" fill="#FFFFFF" width="0.3" height="0.302"/>
		<rect x="58.1" y="281.8" fill="#FFFFFF" width="0.3" height="0.302"/>
		<rect x="59.1" y="281.8" fill="#FFFFFF" width="0.3" height="0.302"/>
		<polygon fill="#FFFFFF" points="55.2,283.2 55.4,283.2 55.4,282.8 55.2,282.8 		"/>
		<rect x="56" y="282.8" fill="#FFFFFF" width="0.3" height="0.302"/>
		<rect x="57.1" y="282.8" fill="#FFFFFF" width="0.3" height="0.302"/>
		<rect x="58.1" y="282.8" fill="#FFFFFF" width="0.3" height="0.302"/>
		<rect x="59.1" y="282.8" fill="#FFFFFF" width="0.3" height="0.302"/>
		<polygon fill="#FFFFFF" points="55.3,284.2 55.4,284.2 55.4,283.8 55.3,283.8 		"/>
		<rect x="56" y="283.8" fill="#FFFFFF" width="0.3" height="0.302"/>
		<rect x="57.1" y="283.8" fill="#FFFFFF" width="0.3" height="0.302"/>
		<rect x="58.1" y="283.8" fill="#FFFFFF" width="0.3" height="0.302"/>
		<rect x="59.1" y="283.8" fill="#FFFFFF" width="0.3" height="0.302"/>
		<rect x="60.1" y="283.8" fill="#FFFFFF" width="0.3" height="0.302"/>
		<polygon fill="#FFFFFF" points="55.4,284.899 55.4,284.8 55.4,284.8 		"/>
		<rect x="56" y="284.8" fill="#FFFFFF" width="0.3" height="0.302"/>
		<rect x="57.1" y="284.8" fill="#FFFFFF" width="0.3" height="0.302"/>
		<rect x="58.1" y="284.8" fill="#FFFFFF" width="0.3" height="0.302"/>
		<rect x="59.1" y="284.8" fill="#FFFFFF" width="0.3" height="0.302"/>
		<rect x="60.1" y="284.8" fill="#FFFFFF" width="0.3" height="0.302"/>
		<rect x="56" y="285.8" fill="#FFFFFF" width="0.3" height="0.302"/>
		<rect x="57.1" y="285.8" fill="#FFFFFF" width="0.3" height="0.302"/>
		<rect x="58.1" y="285.8" fill="#FFFFFF" width="0.3" height="0.302"/>
		<rect x="59.1" y="285.8" fill="#FFFFFF" width="0.3" height="0.302"/>
		<rect x="60.1" y="285.8" fill="#FFFFFF" width="0.3" height="0.302"/>
		<rect x="56" y="286.8" fill="#FFFFFF" width="0.3" height="0.302"/>
		<rect x="57.1" y="286.8" fill="#FFFFFF" width="0.3" height="0.302"/>
		<rect x="58.1" y="286.8" fill="#FFFFFF" width="0.3" height="0.302"/>
		<rect x="59.1" y="286.8" fill="#FFFFFF" width="0.3" height="0.302"/>
		<rect x="60.1" y="286.8" fill="#FFFFFF" width="0.3" height="0.302"/>
		<rect x="61.1" y="286.8" fill="#FFFFFF" width="0.3" height="0.302"/>
		<rect x="56" y="287.8" fill="#FFFFFF" width="0.3" height="0.302"/>
		<rect x="57.1" y="287.8" fill="#FFFFFF" width="0.3" height="0.302"/>
		<rect x="58.1" y="287.8" fill="#FFFFFF" width="0.3" height="0.302"/>
		<rect x="59.1" y="287.8" fill="#FFFFFF" width="0.3" height="0.302"/>
		<rect x="60.1" y="287.8" fill="#FFFFFF" width="0.3" height="0.302"/>
		<rect x="61.1" y="287.8" fill="#FFFFFF" width="0.3" height="0.302"/>
		<rect x="56" y="288.8" fill="#FFFFFF" width="0.3" height="0.302"/>
		<rect x="57.1" y="288.8" fill="#FFFFFF" width="0.3" height="0.302"/>
		<rect x="58.1" y="288.8" fill="#FFFFFF" width="0.3" height="0.302"/>
		<rect x="59.1" y="288.8" fill="#FFFFFF" width="0.3" height="0.302"/>
		<rect x="60.1" y="288.8" fill="#FFFFFF" width="0.3" height="0.302"/>
		<rect x="61.1" y="288.8" fill="#FFFFFF" width="0.3" height="0.302"/>
		<rect x="56" y="289.8" fill="#FFFFFF" width="0.3" height="0.302"/>
		<rect x="57.1" y="289.8" fill="#FFFFFF" width="0.3" height="0.302"/>
		<rect x="58.1" y="289.8" fill="#FFFFFF" width="0.3" height="0.302"/>
		<rect x="59.1" y="289.8" fill="#FFFFFF" width="0.3" height="0.302"/>
		<rect x="60.1" y="289.8" fill="#FFFFFF" width="0.3" height="0.302"/>
		<rect x="61.1" y="289.8" fill="#FFFFFF" width="0.3" height="0.302"/>
		<rect x="62.1" y="289.8" fill="#FFFFFF" width="0.3" height="0.302"/>
		<rect x="56" y="290.8" fill="#FFFFFF" width="0.3" height="0.302"/>
		<rect x="57.1" y="290.8" fill="#FFFFFF" width="0.3" height="0.302"/>
		<rect x="58.1" y="290.8" fill="#FFFFFF" width="0.3" height="0.302"/>
		<rect x="59.1" y="290.8" fill="#FFFFFF" width="0.3" height="0.302"/>
		<rect x="60.1" y="290.8" fill="#FFFFFF" width="0.3" height="0.302"/>
		<rect x="61.1" y="290.8" fill="#FFFFFF" width="0.3" height="0.302"/>
		<rect x="62.1" y="290.8" fill="#FFFFFF" width="0.3" height="0.302"/>
		<polygon fill="#FFFFFF" points="56,291.899 56,292.2 56.4,292.2 56.4,291.8 56,291.8 		"/>
		<rect x="57.1" y="291.8" fill="#FFFFFF" width="0.3" height="0.302"/>
		<rect x="58.1" y="291.8" fill="#FFFFFF" width="0.3" height="0.302"/>
		<rect x="59.1" y="291.8" fill="#FFFFFF" width="0.3" height="0.302"/>
		<rect x="60.1" y="291.8" fill="#FFFFFF" width="0.3" height="0.302"/>
		<rect x="61.1" y="291.8" fill="#FFFFFF" width="0.3" height="0.302"/>
		<rect x="62.1" y="291.8" fill="#FFFFFF" width="0.3" height="0.302"/>
		<polygon fill="#FFFFFF" points="56.1,293.2 56.4,293.2 56.4,292.8 56.1,292.8 		"/>
		<rect x="57.1" y="292.8" fill="#FFFFFF" width="0.3" height="0.302"/>
		<rect x="58.1" y="292.8" fill="#FFFFFF" width="0.3" height="0.302"/>
		<rect x="59.1" y="292.8" fill="#FFFFFF" width="0.3" height="0.302"/>
		<rect x="60.1" y="292.8" fill="#FFFFFF" width="0.3" height="0.302"/>
		<rect x="61.1" y="292.8" fill="#FFFFFF" width="0.3" height="0.302"/>
		<rect x="62.1" y="292.8" fill="#FFFFFF" width="0.3" height="0.302"/>
		<polygon fill="#FFFFFF" points="56.2,294.2 56.4,294.2 56.4,293.8 56.2,293.8 		"/>
		<rect x="57.1" y="293.8" fill="#FFFFFF" width="0.3" height="0.302"/>
		<rect x="58.1" y="293.8" fill="#FFFFFF" width="0.3" height="0.302"/>
		<rect x="59.1" y="293.8" fill="#FFFFFF" width="0.3" height="0.302"/>
		<rect x="60.1" y="293.8" fill="#FFFFFF" width="0.3" height="0.302"/>
		<rect x="61.1" y="293.8" fill="#FFFFFF" width="0.3" height="0.302"/>
		<rect x="62.1" y="293.8" fill="#FFFFFF" width="0.3" height="0.302"/>
		<rect x="63.2" y="293.8" fill="#FFFFFF" width="0.3" height="0.302"/>
		<polygon fill="#FFFFFF" points="56.3,295.2 56.4,295.2 56.4,294.8 56.3,294.8 		"/>
		<rect x="57.1" y="294.8" fill="#FFFFFF" width="0.3" height="0.302"/>
		<rect x="58.1" y="294.8" fill="#FFFFFF" width="0.3" height="0.302"/>
		<rect x="59.1" y="294.8" fill="#FFFFFF" width="0.3" height="0.302"/>
		<rect x="60.1" y="294.8" fill="#FFFFFF" width="0.3" height="0.302"/>
		<rect x="61.1" y="294.8" fill="#FFFFFF" width="0.3" height="0.302"/>
		<rect x="62.1" y="294.8" fill="#FFFFFF" width="0.3" height="0.302"/>
		<rect x="63.2" y="294.8" fill="#FFFFFF" width="0.3" height="0.302"/>
		<rect x="57.1" y="295.8" fill="#FFFFFF" width="0.3" height="0.302"/>
		<rect x="58.1" y="295.8" fill="#FFFFFF" width="0.3" height="0.302"/>
		<rect x="59.1" y="295.8" fill="#FFFFFF" width="0.3" height="0.302"/>
		<rect x="60.1" y="295.8" fill="#FFFFFF" width="0.3" height="0.302"/>
		<rect x="61.1" y="295.8" fill="#FFFFFF" width="0.3" height="0.302"/>
		<rect x="62.1" y="295.8" fill="#FFFFFF" width="0.3" height="0.302"/>
		<rect x="63.2" y="295.8" fill="#FFFFFF" width="0.3" height="0.302"/>
		<polygon fill="#FFFFFF" points="57.1,297.2 57.1,297.2 57.4,297.2 57.4,297.2 57.4,296.8 57.1,296.8 		"/>
		<polygon fill="#FFFFFF" points="58.1,297.2 58.1,297.2 58.4,297.2 58.4,297.2 58.4,296.8 58.1,296.8 		"/>
		<polygon fill="#FFFFFF" points="59.1,297.2 59.1,297.2 59.4,297.2 59.4,297.2 59.4,296.8 59.1,296.8 		"/>
		<polygon fill="#FFFFFF" points="60.1,297.2 60.1,297.2 60.4,297.2 60.4,297.2 60.4,296.8 60.1,296.8 		"/>
		<polygon fill="#FFFFFF" points="61.1,297.2 61.1,297.2 61.5,297.2 61.5,297.2 61.5,296.8 61.1,296.8 		"/>
		<polygon fill="#FFFFFF" points="62.1,297.2 62.1,297.2 62.5,297.2 62.5,297.2 62.5,296.8 62.1,296.8 		"/>
		<rect x="57.1" y="297.8" fill="#FFFFFF" width="0.3" height="0.302"/>
		<rect x="58.1" y="297.8" fill="#FFFFFF" width="0.3" height="0.302"/>
		<rect x="59.1" y="297.8" fill="#FFFFFF" width="0.3" height="0.302"/>
		<rect x="60.1" y="297.8" fill="#FFFFFF" width="0.3" height="0.302"/>
		<rect x="61.1" y="297.8" fill="#FFFFFF" width="0.3" height="0.302"/>
		<polygon fill="#FFFFFF" points="57.1,299.2 57.1,299.2 57.4,299.2 57.4,299.2 57.4,298.8 57.1,298.8 		"/>
		<polygon fill="#FFFFFF" points="58.1,299.2 58.1,299.2 58.4,299.2 58.4,299.2 58.4,298.8 58.1,298.8 		"/>
		<polygon fill="#FFFFFF" points="59.1,299.2 59.1,299.2 59.4,299.2 59.4,299.2 59.4,298.8 59.1,298.8 		"/>
		<polygon fill="#FFFFFF" points="60.1,299.2 60.1,299.2 60.4,299.2 60.4,299.2 60.4,298.8 60.1,298.8 		"/>
		<polygon fill="#FFFFFF" points="57.1,299.8 57.1,300.2 57.4,300.2 57.4,299.8 57.4,299.8 		"/>
		<polygon fill="#FFFFFF" points="58.1,299.8 58.1,300.2 58.4,300.2 58.4,299.8 58.4,299.8 		"/>
		<polygon fill="#FFFFFF" points="59.1,299.8 59.1,300.2 59.4,300.2 59.4,299.8 59.4,299.8 		"/>
		<rect x="57.1" y="300.8" fill="#FFFFFF" width="0.3" height="0.302"/>
		<rect x="58.1" y="300.8" fill="#FFFFFF" width="0.3" height="0.302"/>
		<rect x="57.1" y="301.8" fill="#FFFFFF" width="0.3" height="0.302"/>
		<rect x="40.1" y="244.7" fill="#FFFFFF" width="0.3" height="0.3"/>
		<rect x="41.1" y="244.7" fill="#FFFFFF" width="0.3" height="0.3"/>
		<rect x="40.1" y="243.5" fill="#FFFFFF" width="0.3" height="0.3"/>
		<rect x="40.1" y="242.5" fill="#FFFFFF" width="0.3" height="0.3"/>
		<rect x="41.1" y="243.5" fill="#FFFFFF" width="0.3" height="0.3"/>
		<rect x="41.1" y="242.5" fill="#FFFFFF" width="0.3" height="0.3"/>
		<path fill="#FFFFFF" d="M40.7,249.5c0.3,0,0.5-0.101,0.7-0.3c0.2-0.2,0.2-0.4,0.2-0.601c0-0.201-0.1-0.5-0.3-0.602
			c-0.2-0.2-0.4-0.3-0.7-0.3c-0.5,0-0.9,0.399-0.9,0.899C39.8,249.099,40.2,249.5,40.7,249.5z"/>
	</g>
</g>
<path fill="#FFFFFF" d="M70.1,22.3c-1.8-4.3-4.5-8.3-7.8-11.601c-3.4-3.399-7.3-6-11.6-7.8C46.2,1,41.4,0,36.5,0s-9.7,1-14.2,2.899
	c-4.3,1.8-8.3,4.5-11.6,7.8C7.3,14.099,4.7,18,2.9,22.3C1,26.8,0,31.599,0,36.5c0,4.899,1,9.699,2.9,14.199C4.7,55,7.4,59,10.7,62.3
	c3.4,3.399,7.3,6,11.6,7.802C26.8,72,31.6,73,36.5,73s9.7-1,14.2-2.898C55,68.3,59,65.6,62.3,62.3c3.3-3.3,6-7.3,7.8-11.601
	c1.9-4.5,2.9-9.3,2.9-14.199C73,31.599,72,26.8,70.1,22.3z M70.7,33.699L63.4,41L33.7,70.699c-1.1-0.1-2.3-0.199-3.4-0.399l29-29
	h0.2V41.1l4.2-4.2l6.5-6.5C70.4,31.399,70.6,32.5,70.7,33.699z M15.3,63.5l12.6-12.601l1.9,1.898L17.5,65.099c0.1,0,0.1,0.1,0.2,0.1
	c-0.9-0.6-1.8-1.199-2.6-1.899C15.2,63.399,15.2,63.399,15.3,63.5z M15,63.3c-0.7-0.601-1.4-1.198-2.1-1.8l12.8-12.7l1.9,1.899
	L15,63.3z M30.1,53.099L32,55L20.3,66.699C19.5,66.3,18.7,65.8,17.9,65.3L30.1,53.099z M15.5,36.5l21.2-21.2L42,20.6L29.4,33.2h28.7
	v6.7H29.4l12.5,12.5l-5.3,5.3L15.5,36.5z M7.1,54.3l12.1-12.101l1.9,1.9L8.6,56.5c0.1,0.102,0.1,0.199,0.2,0.199
	c-0.7-0.899-1.3-1.8-1.9-2.8C7,54.099,7.1,54.199,7.1,54.3z M6.9,53.899c-0.5-0.8-0.9-1.602-1.3-2.5L17,40l1.9,1.899L6.9,53.899z
	 M21.4,44.399l1.9,1.898L10.6,59C10,58.3,9.4,57.6,8.9,56.899L21.4,44.399z M37.5,41.199h3.9L37.1,45.5L35.2,43.6L37.5,41.199z
	 M34.9,43.399l-1.8-1.8l0.3-0.302h3.7L34.9,43.399z M41.9,41.199h4L39.3,47.8l-2-2L41.9,41.199z M46.4,41.199H50l-8.6,8.7l-1.8-1.8
	L46.4,41.199z M50.6,41.199h3.8L43.6,52L41.7,50.1L50.6,41.199z M32.8,41.199L32.8,41.199L32.8,41.199L32.8,41.199z M36.3,59.3
	l-10,10c0.1,0,0.2,0.102,0.3,0.102c-1.2-0.3-2.3-0.8-3.4-1.2c0.1,0,0.2,0.103,0.2,0.103l10.9-10.9L36.3,59.3z M36.6,59.599
	L36.6,59.599l7.3-7.2l-0.1-0.102l11.1-11.101h3.9l-28.9,28.9c0.1,0,0.3,0.1,0.4,0.1c-1.2-0.199-2.3-0.5-3.5-0.8L36.6,59.599z
	 M70.2,29.899l-6.8,6.8l-3.9,3.9v-3.802l9.9-10C69.7,27.8,70,28.8,70.2,29.899z M69.3,26.399l-9.8,9.898v-3.8l8.8-8.898
	C68.6,24.5,69,25.399,69.3,26.399z M68.1,23.199L59.5,32v-0.2h-3.9L66.9,20.6C67.3,21.5,67.7,22.3,68.1,23.199z M66.7,20.3
	L55.1,31.8h-3.7L65.3,17.9C65.8,18.599,66.3,19.399,66.7,20.3z M65.1,17.599L50.9,31.8h-3.8L63.5,15.4C64,16,64.6,16.8,65.1,17.599z
	 M63.2,15L46.5,31.7h-4l18.9-18.801C62.1,13.699,62.7,14.3,63.2,15z M61.2,12.699L42.1,31.8h-3.8l21-20.898
	C59.9,11.399,60.6,12.099,61.2,12.699z M59,10.599L37.8,31.8h-3.7L56.9,8.9C57.6,9.399,58.3,10,59,10.599z M56.5,8.699L33.5,31.8
	h-0.8l11.1-11.101l-1.6-1.6l11.9-11.9C55,7.599,55.8,8.099,56.5,8.699z M53.9,7L42,18.8L40.1,16.9L51.4,5.6C52.3,6,53.1,6.5,53.9,7z
	 M51.1,5.5L39.9,16.7L38,14.8L48.4,4.4C49.3,4.699,50.2,5,51.1,5.5z M32.9,2.399c-0.2,0-0.3,0-0.5,0.101
	C32.6,2.399,32.7,2.399,32.9,2.399z M27.5,3.399c-0.2,0.101-0.4,0.101-0.6,0.2C27.1,3.5,27.3,3.399,27.5,3.399z M19.7,6.599
	c-0.2,0.101-0.4,0.198-0.5,0.3C19.4,6.8,19.6,6.699,19.7,6.599z M20.3,6.3C20.1,6.4,20,6.5,19.8,6.6C20,6.399,20.2,6.3,20.3,6.3z
	 M19.2,6.899L6.8,19.3C9.8,14.099,14.1,9.899,19.2,6.899z M6.2,20.399l14.2-14.2c2-1.1,4.2-2,6.5-2.699L3.5,26.899
	C4.2,24.599,5.1,22.5,6.2,20.399z M3.3,27.599l24.2-24.2C29,3,30.6,2.699,32.3,2.5L2.4,32.3C2.6,30.699,2.9,29.099,3.3,27.599z
	 M2.2,36.5c0-1.2,0.1-2.5,0.2-3.7L32.9,2.3C34.1,2.199,35.3,2.1,36.5,2.1c0.1,0,0.3,0,0.4,0L2.2,36.9C2.2,36.8,2.2,36.699,2.2,36.5z
	 M2.2,37.399l35.3-35.2c1.2,0,2.4,0.101,3.6,0.301L2.4,40.899C2.3,39.699,2.2,38.599,2.2,37.399z M2.5,41.3L41.4,2.5
	c1.1,0.2,2.2,0.399,3.2,0.602L3.1,44.6C2.9,43.599,2.7,42.5,2.5,41.3z M45.1,3.3c1,0.302,2,0.602,2.9,0.899L37.7,14.5l-1.1-1.101
	L13.5,36.5l1.1,1.102L4.2,48c0,0.102,0.1,0.3,0.1,0.399l10.6-10.5l1.9,1.898L5.4,51.099c0,0.1,0.1,0.198,0.1,0.198
	c-1-2-1.7-4.101-2.3-6.3L45.1,3.3z M10.6,59.099c0.1,0.1,0.1,0.1,0.2,0.198l12.7-12.698l2,1.898L12.7,61.3
	c0.1,0.102,0.1,0.102,0.2,0.2C12.1,60.599,11.3,59.899,10.6,59.099z M20.4,66.8c0.1,0,0.1,0.102,0.2,0.102l11.7-11.7l1.9,1.9l-11,11
	C22.2,67.699,21.3,67.3,20.4,66.8z M49.8,68.099l18.3-18.302C64.6,58.099,58,64.599,49.8,68.099z M68.5,49L49,68.5
	c-1.8,0.699-3.6,1.199-5.5,1.602L70.1,43.5C69.7,45.399,69.1,47.199,68.5,49z M70.2,42.899L42.8,70.3c-1.4,0.302-2.9,0.399-4.4,0.5
	L62.8,46.4l0,0l7.8-7.8C70.7,40,70.5,41.5,70.2,42.899z M70.8,38l-7.7,7.699L38,70.8c-0.5,0-1,0-1.5,0c-0.8,0-1.6,0-2.3-0.101
	l29.6-29.6l0,0l7-7c0.1,0.8,0.1,1.6,0.1,2.3C70.8,37,70.8,37.5,70.8,38z"/>
<g>
	<g opacity="0.3">
		<polygon opacity="0.5" fill="#FFFFFF" enable-background="new    " points="9.9,124.3 9.9,124.699 9.9,125.599 		"/>
		<polygon opacity="0.5" fill="#FFFFFF" enable-background="new    " points="21.1,124.099 21.1,124.699 22.4,123.3 21.9,123.3 
			21.1,123.3 		"/>
		<path opacity="0.5" fill="#FFFFFF" enable-background="new    " d="M49.8,148.099l18.3-18.302c0.1-0.3,0.2-0.6,0.4-0.897L49,148.4
			C49.2,148.3,49.5,148.2,49.8,148.099z"/>
		<path opacity="0.5" fill="#FFFFFF" enable-background="new    " d="M43.5,150.099l26.6-26.602c0-0.2,0.1-0.398,0.1-0.601
			l-27.4,27.398C43.1,150.2,43.3,150.099,43.5,150.099z"/>
		<path opacity="0.5" fill="#FFFFFF" enable-background="new    " d="M63.7,125v0.5l7-7c0-0.2,0-0.398,0-0.5L63.7,125z"/>
		<path opacity="0.5" fill="#FFFFFF" enable-background="new    " d="M55.3,133.399l-17.4,17.398c0.2,0,0.4,0,0.5,0l17.5-17.5
			L55.3,133.399z"/>
		<path opacity="0.5" fill="#FFFFFF" enable-background="new    " d="M51.1,133.3l-17.4,17.4c0.2,0,0.3,0,0.5,0l17.2-17.2
			L51.1,133.3z"/>
		<path opacity="0.5" fill="#FFFFFF" enable-background="new    " d="M63.7,121.199l7-7c0-0.199,0-0.3,0-0.5l-7,7V121.199z"/>
		<path opacity="0.5" fill="#FFFFFF" enable-background="new    " d="M46.8,133.2l-17,17c0.1,0,0.3,0.1,0.4,0.1L47.1,133.4
			L46.8,133.2z"/>
		<path opacity="0.5" fill="#FFFFFF" enable-background="new    " d="M63.7,116.8l6.5-6.5c0-0.101-0.1-0.3-0.1-0.398l-6.4,6.398
			V116.8z"/>
		<path opacity="0.5" fill="#FFFFFF" enable-background="new    " d="M63.7,112.5l5.7-5.7c0-0.101-0.1-0.3-0.1-0.398l-5.6,5.6V112.5
			z"/>
		<path opacity="0.5" fill="#FFFFFF" enable-background="new    " d="M42.7,133l-16.3,16.3c0.1,0,0.3,0.102,0.4,0.102L43.4,132.8
			L42.7,133z"/>
		<path opacity="0.5" fill="#FFFFFF" enable-background="new    " d="M39.6,131.8l-16.4,16.4c0.1,0.1,0.2,0.1,0.4,0.199l16.3-16.3
			L39.6,131.8z"/>
		<path opacity="0.5" fill="#FFFFFF" enable-background="new    " d="M63.7,108.099l4.6-4.602c-0.1-0.101-0.1-0.2-0.2-0.398
			l-4.4,4.398V108.099z"/>
		<path opacity="0.5" fill="#FFFFFF" enable-background="new    " d="M36.9,130.099L20.3,146.7c0.1,0.1,0.2,0.1,0.3,0.2L37.2,130.3
			L36.9,130.099z"/>
		<path opacity="0.5" fill="#FFFFFF" enable-background="new    " d="M60.7,106.699l6.1-6.1c-0.1-0.102-0.1-0.2-0.2-0.302l-6.5,6.5
			h0.6V106.699z"/>
		<path opacity="0.5" fill="#FFFFFF" enable-background="new    " d="M34.2,128.5L17.6,145.1c0.1,0.101,0.2,0.101,0.3,0.198
			l16.6-16.6L34.2,128.5z"/>
		<path opacity="0.5" fill="#FFFFFF" enable-background="new    " d="M56.2,106.699h0.2l8.9-8.899c-0.1-0.101-0.1-0.198-0.2-0.3
			l-8.4,8.399C56.7,105.899,56.4,106.599,56.2,106.699z"/>
		<path opacity="0.5" fill="#FFFFFF" enable-background="new    " d="M30.9,127.3L15,143.2c0.1,0.1,0.2,0.199,0.3,0.199l15.6-15.602
			V127.3z"/>
		<path opacity="0.5" fill="#FFFFFF" enable-background="new    " d="M54.3,104.5l9.2-9.2c-0.1-0.101-0.2-0.198-0.2-0.3l-9.3,9.3
			L54.3,104.5z"/>
		<path opacity="0.5" fill="#FFFFFF" enable-background="new    " d="M28.9,125.099L12.8,141.2c0.1,0.1,0.2,0.2,0.3,0.3l16.2-16.2
			C29,125.199,29,125.099,28.9,125.099z"/>
		<path opacity="0.5" fill="#FFFFFF" enable-background="new    " d="M51.1,103.3L61.5,92.9c-0.1-0.102-0.2-0.2-0.3-0.3l-10.5,10.5
			L51.1,103.3z"/>
		<path opacity="0.5" fill="#FFFFFF" enable-background="new    " d="M26.2,123.399L10.6,139c0.1,0.102,0.2,0.2,0.2,0.3L26.7,123.4
			L26.2,123.399L26.2,123.399z"/>
		<path opacity="0.5" fill="#FFFFFF" enable-background="new    " d="M47.9,102.199L59.3,90.8C59.2,90.699,59.1,90.6,59,90.6
			l-11.5,11.5L47.9,102.199z"/>
		<path opacity="0.5" fill="#FFFFFF" enable-background="new    " d="M20.4,124.8L8.7,136.5c0.1,0.102,0.1,0.2,0.2,0.3l12-12H20.4z"
			/>
		<path opacity="0.5" fill="#FFFFFF" enable-background="new    " d="M44.6,101.099l12.2-12.2c-0.1-0.102-0.2-0.102-0.3-0.2
			l-12.2,12.2L44.6,101.099z"/>
		<path opacity="0.5" fill="#FFFFFF" enable-background="new    " d="M16.1,124.8L7,133.9c0.1,0.101,0.1,0.2,0.2,0.301l9.5-9.501
			L16.1,124.8z"/>
		<path opacity="0.5" fill="#FFFFFF" enable-background="new    " d="M41.4,100l12.8-12.801c-0.1-0.1-0.2-0.1-0.3-0.199L41,99.899
			C41.1,99.899,41.3,99.899,41.4,100z"/>
		<path opacity="0.5" fill="#FFFFFF" enable-background="new    " d="M11.8,124.699L5.5,131c0.1,0.102,0.1,0.2,0.2,0.3l6.7-6.698
			L11.8,124.699z"/>
		<path opacity="0.5" fill="#FFFFFF" enable-background="new    " d="M37.3,99.699l14.1-14.1c-0.1-0.102-0.2-0.102-0.3-0.2
			l-14.5,14.5C36.9,99.8,37.1,99.8,37.3,99.699z"/>
		<path opacity="0.5" fill="#FFFFFF" enable-background="new    " d="M6.5,125.599L4.1,128c0,0.102,0.1,0.3,0.1,0.399l2.8-2.8H6.5z"
			/>
		<path opacity="0.5" fill="#FFFFFF" enable-background="new    " d="M30.6,101.699L30.6,101.699h0.1c0.1,0,0.2-0.1,0.4-0.1
			l17.3-17.302c-0.1,0-0.3-0.101-0.4-0.101L30.4,101.8C30.4,101.8,30.5,101.699,30.6,101.699z"/>
		<path opacity="0.5" fill="#FFFFFF" enable-background="new    " d="M24.9,103.399l20.2-20.2c-0.1,0-0.3-0.1-0.4-0.1l-20.3,20.3
			H24.9z"/>
		<path opacity="0.5" fill="#FFFFFF" enable-background="new    " d="M21.3,102.699L41.5,82.5c-0.2,0-0.3,0-0.5-0.101l-19.7,19.7
			V102.699z"/>
		<path opacity="0.5" fill="#FFFFFF" enable-background="new    " d="M21.3,98.3L37.5,82.1c-0.2,0-0.3,0-0.5,0L20.8,98.3H21.3z"/>
		<path opacity="0.5" fill="#FFFFFF" enable-background="new    " d="M17,98.3L32.9,82.4c-0.2,0-0.4,0-0.6,0.101L16.4,98.399
			L17,98.3z"/>
		<path opacity="0.5" fill="#FFFFFF" enable-background="new    " d="M12.7,98.3L27.6,83.4c-0.2,0.101-0.5,0.101-0.7,0.2L12.2,98.3
			H12.7z"/>
		<path opacity="0.5" fill="#FFFFFF" enable-background="new    " d="M9.3,97.3l11.1-11.101c-0.4,0.2-0.8,0.4-1.2,0.7L8.8,97.3h0.1
			H9.3z"/>
		<path opacity="0.5" fill="#FFFFFF" enable-background="new    " d="M43.2,118.5c0-0.2-0.1-0.5-0.3-0.7
			c-0.2-0.198-0.4-0.3-0.6-0.398c-0.3-0.102-0.6-0.2-0.9-0.399c-0.3-0.101-0.6-0.198-0.8-0.398c-0.1-0.102-0.2-0.2-0.3-0.3
			c-0.1-0.103-0.2-0.103-0.2-0.302c0-0.198,0.1-0.3,0.1-0.398c0.1-0.102,0.1-0.301,0.1-0.399c0.2,0.199,0.3-0.398,0.3-0.5
			c0-0.2,0.3-0.601-0.1-0.601c0.2-0.602,0.2-1.301-0.2-1.7c-0.8-1.1-2.1-0.5-2.1-0.5c-0.1,0.101-0.2,0.101-0.3,0.2
			c0,0-0.1,0.101-0.1,0.199c-0.1,0-0.2,0-0.3,0.101c-0.1,0-0.1,0.101-0.2,0.101h0.1c-0.5,0.399-0.2,1.302-0.1,1.7
			c-0.3,0-0.2,0.399-0.1,0.602c0,0.1,0.2,0.698,0.3,0.6c0,0.101,0.1,0.2,0.1,0.4c0.1,0.1,0.1,0.198,0.1,0.398c0,0.102,0,0.3,0,0.399
			c-0.1,0.101-0.2,0.101-0.3,0.199c-0.2,0.199-0.5,0.301-0.7,0.399c-0.3,0.101-0.6,0.199-0.9,0.3c-0.5,0.2-0.9,0.399-1.1,0.899
			c-0.2,0.601-0.1,1.2-0.1,1.801c0-0.101,2.8,0,0,0c2.6,0,5.3,0,7.9,0c0.1,0,0.2,0,0.3,0c0.1,0,0.1,0,0.1-0.101c0-0.2,0-0.302,0-0.5
			C43.3,119.099,43.3,118.8,43.2,118.5z"/>
	</g>
	<g>
		<rect x="58.9" y="113.899" fill="#FFFFFF" width="0.3" height="0.3"/>
		<rect x="58" y="113.899" fill="#FFFFFF" width="0.3" height="0.3"/>
		<rect x="58.9" y="114.899" fill="#FFFFFF" width="0.3" height="0.3"/>
		<rect x="58" y="114.899" fill="#FFFFFF" width="0.3" height="0.3"/>
		<rect x="56.9" y="113.899" fill="#FFFFFF" width="0.3" height="0.3"/>
		<rect x="55.9" y="113.899" fill="#FFFFFF" width="0.3" height="0.3"/>
		<rect x="56.9" y="114.899" fill="#FFFFFF" width="0.3" height="0.3"/>
		<rect x="55.9" y="114.899" fill="#FFFFFF" width="0.3" height="0.3"/>
		<rect x="54.8" y="113.899" fill="#FFFFFF" width="0.3" height="0.3"/>
		<rect x="53.8" y="113.899" fill="#FFFFFF" width="0.3" height="0.3"/>
		<rect x="54.8" y="114.899" fill="#FFFFFF" width="0.3" height="0.3"/>
		<rect x="53.8" y="114.899" fill="#FFFFFF" width="0.3" height="0.3"/>
		<rect x="52.7" y="113.899" fill="#FFFFFF" width="0.3" height="0.3"/>
		<rect x="51.7" y="113.899" fill="#FFFFFF" width="0.3" height="0.3"/>
		<rect x="52.7" y="114.899" fill="#FFFFFF" width="0.3" height="0.3"/>
		<rect x="51.7" y="114.899" fill="#FFFFFF" width="0.3" height="0.3"/>
		<rect x="50.6" y="113.899" fill="#FFFFFF" width="0.3" height="0.3"/>
		<rect x="49.7" y="113.899" fill="#FFFFFF" width="0.3" height="0.3"/>
		<rect x="50.6" y="114.899" fill="#FFFFFF" width="0.3" height="0.3"/>
		<rect x="49.7" y="114.899" fill="#FFFFFF" width="0.3" height="0.3"/>
		<rect x="48.6" y="113.899" fill="#FFFFFF" width="0.3" height="0.3"/>
		<rect x="47.6" y="113.899" fill="#FFFFFF" width="0.3" height="0.3"/>
		<rect x="48.6" y="114.899" fill="#FFFFFF" width="0.3" height="0.3"/>
		<rect x="47.6" y="114.899" fill="#FFFFFF" width="0.3" height="0.3"/>
		<rect x="46.5" y="113.899" fill="#FFFFFF" width="0.3" height="0.3"/>
		<rect x="45.5" y="113.899" fill="#FFFFFF" width="0.3" height="0.3"/>
		<rect x="46.5" y="114.899" fill="#FFFFFF" width="0.3" height="0.3"/>
		<rect x="45.5" y="114.899" fill="#FFFFFF" width="0.3" height="0.3"/>
		<rect x="58.9" y="116.899" fill="#FFFFFF" width="0.3" height="0.3"/>
		<rect x="58" y="116.899" fill="#FFFFFF" width="0.3" height="0.3"/>
		<rect x="58.9" y="117.8" fill="#FFFFFF" width="0.3" height="0.302"/>
		<rect x="58" y="117.8" fill="#FFFFFF" width="0.3" height="0.302"/>
		<rect x="56.9" y="116.899" fill="#FFFFFF" width="0.3" height="0.3"/>
		<rect x="55.9" y="116.899" fill="#FFFFFF" width="0.3" height="0.3"/>
		<rect x="56.9" y="117.8" fill="#FFFFFF" width="0.3" height="0.302"/>
		<rect x="55.9" y="117.8" fill="#FFFFFF" width="0.3" height="0.302"/>
		<rect x="54.8" y="116.899" fill="#FFFFFF" width="0.3" height="0.3"/>
		<rect x="53.8" y="116.899" fill="#FFFFFF" width="0.3" height="0.3"/>
		<rect x="54.8" y="117.8" fill="#FFFFFF" width="0.3" height="0.302"/>
		<rect x="53.8" y="117.8" fill="#FFFFFF" width="0.3" height="0.302"/>
		<rect x="52.7" y="116.899" fill="#FFFFFF" width="0.3" height="0.3"/>
		<rect x="51.7" y="116.899" fill="#FFFFFF" width="0.3" height="0.3"/>
		<rect x="52.7" y="117.8" fill="#FFFFFF" width="0.3" height="0.302"/>
		<rect x="51.7" y="117.8" fill="#FFFFFF" width="0.3" height="0.302"/>
		<rect x="45.5" y="111.099" fill="#FFFFFF" width="13.8" height="1.1"/>
		<rect x="48.6" y="123" fill="#FFFFFF" width="10.7" height="0.699"/>
		<rect x="34.7" y="123" fill="#FFFFFF" width="8.9" height="0.699"/>
		<path fill="#FFFFFF" d="M43.6,110.8h-8.9v9.302h8.9V110.8z M43.2,119.699H35v-8.5h8.2V119.699z"/>
		<path fill="#FFFFFF" d="M70.1,102.3c-1.8-4.3-4.5-8.198-7.8-11.601c-3.4-3.399-7.3-6-11.6-7.8C46.2,81,41.4,80,36.5,80
			s-9.7,1-14.2,2.899c-4.3,1.8-8.3,4.5-11.6,7.8c-3.4,3.4-6,7.301-7.8,11.601C1,106.8,0,111.6,0,116.5c0,4.9,1,9.7,2.9,14.2
			c1.8,4.3,4.5,8.3,7.8,11.6c3.4,3.4,7.3,6,11.6,7.802C26.8,152,31.6,153,36.5,153s9.7-1,14.2-2.898c4.3-1.802,8.3-4.5,11.6-7.802
			c3.4-3.397,6-7.3,7.8-11.6c1.9-4.5,2.9-9.301,2.9-14.2C73,111.599,72,106.8,70.1,102.3z M7.6,98.099c-0.1,0.198-0.3,0.398-0.4,0.6
			C7.3,98.5,7.4,98.3,7.6,98.099z M2.2,116.5c0-6.5,1.8-12.601,5-17.801h1.6v0.9v5l-0.2,17.198l0,0l0,0v1.399v0.2v0.898l-5.5-0.101
			C2.5,121.699,2.2,119.099,2.2,116.5z M36.5,150.8C20.7,150.8,7.4,140.1,3.4,125.6h5.1h1.4v-0.9v-0.4v0.399v0.9l0,0v-0.9l0,0
			L21,124.8v-1.5l5.8,0.102c1.2,1.101,2.3,2,2.6,2.2l0,0l0,0l1.4,0.8v2H34l7.7,4.7l3.7-0.802l2.2,1.4l3-0.601l1.6,1l7.5-1.602
			c1.3-0.3,2.2-1.601,1.9-3c-0.1-0.398-0.3-0.7-0.5-1h2.5v-21.7h-7.5c1.3-1.101-0.4-1.698-0.4-1.698l-12.5-4.4
			c-0.2-0.1-0.4-0.1-0.5-0.199c-2.2-0.801-4.2-1.5-7.7-0.101c-1.6,0.5-4.1,1.2-4.4,1.3h-0.1l0,0c-1.3,0.301-2.5,0.9-3.5,1.7
			l-5.8-0.102v-5v-0.101l-11.1-0.1v-0.9H8.7H7.9c6.2-9.1,16.6-15.1,28.4-15.1c18.9,0,34.3,15.398,34.3,34.3
			C70.8,135.399,55.4,150.8,36.5,150.8z M10,121.8v1.602l0,0V121.8l0.2-17.198l0,0v-5l9.7,0.1v5l-0.1,7.7v1l-0.1,8.5l0,0v1.5
			L10,123.3V121.8L10,121.8z M49.3,131.5c1.2-0.2,2-1.3,2-2.398l3.1-0.802c0.7-0.1,1.4,0.302,1.5,1c0.1,0.7-0.3,1.4-1,1.5l-7,1.5
			l-0.7-0.397L49.3,131.5z M42.1,131.899l-5.7-3.5H40h4.1h1.6l2.8-0.602c0.7-0.1,1.4,0.302,1.5,1c0.1,0.7-0.3,1.4-1,1.5
			L42.1,131.899z M55.2,132.099c1.3-0.302,2.2-1.602,1.9-2.899l1.8-0.5c0.7-0.101,1.4,0.3,1.5,1s-0.3,1.399-1,1.5l-7,1.5l-0.1-0.101
			L55.2,132.099z M55.3,127.2c-0.4-0.101-0.8-0.101-1.1,0l0,0h-0.1h-3.6c-0.6-0.5-1.4-0.801-2.2-0.601l-2.7,0.601H32.1v-19.301h13.7
			c0.1,0,0.2,0.101,0.3,0.2c0.8,0.5,2.3,1.3,4.1,1.398c1.6,0.102,3.1-0.5,4.6-1.5h7.7v19.3h-7.2V127.2z M46.7,107.099
			c-0.2-0.102-0.4-0.2-0.6-0.302h-0.4h-0.5h-1.6H30.9v18.302v0.8v-0.8l-0.7-0.4c-0.9-0.8-2.1-1.699-3.1-2.699
			c-0.7-0.601-1.3-3.7-1.3-3.7c0,1.7,0,2.802,0.3,3.7h-5l0.2-17.2l6,0.102c1.1-0.899,2.3-1.602,3.7-2h0.1l0,0
			c0.5-0.102,4.1-1.2,4.5-1.3h0.1c3-1.302,4.7-0.7,6.9,0.1c0.2,0.103,0.3,0.103,0.5,0.2l12.3,4.3
			C51.3,109.699,48.1,107.899,46.7,107.099z"/>
		<circle fill="#FFFFFF" cx="15" cy="103.499" r="2.1"/>
	</g>
</g>
<g>
	<g>
		<path fill="#FFFFFF" d="M30.4,169c0.4,0.3,1,0.2,1.3-0.2c0.2-0.198,0.2-0.5,0.1-0.698c0-0.2-0.2-0.399-0.4-0.602
			c-0.2-0.101-0.5-0.2-0.7-0.2c-0.3,0-0.5,0.2-0.6,0.4C29.9,168.099,30,168.7,30.4,169z"/>
		
			<rect x="27.376" y="166.508" transform="matrix(0.5715 -0.8206 0.8206 0.5715 -124.9651 94.0019)" fill="#FFFFFF" width="0.3" height="0.3"/>
		
			<rect x="27.883" y="165.652" transform="matrix(-0.8172 -0.5763 0.5763 -0.8172 -44.6083 317.4564)" fill="#FFFFFF" width="0.3" height="0.3"/>
		
			<rect x="26.355" y="165.888" transform="matrix(0.8193 0.5734 -0.5734 0.8193 99.9875 14.8051)" fill="#FFFFFF" width="0.3" height="0.3"/>
		
			<rect x="25.556" y="165.217" transform="matrix(-0.8193 -0.5734 0.5734 -0.8193 -48.0464 315.5921)" fill="#FFFFFF" width="0.3" height="0.3"/>
		
			<rect x="27.006" y="165.032" transform="matrix(-0.8172 -0.5763 0.5763 -0.8172 -45.8443 315.8232)" fill="#FFFFFF" width="0.3" height="0.299"/>
		
			<rect x="26.1" y="164.378" transform="matrix(-0.8198 -0.5726 0.5726 -0.8198 -46.436 314.4457)" fill="#FFFFFF" width="0.3" height="0.3"/>
		
			<rect x="24.484" y="164.564" transform="matrix(-0.8172 -0.5763 0.5763 -0.8172 -50.1581 313.5207)" fill="#FFFFFF" width="0.3" height="0.3"/>
		<path fill="#FFFFFF" d="M25.5,164c-0.1,0-0.2,0.102-0.2,0.102l0.1,0.101L25.5,164z"/>
		<circle fill="#FFFFFF" cx="16.3" cy="214.7" r="0.5"/>
		<circle fill="#FFFFFF" cx="57.2" cy="214.7" r="0.5"/>
	</g>
	<g opacity="0.3">
		<polygon fill="#FFFFFF" points="26.7,183.899 26.7,183.599 26.4,183.899 		"/>
		<path fill="#FFFFFF" d="M16.8,171.2L4.9,183.099c-0.1,0.3-0.2,0.601-0.4,0.898l12.6-12.601L16.8,171.2z"/>
		<path fill="#FFFFFF" d="M29.5,162.899L29.5,162.899l0.2,0.301l0.4-0.4C29.9,162.8,29.7,162.8,29.5,162.899z"/>
		<path fill="#FFFFFF" d="M19.4,173L2.9,189.5c0,0.2-0.1,0.399-0.1,0.602l16.9-16.9L19.4,173z"/>
		<path fill="#FFFFFF" d="M34.5,162.2l-2.8,2.8l0.3,0.2l3.1-3.101C34.8,162.2,34.7,162.2,34.5,162.2z"/>
		<path fill="#FFFFFF" d="M21.9,174.8L2.2,194.5c0,0.2,0,0.399,0,0.5l20-20L21.9,174.8z"/>
		<path fill="#FFFFFF" d="M12.1,189l-9.8,9.8c0,0.2,0,0.302,0,0.5l9.8-9.8V189z"/>
		<path fill="#FFFFFF" d="M38.8,162.2l-4.6,4.6l0.3,0.2l4.8-4.7C39.1,162.3,39,162.2,38.8,162.2z"/>
		<polygon fill="#FFFFFF" points="17.7,183.899 25.1,176.399 24.8,176.2 17.2,183.899 		"/>
		<path fill="#FFFFFF" d="M12.1,193.3L2.8,202.6c0,0.101,0.1,0.3,0.1,0.398l9.3-9.3v-0.4L12.1,193.3L12.1,193.3z"/>
		<path fill="#FFFFFF" d="M42.7,162.7l-6.2,6.199c0.1,0.101,0.2,0.101,0.3,0.2l6.3-6.302C43,162.8,42.8,162.7,42.7,162.7z"/>
		<polygon fill="#FFFFFF" points="22.1,183.899 27.7,178.2 27.4,178 21.5,183.899 		"/>
		<path fill="#FFFFFF" d="M46.2,163.599l-7,7l0.3,0.198l7.1-7.1C46.5,163.599,46.3,163.599,46.2,163.599z"/>
		<path fill="#FFFFFF" d="M12.1,197.7l-8.5,8.5c0,0.1,0.1,0.3,0.1,0.399l8.4-8.399V197.7z"/>
		<path fill="#FFFFFF" d="M12.1,202l-7.4,7.399c0,0.101,0.1,0.2,0.2,0.398l7.2-7.198V202z"/>
		<path fill="#FFFFFF" d="M49.4,164.7l-7.9,7.899c0,0.101,0.1,0.3,0.1,0.398l8.2-8.2C49.7,164.8,49.5,164.7,49.4,164.7z"/>
		<path fill="#FFFFFF" d="M52.4,166.099L41.3,177.2h0.4h0.1l10.9-10.9C52.6,166.2,52.5,166.099,52.4,166.099z"/>
		<path fill="#FFFFFF" d="M12.1,206.399l-6,6c0.1,0.101,0.1,0.2,0.2,0.301l5.8-5.801V206.399z"/>
		<path fill="#FFFFFF" d="M55.1,167.7l-10.5,10.5c0.1,0.1,0.2,0.199,0.3,0.199l10.5-10.5C55.3,167.8,55.2,167.7,55.1,167.7z"/>
		<path fill="#FFFFFF" d="M12.1,210.7l-4.4,4.399c0.1,0.101,0.1,0.198,0.2,0.3l4.2-4.199V210.7z"/>
		<path fill="#FFFFFF" d="M12.1,215.5V215.1l-2.6,2.6c0.1,0.101,0.2,0.199,0.2,0.3l2.3-2.3C12.1,215.599,12.1,215.5,12.1,215.5z"/>
		<path fill="#FFFFFF" d="M57.7,169.5l-11.4,11.399c0,0.101,0,0.301,0.1,0.5L58,169.8C57.9,169.599,57.8,169.599,57.7,169.5z"/>
		<path fill="#FFFFFF" d="M13.4,218.099l-1.9,1.898c0.1,0.102,0.2,0.2,0.3,0.3l1.9-1.898C13.6,218.3,13.5,218.2,13.4,218.099z"/>
		<path fill="#FFFFFF" d="M60,171.5l-12.4,12.399h0.5l12.1-12.102C60.2,171.7,60.1,171.599,60,171.5z"/>
		<path fill="#FFFFFF" d="M17.1,218.8l-3.3,3.302c0.1,0.101,0.2,0.198,0.3,0.198l3.6-3.6h-0.6V218.8z"/>
		<path fill="#FFFFFF" d="M62.1,173.7L52,183.899h0.5L62.4,174C62.3,173.899,62.2,173.8,62.1,173.7z"/>
		<path fill="#FFFFFF" d="M64.1,176.099l-7.7,7.8h0.5l7.5-7.5C64.2,176.3,64.2,176.2,64.1,176.099z"/>
		<path fill="#FFFFFF" d="M21.4,218.8l-5.3,5.302c0.1,0.101,0.2,0.101,0.3,0.198l5.5-5.5H21.4z"/>
		<path fill="#FFFFFF" d="M65.8,178.7l-6,6c0.1,0.1,0.2,0.199,0.3,0.3L66,179.1C66,178.899,65.9,178.8,65.8,178.7z"/>
		<path fill="#FFFFFF" d="M25.8,218.8l-7,7c0.1,0.102,0.2,0.102,0.3,0.2l7.2-7.2H25.8z"/>
		<path fill="#FFFFFF" d="M30.1,218.8l-8.6,8.602c0.1,0.101,0.2,0.101,0.3,0.2l8.7-8.7h-0.4V218.8z"/>
		<path fill="#FFFFFF" d="M67.4,181.5l-6.4,6.399v0.5l6.6-6.602C67.5,181.8,67.4,181.7,67.4,181.5z"/>
		<path fill="#FFFFFF" d="M68.7,184.599l-7.7,7.698v0.5l7.9-7.897C68.8,184.8,68.7,184.7,68.7,184.599z"/>
		<path fill="#FFFFFF" d="M34.5,218.8l-9.9,9.9c0.1,0,0.3,0.1,0.4,0.1l10-10H34.5z"/>
		<path fill="#FFFFFF" d="M38.8,218.8l-10.9,10.9c0.1,0,0.3,0.1,0.4,0.1l11-11H38.8z"/>
		<path fill="#FFFFFF" d="M69.7,187.899l-8.8,8.801v0.5l8.9-8.9C69.8,188.2,69.8,188,69.7,187.899z"/>
		<path fill="#FFFFFF" d="M70.4,191.5l-9.5,9.5v0.5l9.6-9.601C70.5,191.8,70.5,191.7,70.4,191.5z"/>
		<path fill="#FFFFFF" d="M43.2,218.8L31.6,230.4c0.2,0,0.3,0,0.5,0.101l11.7-11.698h-0.6V218.8z"/>
		<path fill="#FFFFFF" d="M70.8,195.5l-9.8,9.8v0.5l9.8-9.8C70.8,195.899,70.8,195.7,70.8,195.5z"/>
		<path fill="#FFFFFF" d="M47.5,218.8l-12,12c0.2,0,0.3,0,0.5,0l12-12H47.5z"/>
		<path fill="#FFFFFF" d="M70.6,200l-9.7,9.7v0.5l9.6-9.601C70.6,200.399,70.6,200.2,70.6,200z"/>
		<path fill="#FFFFFF" d="M40.6,230.5l11.7-11.7h-0.5L40,230.6C40.3,230.599,40.4,230.599,40.6,230.5z"/>
		<path fill="#FFFFFF" d="M69.6,205.399l-8.7,8.7v0.5l8.5-8.5C69.5,205.899,69.6,205.599,69.6,205.399z"/>
		<path fill="#FFFFFF" d="M46.1,229.399l10.6-10.602h-0.5l-10.8,10.802C45.6,229.5,45.9,229.5,46.1,229.399z"/>
		<path fill="#FFFFFF" d="M53.8,226.099l12.3-12.302c0.2-0.397,0.4-0.8,0.7-1.198l-14.2,14.198C53,226.5,53.4,226.3,53.8,226.099z"
			/>
	</g>
	<g>
		<g id="XMLID_1_">
			<g>
				<rect x="57.7" y="208.7" fill="#FFFFFF" width="0.3" height="0.3"/>
				<rect x="57.7" y="205.599" fill="#FFFFFF" width="0.3" height="0.3"/>
				<rect x="57.7" y="203.5" fill="#FFFFFF" width="0.3" height="0.3"/>
				<rect x="57.7" y="200.399" fill="#FFFFFF" width="0.3" height="0.301"/>
				<rect x="57.7" y="195.3" fill="#FFFFFF" width="0.3" height="0.302"/>
				<rect x="57.7" y="194.3" fill="#FFFFFF" width="0.3" height="0.302"/>
				<rect x="57.7" y="193.2" fill="#FFFFFF" width="0.3" height="0.3"/>
				<rect x="57.7" y="192.2" fill="#FFFFFF" width="0.3" height="0.3"/>
				<path fill="#FFFFFF" d="M58,197.5c-0.2,0.102-0.2,0.102-0.3,0.2v-0.3H58V197.5z"/>
				<rect x="57.7" y="210.8" fill="#FFFFFF" width="0.3" height="0.302"/>
				<rect x="57.7" y="209.7" fill="#FFFFFF" width="0.3" height="0.3"/>
				<rect x="57.7" y="207.7" fill="#FFFFFF" width="0.3" height="0.3"/>
				<rect x="57.7" y="206.599" fill="#FFFFFF" width="0.3" height="0.3"/>
				<rect x="57.7" y="204.599" fill="#FFFFFF" width="0.3" height="0.3"/>
				<rect x="57.7" y="202.5" fill="#FFFFFF" width="0.3" height="0.3"/>
				<rect x="57.7" y="201.5" fill="#FFFFFF" width="0.3" height="0.3"/>
				<rect x="57.7" y="196.3" fill="#FFFFFF" width="0.3" height="0.302"/>
				<rect x="57.7" y="191.2" fill="#FFFFFF" width="0.3" height="0.3"/>
				<rect x="57.7" y="190.099" fill="#FFFFFF" width="0.3" height="0.3"/>
				<path fill="#FFFFFF" d="M58,189.5h-0.3v-0.101v-0.102c0-0.1,0-0.1,0-0.198H58c0,0.101,0,0.198,0,0.198S58,189.3,58,189.5
					L58,189.5z"/>
				<path fill="#FFFFFF" d="M57.7,188.099l-0.3,0.198c-0.1-0.1-0.1-0.198-0.2-0.3l0.3-0.2C57.6,187.899,57.7,188,57.7,188.099z"/>
				<rect x="56.7" y="208.7" fill="#FFFFFF" width="0.3" height="0.3"/>
				<rect x="56.7" y="205.599" fill="#FFFFFF" width="0.3" height="0.3"/>
				<rect x="56.7" y="203.5" fill="#FFFFFF" width="0.3" height="0.3"/>
				<rect x="56.7" y="200.399" fill="#FFFFFF" width="0.3" height="0.301"/>
				<rect x="56.7" y="195.3" fill="#FFFFFF" width="0.3" height="0.302"/>
				<rect x="56.7" y="194.3" fill="#FFFFFF" width="0.3" height="0.302"/>
				<rect x="56.7" y="193.2" fill="#FFFFFF" width="0.3" height="0.3"/>
				<rect x="56.7" y="192.2" fill="#FFFFFF" width="0.3" height="0.3"/>
				<rect x="56.7" y="210.8" fill="#FFFFFF" width="0.3" height="0.302"/>
				<rect x="56.7" y="209.7" fill="#FFFFFF" width="0.3" height="0.3"/>
				<rect x="56.7" y="207.7" fill="#FFFFFF" width="0.3" height="0.3"/>
				<rect x="56.7" y="206.599" fill="#FFFFFF" width="0.3" height="0.3"/>
				<rect x="56.7" y="204.599" fill="#FFFFFF" width="0.3" height="0.3"/>
				<rect x="56.7" y="202.5" fill="#FFFFFF" width="0.3" height="0.3"/>
				<rect x="56.7" y="201.5" fill="#FFFFFF" width="0.3" height="0.3"/>
				<rect x="56.7" y="197.399" fill="#FFFFFF" width="0.3" height="0.301"/>
				<rect x="56.7" y="196.3" fill="#FFFFFF" width="0.3" height="0.302"/>
				<rect x="56.7" y="191.2" fill="#FFFFFF" width="0.3" height="0.3"/>
				<rect x="56.7" y="190.099" fill="#FFFFFF" width="0.3" height="0.3"/>
				<path fill="#FFFFFF" d="M57,189.5h-0.3v-0.101v-0.102v-0.1H57v0.1V189.5L57,189.5z"/>
				<path fill="#FFFFFF" d="M56.4,188.599l0.3-0.2c0.1,0.101,0.1,0.2,0.1,0.2l-0.3,0.198C56.5,188.7,56.4,188.599,56.4,188.599z"/>
				<path fill="#FFFFFF" d="M56.3,187.2l0.1-0.301c0.1,0.101,0.3,0.101,0.4,0.2l-0.2,0.3C56.5,187.3,56.4,187.3,56.3,187.2z"/>
				<path fill="#FFFFFF" d="M56.1,188.3c-0.1,0-0.1-0.1-0.2-0.1l0.1-0.301c0.1,0,0.2,0.101,0.2,0.101L56.1,188.3z"/>
				<path fill="#FFFFFF" d="M55.1,187.7h0.2h0.1v0.3h-0.1h-0.2V187.7z"/>
				<path fill="#FFFFFF" d="M55.3,187h-0.2v-0.3h0.2c0.1,0,0.2,0,0.2,0v0.3C55.4,187,55.4,187,55.3,187z"/>
				<rect x="54.1" y="187.7" fill="#FFFFFF" width="0.3" height="0.3"/>
				<rect x="54.1" y="186.7" fill="#FFFFFF" width="0.3" height="0.3"/>
				<rect x="53.1" y="187.7" fill="#FFFFFF" width="0.3" height="0.3"/>
				<rect x="53.1" y="186.7" fill="#FFFFFF" width="0.3" height="0.3"/>
				<rect x="52.7" y="215.899" fill="#FFFFFF" width="0.3" height="0.301"/>
				<rect x="52.7" y="214.8" fill="#FFFFFF" width="0.3" height="0.302"/>
				<rect x="52.1" y="187.7" fill="#FFFFFF" width="0.3" height="0.3"/>
				<rect x="52.1" y="186.7" fill="#FFFFFF" width="0.3" height="0.3"/>
				<rect x="51.6" y="215.899" fill="#FFFFFF" width="0.3" height="0.301"/>
				<rect x="51.6" y="214.8" fill="#FFFFFF" width="0.3" height="0.302"/>
				<rect x="51" y="187.7" fill="#FFFFFF" width="0.3" height="0.3"/>
				<rect x="51" y="186.7" fill="#FFFFFF" width="0.3" height="0.3"/>
				<rect x="50.6" y="215.899" fill="#FFFFFF" width="0.3" height="0.301"/>
				<rect x="50.6" y="214.8" fill="#FFFFFF" width="0.3" height="0.302"/>
				<rect x="50" y="187.7" fill="#FFFFFF" width="0.3" height="0.3"/>
				<rect x="50" y="186.7" fill="#FFFFFF" width="0.3" height="0.3"/>
				<rect x="49.6" y="215.899" fill="#FFFFFF" width="0.3" height="0.301"/>
				<rect x="49.6" y="214.8" fill="#FFFFFF" width="0.3" height="0.302"/>
				<rect x="49" y="187.7" fill="#FFFFFF" width="0.3" height="0.3"/>
				<rect x="49" y="186.7" fill="#FFFFFF" width="0.3" height="0.3"/>
				<rect x="48.5" y="215.899" fill="#FFFFFF" width="0.3" height="0.301"/>
				<rect x="48.5" y="214.8" fill="#FFFFFF" width="0.3" height="0.302"/>
				<rect x="47.9" y="187.7" fill="#FFFFFF" width="0.3" height="0.3"/>
				<rect x="47.9" y="186.7" fill="#FFFFFF" width="0.3" height="0.3"/>
				<rect x="47.5" y="215.899" fill="#FFFFFF" width="0.3" height="0.301"/>
				<rect x="47.5" y="214.8" fill="#FFFFFF" width="0.3" height="0.302"/>
				<rect x="46.9" y="187.7" fill="#FFFFFF" width="0.3" height="0.3"/>
				<rect x="46.9" y="186.7" fill="#FFFFFF" width="0.3" height="0.3"/>
				<rect x="46.5" y="215.899" fill="#FFFFFF" width="0.3" height="0.301"/>
				<rect x="46.5" y="214.8" fill="#FFFFFF" width="0.3" height="0.302"/>
				<rect x="45.9" y="187.7" fill="#FFFFFF" width="0.3" height="0.3"/>
				<rect x="45.9" y="186.7" fill="#FFFFFF" width="0.3" height="0.3"/>
				<rect x="45.4" y="215.899" fill="#FFFFFF" width="0.3" height="0.301"/>
				<rect x="45.4" y="214.8" fill="#FFFFFF" width="0.3" height="0.302"/>
				<rect x="44.8" y="187.7" fill="#FFFFFF" width="0.3" height="0.3"/>
				<rect x="44.8" y="186.7" fill="#FFFFFF" width="0.3" height="0.3"/>
				<rect x="44.4" y="215.899" fill="#FFFFFF" width="0.3" height="0.301"/>
				<rect x="44.4" y="214.8" fill="#FFFFFF" width="0.3" height="0.302"/>
				<rect x="43.8" y="187.7" fill="#FFFFFF" width="0.3" height="0.3"/>
				<rect x="43.8" y="186.7" fill="#FFFFFF" width="0.3" height="0.3"/>
				<rect x="43.4" y="215.899" fill="#FFFFFF" width="0.3" height="0.301"/>
				<rect x="43.4" y="214.8" fill="#FFFFFF" width="0.3" height="0.302"/>
				<rect x="42.8" y="187.7" fill="#FFFFFF" width="0.3" height="0.3"/>
				<rect x="42.8" y="186.7" fill="#FFFFFF" width="0.3" height="0.3"/>
				<rect x="42.3" y="215.899" fill="#FFFFFF" width="0.3" height="0.301"/>
				<rect x="42.3" y="214.8" fill="#FFFFFF" width="0.3" height="0.302"/>
				<rect x="41.8" y="187.7" fill="#FFFFFF" width="0.3" height="0.3"/>
				<rect x="41.8" y="186.7" fill="#FFFFFF" width="0.3" height="0.3"/>
				<rect x="41.3" y="215.899" fill="#FFFFFF" width="0.3" height="0.301"/>
				<rect x="41.3" y="214.8" fill="#FFFFFF" width="0.3" height="0.302"/>
				<rect x="40.7" y="187.7" fill="#FFFFFF" width="0.3" height="0.3"/>
				<rect x="40.7" y="186.7" fill="#FFFFFF" width="0.3" height="0.3"/>
				<rect x="40.3" y="215.899" fill="#FFFFFF" width="0.3" height="0.301"/>
				<rect x="40.3" y="214.8" fill="#FFFFFF" width="0.3" height="0.302"/>
				<rect x="39.7" y="187.7" fill="#FFFFFF" width="0.3" height="0.3"/>
				<rect x="39.7" y="186.7" fill="#FFFFFF" width="0.3" height="0.3"/>
				<rect x="39.2" y="215.899" fill="#FFFFFF" width="0.3" height="0.301"/>
				<rect x="39.2" y="214.8" fill="#FFFFFF" width="0.3" height="0.302"/>
				<rect x="38.7" y="187.7" fill="#FFFFFF" width="0.3" height="0.3"/>
				<rect x="38.7" y="186.7" fill="#FFFFFF" width="0.3" height="0.3"/>
				<rect x="38.2" y="215.899" fill="#FFFFFF" width="0.3" height="0.301"/>
				<rect x="38.2" y="214.8" fill="#FFFFFF" width="0.3" height="0.302"/>
				<rect x="37.6" y="187.7" fill="#FFFFFF" width="0.3" height="0.3"/>
				<rect x="37.6" y="186.7" fill="#FFFFFF" width="0.3" height="0.3"/>
				<rect x="37.2" y="215.899" fill="#FFFFFF" width="0.3" height="0.301"/>
				<rect x="37.2" y="214.8" fill="#FFFFFF" width="0.3" height="0.302"/>
				<rect x="36.6" y="187.7" fill="#FFFFFF" width="0.3" height="0.3"/>
				<rect x="36.6" y="186.7" fill="#FFFFFF" width="0.3" height="0.3"/>
				<rect x="36.2" y="215.899" fill="#FFFFFF" width="0.3" height="0.301"/>
				<rect x="36.2" y="214.8" fill="#FFFFFF" width="0.3" height="0.302"/>
				<rect x="35.6" y="187.7" fill="#FFFFFF" width="0.3" height="0.3"/>
				<rect x="35.6" y="186.7" fill="#FFFFFF" width="0.3" height="0.3"/>
				<rect x="35.1" y="215.899" fill="#FFFFFF" width="0.3" height="0.301"/>
				<rect x="35.1" y="214.8" fill="#FFFFFF" width="0.3" height="0.302"/>
				<rect x="34.5" y="187.7" fill="#FFFFFF" width="0.3" height="0.3"/>
				<rect x="34.5" y="186.7" fill="#FFFFFF" width="0.3" height="0.3"/>
				<rect x="34.1" y="215.899" fill="#FFFFFF" width="0.3" height="0.301"/>
				<rect x="34.1" y="214.8" fill="#FFFFFF" width="0.3" height="0.302"/>
				<rect x="33.5" y="187.7" fill="#FFFFFF" width="0.3" height="0.3"/>
				<rect x="33.5" y="186.7" fill="#FFFFFF" width="0.3" height="0.3"/>
				<rect x="33.1" y="215.899" fill="#FFFFFF" width="0.3" height="0.301"/>
				<rect x="33.1" y="214.8" fill="#FFFFFF" width="0.3" height="0.302"/>
				<rect x="32.5" y="187.7" fill="#FFFFFF" width="0.3" height="0.3"/>
				<rect x="32.5" y="186.7" fill="#FFFFFF" width="0.3" height="0.3"/>
				<rect x="32" y="215.899" fill="#FFFFFF" width="0.3" height="0.301"/>
				<rect x="32" y="214.8" fill="#FFFFFF" width="0.3" height="0.302"/>
				<rect x="31.4" y="187.7" fill="#FFFFFF" width="0.3" height="0.3"/>
				<rect x="31.4" y="186.7" fill="#FFFFFF" width="0.3" height="0.3"/>
				<rect x="31" y="215.899" fill="#FFFFFF" width="0.3" height="0.301"/>
				<rect x="31" y="214.8" fill="#FFFFFF" width="0.3" height="0.302"/>
				<rect x="30.4" y="187.7" fill="#FFFFFF" width="0.3" height="0.3"/>
				<rect x="30.4" y="186.7" fill="#FFFFFF" width="0.3" height="0.3"/>
				<rect x="30" y="215.899" fill="#FFFFFF" width="0.3" height="0.301"/>
				<rect x="30" y="214.8" fill="#FFFFFF" width="0.3" height="0.302"/>
				<rect x="29.4" y="187.7" fill="#FFFFFF" width="0.3" height="0.3"/>
				<rect x="29.4" y="186.7" fill="#FFFFFF" width="0.3" height="0.3"/>
				<rect x="28.9" y="215.899" fill="#FFFFFF" width="0.3" height="0.301"/>
				<rect x="28.9" y="214.8" fill="#FFFFFF" width="0.3" height="0.302"/>
				<rect x="28.3" y="187.7" fill="#FFFFFF" width="0.3" height="0.3"/>
				<rect x="28.3" y="186.7" fill="#FFFFFF" width="0.3" height="0.3"/>
				<rect x="27.9" y="215.899" fill="#FFFFFF" width="0.3" height="0.301"/>
				<rect x="27.9" y="214.8" fill="#FFFFFF" width="0.3" height="0.302"/>
				<rect x="27.3" y="187.7" fill="#FFFFFF" width="0.3" height="0.3"/>
				<rect x="27.3" y="186.7" fill="#FFFFFF" width="0.3" height="0.3"/>
				<rect x="26.9" y="215.899" fill="#FFFFFF" width="0.3" height="0.301"/>
				<rect x="26.9" y="214.8" fill="#FFFFFF" width="0.3" height="0.302"/>
				<rect x="26.3" y="187.7" fill="#FFFFFF" width="0.3" height="0.3"/>
				<rect x="26.3" y="186.7" fill="#FFFFFF" width="0.3" height="0.3"/>
				<rect x="25.9" y="215.899" fill="#FFFFFF" width="0.3" height="0.301"/>
				<rect x="25.9" y="214.8" fill="#FFFFFF" width="0.3" height="0.302"/>
				<rect x="25.3" y="187.7" fill="#FFFFFF" width="0.3" height="0.3"/>
				<rect x="25.3" y="186.7" fill="#FFFFFF" width="0.3" height="0.3"/>
				<rect x="24.8" y="215.899" fill="#FFFFFF" width="0.3" height="0.301"/>
				<rect x="24.8" y="214.8" fill="#FFFFFF" width="0.3" height="0.302"/>
				<rect x="24.2" y="187.7" fill="#FFFFFF" width="0.3" height="0.3"/>
				<rect x="24.2" y="186.7" fill="#FFFFFF" width="0.3" height="0.3"/>
				<rect x="23.8" y="215.899" fill="#FFFFFF" width="0.3" height="0.301"/>
				<rect x="23.8" y="214.8" fill="#FFFFFF" width="0.3" height="0.302"/>
				<rect x="23.2" y="187.7" fill="#FFFFFF" width="0.3" height="0.3"/>
				<rect x="23.2" y="186.7" fill="#FFFFFF" width="0.3" height="0.3"/>
				<rect x="22.8" y="215.899" fill="#FFFFFF" width="0.3" height="0.301"/>
				<rect x="22.8" y="214.8" fill="#FFFFFF" width="0.3" height="0.302"/>
				<rect x="22.2" y="187.7" fill="#FFFFFF" width="0.3" height="0.3"/>
				<rect x="22.2" y="186.7" fill="#FFFFFF" width="0.3" height="0.3"/>
				<rect x="21.7" y="215.899" fill="#FFFFFF" width="0.3" height="0.301"/>
				<rect x="21.7" y="214.8" fill="#FFFFFF" width="0.3" height="0.302"/>
				<rect x="21.1" y="187.7" fill="#FFFFFF" width="0.3" height="0.3"/>
				<rect x="21.1" y="186.7" fill="#FFFFFF" width="0.3" height="0.3"/>
				<rect x="20.7" y="215.899" fill="#FFFFFF" width="0.3" height="0.301"/>
				<rect x="20.7" y="214.8" fill="#FFFFFF" width="0.3" height="0.302"/>
				<rect x="20.1" y="187.7" fill="#FFFFFF" width="0.3" height="0.3"/>
				<rect x="20.1" y="186.7" fill="#FFFFFF" width="0.3" height="0.3"/>
				<rect x="19.7" y="214.8" fill="#FFFFFF" width="0.3" height="0.302"/>
				<rect x="19.1" y="187.7" fill="#FFFFFF" width="0.3" height="0.3"/>
				<rect x="19.1" y="186.7" fill="#FFFFFF" width="0.3" height="0.3"/>
				<rect x="18" y="187.7" fill="#FFFFFF" width="0.3" height="0.3"/>
				<rect x="18" y="186.7" fill="#FFFFFF" width="0.3" height="0.3"/>
				<path fill="#FFFFFF" d="M17.5,188.099c-0.1,0-0.1,0-0.2,0.101l-0.1-0.3c0.1,0,0.2-0.103,0.3-0.103V188.099z"/>
				<path fill="#FFFFFF" d="M17.3,187.099c-0.1,0-0.3,0.101-0.4,0.101l-0.1-0.3c0.1-0.103,0.3-0.103,0.4-0.103L17.3,187.099z"/>
				<path fill="#FFFFFF" d="M16.9,188.399c-0.1,0-0.1,0.101-0.2,0.2l-0.3-0.2c0.1-0.102,0.1-0.102,0.2-0.199L16.9,188.399z"/>
				<rect x="16.1" y="210.3" fill="#FFFFFF" width="0.3" height="0.302"/>
				<rect x="16.1" y="208.3" fill="#FFFFFF" width="0.3" height="0.302"/>
				<rect x="16.1" y="203.099" fill="#FFFFFF" width="0.3" height="0.3"/>
				<rect x="16.1" y="201" fill="#FFFFFF" width="0.3" height="0.3"/>
				<rect x="16.1" y="200" fill="#FFFFFF" width="0.3" height="0.3"/>
				<rect x="16.1" y="189.7" fill="#FFFFFF" width="0.3" height="0.3"/>
				<path fill="#FFFFFF" d="M16.5,189.099l-0.3-0.102c0-0.101,0-0.2,0.1-0.3l0.3,0.1C16.5,189,16.5,189.099,16.5,189.099z"/>
				<rect x="16.1" y="209.3" fill="#FFFFFF" width="0.3" height="0.302"/>
				<rect x="16.1" y="207.2" fill="#FFFFFF" width="0.3" height="0.3"/>
				<rect x="16.1" y="206.2" fill="#FFFFFF" width="0.3" height="0.3"/>
				<rect x="16.1" y="205.2" fill="#FFFFFF" width="0.3" height="0.3"/>
				<rect x="16.1" y="204.099" fill="#FFFFFF" width="0.3" height="0.3"/>
				<rect x="16.1" y="202.099" fill="#FFFFFF" width="0.3" height="0.3"/>
				<rect x="16.1" y="196.899" fill="#FFFFFF" width="0.3" height="0.301"/>
				<rect x="16.1" y="195.899" fill="#FFFFFF" width="0.3" height="0.301"/>
				<rect x="16.1" y="194.899" fill="#FFFFFF" width="0.3" height="0.301"/>
				<rect x="16.1" y="193.8" fill="#FFFFFF" width="0.3" height="0.302"/>
				<rect x="16.1" y="192.8" fill="#FFFFFF" width="0.3" height="0.302"/>
				<rect x="16.1" y="191.8" fill="#FFFFFF" width="0.3" height="0.302"/>
				<rect x="16.1" y="190.7" fill="#FFFFFF" width="0.3" height="0.3"/>
				<path fill="#FFFFFF" d="M16.2,187.599c-0.1,0.101-0.2,0.198-0.3,0.3l-0.3-0.199c0.1-0.101,0.2-0.2,0.3-0.301L16.2,187.599z"/>
				<rect x="15.1" y="210.3" fill="#FFFFFF" width="0.3" height="0.302"/>
				<rect x="15.1" y="208.3" fill="#FFFFFF" width="0.3" height="0.302"/>
				<rect x="15.1" y="203.099" fill="#FFFFFF" width="0.3" height="0.3"/>
				<rect x="15.1" y="201" fill="#FFFFFF" width="0.3" height="0.3"/>
				<rect x="15.1" y="200" fill="#FFFFFF" width="0.3" height="0.3"/>
				<rect x="15.1" y="189.7" fill="#FFFFFF" width="0.3" height="0.3"/>
				<path fill="#FFFFFF" d="M15.5,188.599c0,0.101-0.1,0.3-0.1,0.398l-0.3-0.101c0-0.102,0.1-0.3,0.1-0.399L15.5,188.599z"/>
				<rect x="15.1" y="209.3" fill="#FFFFFF" width="0.3" height="0.302"/>
				<rect x="15.1" y="207.2" fill="#FFFFFF" width="0.3" height="0.3"/>
				<rect x="15.1" y="206.2" fill="#FFFFFF" width="0.3" height="0.3"/>
				<rect x="15.1" y="205.2" fill="#FFFFFF" width="0.3" height="0.3"/>
				<rect x="15.1" y="204.099" fill="#FFFFFF" width="0.3" height="0.3"/>
				<rect x="15.1" y="202.099" fill="#FFFFFF" width="0.3" height="0.3"/>
				<rect x="15.1" y="196.899" fill="#FFFFFF" width="0.3" height="0.301"/>
				<rect x="15.1" y="195.899" fill="#FFFFFF" width="0.3" height="0.301"/>
				<rect x="15.1" y="194.899" fill="#FFFFFF" width="0.3" height="0.301"/>
				<rect x="15.1" y="193.8" fill="#FFFFFF" width="0.3" height="0.302"/>
				<rect x="15.1" y="192.8" fill="#FFFFFF" width="0.3" height="0.302"/>
				<rect x="15.1" y="191.8" fill="#FFFFFF" width="0.3" height="0.302"/>
				<rect x="15.1" y="190.7" fill="#FFFFFF" width="0.3" height="0.3"/>
			</g>
		</g>
	</g>
	<path fill="#FFFFFF" d="M70.1,182.3c-1.8-4.3-4.5-8.198-7.8-11.6c-3.4-3.4-7.3-6-11.6-7.801C46.2,161,41.4,160,36.5,160
		s-9.7,1-14.2,2.899c-4.3,1.801-8.3,4.5-11.6,7.801c-3.4,3.399-6,7.3-7.8,11.6C1,186.8,0,191.6,0,196.5c0,4.9,1,9.7,2.9,14.2
		c1.8,4.3,4.5,8.3,7.8,11.6c3.4,3.4,7.3,6,11.6,7.802C26.8,232,31.6,233,36.5,233s9.7-1,14.2-2.898c4.3-1.802,8.3-4.5,11.6-7.802
		c3.4-3.398,6-7.3,7.8-11.6c1.9-4.5,2.9-9.3,2.9-14.2C73,191.5,72,186.8,70.1,182.3z M27.8,163.3l2.1,1.4l-0.2,0.3l-0.7,1l-4.8,7
		l-0.7,1l-0.2,0.3l-7.5-5.198C19.3,166.399,23.4,164.399,27.8,163.3z M38.8,174.7l2.1,5.8c0,0,0,0.102,0.1,0.102l0.3,0.898
		l0.2,0.399c0.2,0.398-0.1,0.898-0.5,1.101s-0.9-0.101-1.1-0.5l-0.4-1l-0.4-1.2l-0.8-2.1l-0.2-0.601l0,0l-0.9,0.3l0.1,0.2l0.8,2.101
		l0.4,1.199l0.2,0.398c0.2,0.4-0.1,0.9-0.5,1.102c-0.4,0.2-0.9-0.102-1.1-0.5l-0.4-1l-0.4-1.199l-0.6-1.7l-0.9,0.3l0.5,1.4
		l0.4,1.199l0.2,0.5c0.2,0.398-0.1,0.898-0.5,1.101s-0.9-0.101-1.1-0.5l-0.4-1l-0.4-1.2l-0.3-0.8l-0.9,0.3l0.2,0.5l0.4,1.2l0.2,0.5
		c0.2,0.399-0.1,0.899-0.5,1.102c-0.4,0.198-0.9-0.102-1.1-0.5V182.5l-0.7-1.8l-0.7-1.801L30,178.7l-0.4-1.101l-0.3-0.802l0.8-1.198
		l3.5-5.102l0.8-1.2c0.1,0,0.3,0,0.4,0c0.1,0,0.2,0,0.3,0.102c0.1,0,0.1,0,0.2,0.101c0.1,0,0.1,0,0.2,0s0.1,0,0.2,0.102
		c0.2,0.101,0.3,0.101,0.5,0.198l0,0l0,0c0.2,0.102,0.3,0.2,0.5,0.302l3.3,2c0.8,0.5,0.9,1,0.7,2.101l-0.2,1l-0.3-0.898
		c-0.1-0.302-0.4-0.5-0.7-0.302C38.8,174.099,38.7,174.399,38.8,174.7z M59.6,211.3c-2.5,0-4.7,1.5-5.6,3.7l-0.1,0.2
		c-0.2,0.699-0.4,1.399-0.4,2.1c0,0.102,0,0.2,0,0.4H19.4c0-0.101,0-0.2,0-0.4c0-0.3,0-0.6-0.1-0.898v-0.2
		c-0.4-2-1.7-3.601-3.5-4.399l-0.2-0.101c-0.2-0.101-0.5-0.2-0.7-0.2h-0.1c-0.5-0.101-1-0.199-1.5-0.199c-0.1,0-0.1,0-0.2,0V199.1
		c0.7,0.5,1.6,0.8,2.6,0.8h6.7v1.2V204h6.2V201.1v-1.2h1.9h10.7h3v1.2V204h6.2V201.1v-1.2h6.7c1,0,1.9-0.3,2.6-0.8V211.3
		C59.7,211.3,59.7,211.3,59.6,211.3z M59.8,212v3.5c0,1.2-1,2.2-2.2,2.2h-3.3c0-0.101,0-0.2,0-0.4c0-2.898,2.4-5.3,5.3-5.3
		C59.7,212,59.7,212,59.8,212z M18.7,217.3c0,0.102,0,0.2,0,0.4h-3.3c-1.2,0-2.2-1-2.2-2.2V212c0.1,0,0.1,0,0.2,0
		C16.3,212,18.7,214.399,18.7,217.3z M25.6,201.3c0.8,0,1.6,0.602,1.9,1.9h-3.9C24,201.899,24.8,201.3,25.6,201.3z M24.6,201.099v-3
		c0.3,0.198,0.7,0.3,1.1,0.3c0.3,0,0.6-0.102,0.9-0.199v2.899c-0.3-0.2-0.6-0.2-0.9-0.2C25.3,200.8,24.9,200.899,24.6,201.099z
		 M27,201.3V197.9c0.4-0.3,0.7-0.699,0.9-1.3v0.601v1.399v0.101v1.399v1.5v1.198C27.7,202.099,27.4,201.599,27,201.3z M25.6,197.899
		c-0.8,0-1.7-0.699-2-2.102h4C27.4,197.2,26.5,197.899,25.6,197.899z M24.2,197.8v3.7c-0.3,0.3-0.6,0.8-0.8,1.399V201.5v-1.601
		V198.5v-0.101V197v-0.8C23.5,197,23.8,197.399,24.2,197.8z M47.4,201.3c0.8,0,1.6,0.602,1.9,1.9h-3.9
		C45.7,201.899,46.6,201.3,47.4,201.3z M46.4,201V198.1c0.3,0.198,0.6,0.198,0.9,0.198c0.4,0,0.7-0.1,1.1-0.3v3
		c-0.3-0.2-0.7-0.3-1.1-0.3C47.1,200.8,46.7,200.899,46.4,201z M48.9,201.399V197.7c0.3-0.301,0.6-0.801,0.8-1.4v0.802v1.398v0.102
		V200v1.5v1.399C49.5,202.2,49.2,201.8,48.9,201.399z M47.4,197.899c-0.8,0-1.7-0.699-2-2.102h4
		C49.1,197.2,48.2,197.899,47.4,197.899z M46,197.899v3.5c-0.4,0.301-0.7,0.7-0.9,1.301v-1.2v-1.601V198.5v-0.101V197v-0.601
		C45.3,197.099,45.6,197.599,46,197.899z M58.4,197.3l-0.3,0.2c-0.3,0.102-0.6,0.102-0.9,0.102h-6.7v-1.2V195h-6.2v1.399v1.2H28.7
		v-1.2V195h-6.2v1.399v1.2h-6.7c-1.3,0-2.4-1-2.6-2.399v-8.101c0-1.2,1-2.2,2.2-2.2H26h1.8h2.1H43h2.1h1.6h10.8c1.2,0,2.2,1,2.2,2.2
		v8.101C59.7,196.2,59.2,196.899,58.4,197.3z M27.8,183.899v-2.102c0-0.898,0.3-1.698,0.9-2.3l1.2,3.3v1.102H27.8z M33.3,183.899
		l0.1-0.102l0.1,0.102H33.3z M36.1,183.899c0.1,0,0.1-0.102,0.2-0.199c0.1,0.1,0.1,0.1,0.2,0.199H36.1z M39,183.899
		c0.1-0.102,0.1-0.102,0.2-0.199c0.1,0.1,0.1,0.1,0.2,0.199H39z M41.9,183.899C41.9,183.899,41.9,183.8,41.9,183.899L41.9,183.899
		L41.9,183.899z M45.2,183.899h-2.1v-2.102c0-0.6-0.4-1.1-1-1.3l-0.5-1.3l-0.3-0.9h0.4c1.9,0,3.4,1.5,3.4,3.4v2.199L45.2,183.899
		L45.2,183.899z M32.7,169.5L32.7,169.5l-1,1.5l-2.3,3.3l-0.8,1.2l-0.9,1.2l-3.3-2.2l0.7-1l4.8-7l0.7-1l3.3,2.2L32.7,169.5z
		 M15.8,169.099c-0.1,0.101-0.3,0.198-0.4,0.3C15.5,169.399,15.6,169.2,15.8,169.099z M15.2,169.599c-0.1,0.101-0.2,0.198-0.3,0.3
		C15,169.7,15.1,169.7,15.2,169.599z M36.5,230.8c-18.9,0-34.3-15.397-34.3-34.3c0-10.7,4.9-20.3,12.7-26.6l8.8,6l0.2-0.301
		l4.2,2.898l0.2-0.398l0.1,0.198c-1,0.802-1.6,2.103-1.6,3.5v2.103h-0.6H15.4c-1.8,0-3.3,1.5-3.3,3.3v6v2.101v20.1
		c0,1.8,1.5,3.3,3.3,3.3h42.2c1.8,0,3.3-1.5,3.3-3.3V195.3v-2.1v-6c0-1.8-1.5-3.3-3.3-3.3H46.8h-0.5V181.8c0-2.5-2.1-4.6-4.6-4.6
		h-0.6l0.5-2.7c0.2-1.2,0.2-2.398-1.3-3.2l-3.2-2c-0.2-0.1-0.4-0.198-0.6-0.3l-0.2-0.1h-0.1c-0.4-0.2-0.9-0.301-1.3-0.4l0.5-0.7
		l-4.2-2.897l0.2-0.301l-2.2-1.5c2.3-0.5,4.7-0.801,7.2-0.801c18.9,0,34.3,15.399,34.3,34.301C70.8,215.399,55.4,230.8,36.5,230.8z"
		/>
</g>
</svg>
