<?xml version="1.0" encoding="utf-8"?>
<!-- Generator: Adobe Illustrator 17.0.0, SVG Export Plug-In . SVG Version: 6.00 Build 0)  -->
<!DOCTYPE svg PUBLIC "-//W3C//DTD SVG 1.1//EN" "http://www.w3.org/Graphics/SVG/1.1/DTD/svg11.dtd">
<svg version="1.1" id="Слой_1" xmlns="http://www.w3.org/2000/svg" xmlns:xlink="http://www.w3.org/1999/xlink" x="0px" y="0px"
	 width="622.2px" height="152px" viewBox="0 0 622.2 152" enable-background="new 0 0 622.2 152" xml:space="preserve">
<path fill="#F6FAEE" d="M431.1,45v38.7c0,2.8-2.3,5.1-5.1,5.1h-31.7v-2.1H426c1.7,0,3-1.4,3-3V45c0-1.7-1.4-3-3-3h-39.4h-32.2
	c-1.7,0-3,1.4-3,3v38.7c0,1.7,1.4,3,3,3h32.1v2.1h-32.1c-2.8,0-5.1-2.3-5.1-5.1V45c0-2.8,2.3-5.1,5.1-5.1H426
	C428.8,39.9,431.1,42.2,431.1,45z"/>
<path fill="#F6FAEE" d="M410.3,74.5v0.3l-0.2,0.3c-4.6,5.6-11.2,8.5-18,8.5c-5.2,0-10.4-1.7-14.7-5.3c-3.9-3.2-6.3-7.7-6.8-12.7
	c-0.5-5,1-9.9,4.2-13.8c2.6-3.1,6.2-5.1,10.3-5.5c0.5,0,1-0.1,1.5-0.1c3.5,0,6.9,1.2,9.7,3.5c2.5,2.1,4.1,5.1,4.5,8.4
	c0.2,1.8,0,3.5-0.6,5.1C405.8,64,410.3,68.7,410.3,74.5z M408.2,74.1c-0.2-4.7-4.1-8.5-9-8.8c-0.4,0.7-0.8,1.3-1.3,1.9
	c-3.6,4.3-9.9,4.9-14.2,1.4c-3.5-2.9-4-8.2-1.1-11.7c2.4-2.9,6.7-3.3,9.6-0.9c2.4,2,2.8,5.6,0.8,8c-1.7,2-4.7,2.3-6.7,0.7
	c-1.7-1.4-1.9-3.9-0.5-5.6c1.2-1.5,3.3-1.7,4.8-0.5c0.6,0.5,1,1.2,1,2c0.1,0.8-0.2,1.5-0.7,2.2c-0.6,0.7-1.5,1-2.4,0.9
	c1,0.3,2.2,0,2.9-0.9c1.3-1.5,1-3.8-0.5-5.1c-2.1-1.7-5.1-1.4-6.8,0.7c-2.2,2.6-1.8,6.6,0.9,8.8c3.4,2.8,8.5,2.3,11.3-1.1
	c1.8-2.1,2.6-4.8,2.3-7.6c-0.3-2.7-1.6-5.2-3.7-7c-2.7-2.2-6.1-3.3-9.6-2.9c-3.5,0.3-6.7,2-8.9,4.7c-2.9,3.4-4.2,7.8-3.7,12.3
	c0.4,4.5,2.6,8.5,6,11.3C387.5,84.1,400.7,82.8,408.2,74.1z"/>
<polygon fill="#F6FAEE" points="394.3,88.8 394.3,113.3 386.5,113.3 386.5,88.8 388.5,88.8 388.5,111.3 392.2,111.3 392.2,88.8 "/>
<polygon fill="#F6FAEE" points="394.3,86.7 394.3,88.8 392.2,88.8 388.5,88.8 386.5,88.8 386.5,86.7 392.1,86.7 "/>
<g>
	<path fill="#F6FAEE" d="M426,41.9h-39.4h-32.2c-1.7,0-3,1.4-3,3v38.7c0,1.7,1.4,3,3,3h32.1h5.6h2.2H426c1.7,0,3-1.4,3-3V45
		C429,43.3,427.7,41.9,426,41.9z M410.3,74.8l-0.2,0.3c-4.6,5.6-11.2,8.5-18,8.5c-5.2,0-10.4-1.7-14.7-5.3
		c-3.9-3.2-6.3-7.7-6.8-12.7c-0.5-5,1-9.9,4.2-13.8c2.6-3.1,6.2-5.1,10.3-5.5c0.5,0,1-0.1,1.5-0.1c3.5,0,6.9,1.2,9.7,3.5
		c2.5,2.1,4.1,5.1,4.5,8.4c0.2,1.8,0,3.5-0.6,5.1c5.7,0.7,10.2,5.5,10.2,11.2V74.8z"/>
	<path fill="#239593" d="M426,87.1h-71.6c-1.8,0-3.3-1.5-3.3-3.3V45c0-1.8,1.5-3.3,3.3-3.3H426c1.8,0,3.3,1.5,3.3,3.3v38.7
		C429.3,85.6,427.8,87.1,426,87.1z M354.3,42.2c-1.5,0-2.7,1.2-2.7,2.7v38.7c0,1.5,1.2,2.7,2.7,2.7H426c1.5,0,2.7-1.2,2.7-2.7V45
		c0-1.5-1.2-2.7-2.7-2.7H354.3z M392.1,83.9c-5.4,0-10.7-1.9-14.9-5.4c-3.9-3.2-6.4-7.8-6.9-12.9c-0.5-5.1,1-10.1,4.3-14
		c2.6-3.2,6.4-5.2,10.5-5.6c0.5,0,1-0.1,1.5-0.1c3.7,0,7.1,1.2,9.9,3.5c2.6,2.2,4.2,5.2,4.6,8.6c0.2,1.6,0,3.3-0.5,4.9
		c5.8,0.9,10.1,5.8,10.1,11.5v0.4l-0.3,0.4C405.8,80.8,399.1,83.9,392.1,83.9z M386.5,46.6c-0.5,0-1,0-1.5,0.1
		c-4,0.4-7.5,2.3-10.1,5.4c-3.1,3.8-4.6,8.6-4.1,13.5c0.5,4.9,2.9,9.3,6.7,12.5c4.1,3.4,9.3,5.2,14.5,5.2c6.9,0,13.4-3,17.7-8.3
		l0.2-0.2v-0.2c0-5.5-4.3-10.2-9.9-10.9l-0.4,0l0.1-0.4c0.5-1.7,0.7-3.3,0.6-5c-0.3-3.2-1.8-6.1-4.3-8.2
		C393.3,47.8,390,46.6,386.5,46.6z"/>
</g>
<g>
	<path fill="#F6FAEE" d="M122.6,30.2c3.6-3.2,5.8-7.8,5.8-12.9c0-9.5-7.8-17.3-17.3-17.3c-7.2,0-13.3,4.4-16,10.6
		c-7.9-3.1-16.5-4.9-25.5-4.9C31.2,5.8,0,37,0,75.4c0,38.4,31.2,69.6,69.6,69.6s69.6-31.2,69.6-69.6C139.3,58.2,133,42.4,122.6,30.2
		z M111.1,2.1c8.4,0,15.2,6.8,15.2,15.2c0,8.4-6.8,15.2-15.2,15.2s-15.2-6.8-15.2-15.2C95.9,8.9,102.7,2.1,111.1,2.1z M69.6,8.9
		c8.7,0,17,1.7,24.6,4.7c-0.3,1.2-0.4,2.5-0.4,3.7c0,9.5,7.8,17.3,17.3,17.3c3.3,0,6.4-0.9,9-2.6c10,11.7,16.1,26.8,16.1,43.3
		c0,13.2-3.9,25.5-10.5,35.9H96.4c0.9-0.5,1.7-1,2.4-1.7c1.8-1.8,2.9-4.3,2.9-7c0-5.4-4.4-9.8-9.8-9.8c-5.4,0-9.8,4.4-9.8,9.8
		c0,3.8,2.2,7,5.3,8.6H50.5c3.1-1.6,5.2-4.9,5.3-8.6c0-2.7-1-5.1-2.9-7c-1.8-1.8-4.3-2.9-6.9-2.9c-5.4,0-9.8,4.4-9.8,9.8
		c0,3.8,2.2,7,5.3,8.6H13.6C7,100.9,3.1,88.6,3.1,75.4C3.1,38.7,32.9,8.9,69.6,8.9z M46,110.4c-4.3,0-7.8-3.5-7.8-7.8
		c0-4.3,3.5-7.8,7.8-7.8c2.1,0,4,0.8,5.4,2.3c1.5,1.5,2.3,3.4,2.3,5.5C53.7,106.9,50.2,110.4,46,110.4l0,0.8L46,110.4z M91.9,110.4
		c-4.3,0-7.7-3.5-7.7-7.7c0-4.3,3.5-7.8,7.7-7.8c4.3,0,7.8,3.5,7.8,7.7c0,2.1-0.8,4-2.3,5.5C95.9,109.6,94,110.4,91.9,110.4l0,0.9h0
		L91.9,110.4z M69.6,142C47,142,27,130.6,15,113.3h1v1.4c0.3,0.5,0.7,0.9,1,1.3v-2.7h1v4c0.3,0.4,0.7,0.8,1,1.2v-5.2h1v6.4
		c0.3,0.4,0.7,0.7,1,1.1v-7.5h1v8.6c0.3,0.3,0.7,0.7,1,1v-9.6h1v10.6c0.3,0.3,0.7,0.6,1,0.9v-11.5h1v12.4c0.3,0.3,0.7,0.6,1,0.9
		v-13.3h1v14.1c0.3,0.3,0.7,0.5,1,0.8v-14.9h1V129c0.3,0.2,0.7,0.5,1,0.7v-16.4h1v17.1c0.3,0.2,0.7,0.4,1,0.7v-17.8h1v18.4
		c0.3,0.2,0.7,0.4,1,0.6v-19.1h1V133c0.3,0.2,0.7,0.4,1,0.6v-20.2h1v20.8c0.3,0.2,0.7,0.3,1,0.5v-21.3h1v21.8c0.3,0.2,0.7,0.3,1,0.5
		v-22.3h1v22.8c0.3,0.2,0.7,0.3,1,0.5v-23.3h1V137c0.3,0.1,0.7,0.3,1,0.4v-24.1h1v24.5c0.3,0.1,0.7,0.2,1,0.4v-24.8h1v25.2
		c0.3,0.1,0.7,0.2,1,0.3v-25.5h1v25.8c0.3,0.1,0.7,0.2,1,0.3v-26.1h1v26.4c0.3,0.1,0.7,0.2,1,0.3v-26.7h1v26.9
		c0.3,0.1,0.7,0.2,1,0.2v-27.1h1v27.3c0.3,0.1,0.7,0.1,1,0.2v-27.5h1V141c0.3,0.1,0.7,0.1,1,0.2v-27.9h1v28c0.3,0,0.7,0.1,1,0.1
		v-28.1h1v28.3c0.3,0,0.7,0,1,0.1v-28.3h1v28.4c0.3,0,0.7,0.1,1,0.1v-28.5h1v28.5c0.3,0,0.7,0,1,0v-28.6h1v28.6
		C69.2,141.9,69.4,141.9,69.6,142c0.1,0,0.2,0,0.3,0v-28.6h1v28.6c0.3,0,0.7,0,1,0v-28.6h1v28.5c0.3,0,0.7-0.1,1-0.1v-28.5h1v28.4
		c0.3,0,0.7,0,1-0.1v-28.3h1v28.2c0.3,0,0.7-0.1,1-0.1v-28.1h1v27.9c0.3-0.1,0.7-0.1,1-0.2v-27.8h1v27.6c0.3-0.1,0.7-0.1,1-0.2
		v-27.4h1v27.2c0.3-0.1,0.7-0.2,1-0.2v-27h1v26.7c0.3-0.1,0.7-0.2,1-0.2v-26.5h1v26.2c0.3-0.1,0.7-0.2,1-0.3v-25.9h1V139
		c0.3-0.1,0.7-0.2,1-0.3v-25.3h1v25c0.3-0.1,0.7-0.2,1-0.3v-24.6h1v24.2c0.3-0.1,0.7-0.3,1-0.4v-23.8h1v23.4c0.3-0.1,0.7-0.3,1-0.5
		v-23h1v22.5c0.3-0.2,0.7-0.3,1-0.5v-22h1v21.5c0.3-0.2,0.7-0.3,1-0.5v-21h1v20.5c0.3-0.2,0.7-0.4,1-0.6v-19.9h1v19.3
		c0.3-0.2,0.7-0.4,1-0.6v-18.7h1v18c0.3-0.2,0.7-0.4,1-0.7v-17.4h1V130c0.3-0.2,0.7-0.5,1-0.7v-15.9h1v15.2c0.3-0.3,0.7-0.5,1-0.8
		v-14.4h1v13.6c0.3-0.3,0.7-0.6,1-0.9v-12.7h1v11.8c0.3-0.3,0.7-0.6,1-0.9v-10.9h1v9.9c0.3-0.3,0.7-0.6,1-1v-9h1v7.9
		c0.3-0.4,0.7-0.7,1-1.1v-6.8h1v5.6c0.3-0.4,0.7-0.8,1-1.2v-4.5h1v3.2c0.3-0.4,0.7-0.9,1-1.3v-1.9h1.4
		C112.3,130.6,92.3,142,69.6,142z"/>
	<path fill="#F6FAEE" d="M19.7,132.4c-5.4,0-9.8,4.4-9.8,9.8c0,5.4,4.4,9.8,9.8,9.8c5.4,0,9.8-4.4,9.8-9.8
		C29.5,136.8,25.1,132.4,19.7,132.4z M19.7,150.8c-4.7,0-8.6-3.9-8.6-8.6c0-4.7,3.9-8.6,8.6-8.6s8.6,3.9,8.6,8.6
		C28.4,147,24.5,150.8,19.7,150.8z"/>
	
		<ellipse transform="matrix(0.5576 0.8301 -0.8301 0.5576 121.8867 46.9639)" fill="#F6FAEE" cx="16.9" cy="137.8" rx="1.6" ry="2.3"/>
	<path fill="#F6FAEE" d="M22.6,146.3c-4.2,2.3-7.7,0.4-7.3,1.1c0.4,0.7,4.9,3,8.7,0.1c2.7-2.1,3.1-5.4,2.2-7.4
		C25.3,138,26.8,144,22.6,146.3z"/>
	<path fill="#F6FAEE" d="M83.4,71.9l4.3,0l8.7,0l4.1,0c1.2,0,2-0.5,2.4-1.3c0.4-0.9,0.3-1.8-0.3-2.7c-2.2-3.1-4.4-6.2-6.6-9.3
		c-0.6-0.8-1.4-1.2-2.4-1.2l-4.2,0l-3.5,0l-2.6,0c-1.7,0-2.6,1-2.7,2.6c0,3.1,0,6.2,0,9.3C80.7,70.9,81.7,71.9,83.4,71.9z
		 M82.8,59.9c0-0.5,0-0.6,0.6-0.6l2.6,0l1.7,0l5.9,0c0.3,0,0.5,0.1,0.7,0.4c2.2,3.1,4.4,6.2,6.6,9.3c0.3,0.4,0.2,0.5,0.2,0.6
		c-0.1,0.1-0.1,0.2-0.6,0.2l-4.1,0l-4.4,0l-8.5,0c-0.6,0-0.6-0.1-0.6-0.6C82.8,66.1,82.8,63,82.8,59.9z"/>
	<rect x="81.6" y="82" fill="#F6FAEE" width="20.4" height="2.1"/>
	<path fill="#F6FAEE" d="M74.3,92.8H50.9l2,1.8c2,1.8,3.1,3.9,3.6,6.4l0.1,0.9h24.7l0.1-0.9c0.8-5.1,4.9-8.8,9.9-9
		c2.4-0.1,4.6,0.5,6.5,1.9c2.4,1.7,3.9,4.1,4.5,7.1l0.2,0.6l0.5,0.2l7.3,0.1l4.6,0c1.3,0,2.3-1.1,2.3-2.4l0-0.6c0-1.2,0-2.5,0-3.7
		c0-0.6-0.3-1.4-0.9-1.8c-0.4-0.3-1.1-0.5-1.8-0.6c-0.5,0-0.9,0-1.4,0l-0.7,0l0-5c0-4.3,0-8.6,0-12.9c0-2.7-0.8-5.2-2.3-7.4
		c-2.7-4-5.5-8-8.1-12.1c-1.7-2.5-3.9-4.3-6.6-5.2c0-1.1,0-2.2,0-3.4c0-0.6-0.1-1.1-0.2-1.5c-0.7-2.5-3-4.2-5.7-4.2
		c-3.1,0-6.1-0.1-9.2,0c-3.4,0.1-5.9,2.7-5.9,6.1c0,11.3,0,22.7,0,34L74.3,92.8z M76.3,47.2c0-2.3,1.6-3.9,3.9-4c3-0.1,6.1,0,9.1,0
		c1.8,0,3.3,1.2,3.8,2.7c0.1,0.3,0.1,0.6,0.1,1c0,1.1,0,2.3,0,3.4l0,0.3c0,0.8,0.4,1.3,1.1,1.5c2.5,0.7,4.4,2.2,5.9,4.5
		c2.7,4.1,5.4,8.1,8.2,12.1c1.3,1.9,1.9,4,1.9,6.2c0,4.3,0,8.6,0,12.9l0,7.1l2.8,0c0.4,0,0.8,0,1.3,0c0.4,0,0.6,0.1,0.6,0.1
		c0,0.1,0.1,0.2,0.1,0.3c0,1.2,0,2.4,0,3.6l0,0.6c0,0,0,0.4-0.3,0.4l-4.5,0l-4.6,0l-1.6,0c-0.7-3.2-2.5-5.8-5.1-7.7
		c-2.1-1.5-4.5-2.3-7.1-2.3c-0.2,0-0.4,0-0.7,0c-5.7,0.3-10.4,4.3-11.7,9.9H58.3c-0.4-1.8-1.2-3.5-2.4-5h20.4l0-13.7
		C76.4,69.8,76.4,58.5,76.3,47.2z"/>
	<path fill="#F6FAEE" d="M51.4,102.6c0-1.5-0.6-2.8-1.6-3.8c-1-1-2.3-1.6-3.8-1.6c-1.5,0-2.8,0.6-3.8,1.6c-1,1-1.6,2.4-1.6,3.8
		c0,3,2.4,5.4,5.4,5.4C49,108,51.4,105.7,51.4,102.6z M45.9,106c-1.8,0-3.3-1.5-3.3-3.4c0-0.9,0.3-1.7,1-2.3c0.6-0.6,1.5-1,2.4-1
		c1.9,0,3.3,1.5,3.3,3.4C49.3,104.5,47.8,106,45.9,106z"/>
	<path fill="#F6FAEE" d="M97.3,102.7c0-3-2.4-5.4-5.3-5.4h0c-3,0-5.4,2.4-5.4,5.4c0,3,2.4,5.4,5.4,5.4h0
		C94.9,108,97.3,105.7,97.3,102.7z M91.8,106C91.8,106,91.8,106,91.8,106c-1.8,0-3.3-1.5-3.3-3.4c0-1.9,1.5-3.3,3.4-3.3v-1l0,1
		c1.8,0,3.3,1.5,3.3,3.4C95.2,104.5,93.7,106,91.8,106z"/>
	<path fill="#F6FAEE" d="M16.3,99.3c0,1.7,1,2.7,2.7,2.7l7.5,0l7.5,0l1.4-0.1l0.1-0.8c0.4-2.6,1.6-4.7,3.5-6.5l1.6-1.7L38,92.8
		l-19.2,0c-1.5,0-2.5,1-2.5,2.5c0,1.1,0,2.2,0,3.3L16.3,99.3z M18.4,95.3c0-0.3,0.1-0.5,0.5-0.5l12.8,0l4.5,0c-1.2,1.5-2,3.2-2.4,5
		l-7.2,0l-7.5,0c-0.6,0-0.6-0.1-0.6-0.6l0-0.7C18.4,97.5,18.4,96.4,18.4,95.3z"/>
	<ellipse transform="matrix(0.5578 0.83 -0.83 0.5578 54.8543 -83.7633)" fill="#F6FAEE" cx="106" cy="9.6" rx="2.8" ry="4.1"/>
	<path fill="#F6FAEE" d="M103.4,26.4c0.7,1.3,8.7,5.4,15.4,0.1c4.8-3.8,5.4-9.6,3.8-13c-1.7-3.7,1,6.9-6.4,11
		C108.8,28.6,102.7,25.1,103.4,26.4z"/>
	<path fill="#F6FAEE" d="M35.3,75.1l1.6,1.2c10.4,7.1,20.1,1.3,23.8-1.5c0.3-0.2,0.3-1,0-1.2C57,70.8,47.3,65,36.9,72.1l-1.6,1.2
		l-1.6-1.2c-1.3-0.9-2.6-1.6-3.9-2.1v8.4c1.3-0.5,2.6-1.2,3.9-2.1L35.3,75.1z M53.4,71c0.6,0,1.2,0.5,1.2,1.2c0,0.6-0.5,1.2-1.2,1.2
		c-0.6,0-1.2-0.5-1.2-1.2C52.3,71.5,52.8,71,53.4,71z"/>
	<path fill="#F6FAEE" d="M19.8,87.9c0,1.8,1,2.8,2.8,2.8l11.7,0l35.2,0c1.8,0,2.8-1,2.8-2.8l0-10.6c0-10.2,0-20.5,0-30.7
		c0-1.6-0.6-3-1.6-4c-1-1-2.5-1.6-4-1.6l-41.4,0c-1.5,0-2.9,0.6-4,1.6c-1,1-1.6,2.4-1.6,4c0,10.1,0,20.2,0,30.2L19.8,87.9z
		 M59.6,60.1c0.6,0,1.2,0.5,1.2,1.2c0,0.6-0.5,1.2-1.2,1.2c-0.6,0-1.2-0.5-1.2-1.2C58.4,60.6,58.9,60.1,59.6,60.1z M56.4,54.4
		c0.4,0,0.7,0.3,0.7,0.7c0,0.4-0.3,0.7-0.7,0.7c-0.4,0-0.7-0.3-0.7-0.7C55.7,54.7,56,54.4,56.4,54.4z M54,61c0,0.8-0.7,1.5-1.5,1.5
		c-0.8,0-1.5-0.7-1.5-1.5c0-0.8,0.7-1.5,1.5-1.5C53.3,59.5,54,60.1,54,61z M50.5,49.8c1,0,1.8,0.8,1.8,1.8c0,1-0.8,1.8-1.8,1.8
		s-1.8-0.8-1.8-1.8C48.7,50.6,49.5,49.8,50.5,49.8z M43.6,55.8c1.2,0,2.1,1,2.1,2.1c0,1.2-1,2.1-2.1,2.1c-1.2,0-2.1-1-2.1-2.1
		C41.4,56.8,42.4,55.8,43.6,55.8z M39.3,50.4c0.4,0,0.7,0.3,0.7,0.7c0,0.4-0.3,0.7-0.7,0.7c-0.4,0-0.7-0.3-0.7-0.7
		C38.6,50.7,38.9,50.4,39.3,50.4z M37.9,61.3c0.8,0,1.5,0.7,1.5,1.5c0,0.8-0.7,1.5-1.5,1.5c-0.8,0-1.5-0.7-1.5-1.5
		C36.4,61.9,37,61.3,37.9,61.3z M27.7,67.3l2.1,0.6c1.8,0.7,3.6,1.6,5.5,3c9.7-7.1,18.9-3.6,23.8-0.6c0.5,0.3,4,2.3,4,4
		c0,1.6-3.5,3.7-4,4c-4.9,2.9-14.2,6.4-23.8-0.6c-1.9,1.4-3.7,2.3-5.5,3l-2.1,0.6V67.3z"/>
</g>
<g>
	<g>
		<path fill="#F6FAEE" d="M281.6,30.2c3.6-3.2,5.8-7.8,5.8-12.9c0-9.5-7.8-17.3-17.3-17.3c-7.2,0-13.3,4.4-16,10.6
			c-7.9-3.1-16.5-4.9-25.5-4.9C190.2,5.8,159,37,159,75.4c0,38.4,31.2,69.6,69.6,69.6s69.6-31.2,69.6-69.6
			C298.3,58.2,292,42.4,281.6,30.2z M270.1,2.1c8.4,0,15.2,6.8,15.2,15.2c0,8.4-6.8,15.2-15.2,15.2c-8.4,0-15.2-6.8-15.2-15.2
			C254.9,8.9,261.7,2.1,270.1,2.1z M228.6,8.9c8.7,0,17,1.7,24.6,4.7c-0.3,1.2-0.4,2.5-0.4,3.7c0,9.5,7.8,17.3,17.3,17.3
			c3.3,0,6.4-0.9,9-2.6c10,11.7,16.1,26.8,16.1,43.3c0,2.8-0.2,5.5-0.5,8.2H271c0-0.6,0-1.2,0-1.7c0-11.4-4.5-22.2-12.6-30.2v-3.1
			h1.5c2.3,0,4.1-1.6,4.1-3.7c0-2-1.8-3.7-4.1-3.7h-62.7c-2.3,0-4.1,1.6-4.1,3.7c0,2,1.8,3.7,4.1,3.7h1.5v3.1
			c-8.1,8-12.6,18.8-12.6,30.2c0,11,4.3,21.6,11.9,29.4h-25.5c-6.7-10.4-10.5-22.7-10.5-35.9C162.1,38.7,191.9,8.9,228.6,8.9z
			 M174.9,113.3v1.4c-0.3-0.4-0.6-0.9-1-1.4H174.9z M176,113.3h1v4c-0.3-0.4-0.7-0.9-1-1.3V113.3z M175.5,115.4
			c-0.1-0.1-0.1-0.2-0.2-0.3C175.3,115.2,175.4,115.3,175.5,115.4z M178,113.3h1v6.4c-0.3-0.4-0.7-0.8-1-1.2V113.3z M177.4,117.8
			c0-0.1-0.1-0.1-0.1-0.2C177.3,117.7,177.4,117.8,177.4,117.8z M181.1,113.3v8.6c-0.3-0.4-0.7-0.7-1-1.1v-7.5H181.1z M183.1,113.3
			v10.6c-0.3-0.3-0.7-0.6-1-1v-9.6H183.1z M184.1,113.3h1v12.4c-0.3-0.3-0.7-0.6-1-0.9V113.3z M184,124.7c-0.1-0.1-0.2-0.2-0.4-0.3
			C183.8,124.5,183.9,124.6,184,124.7z M186.2,113.3h1v14.1c-0.3-0.3-0.7-0.5-1-0.8V113.3z M188.2,113.3h1V129
			c-0.3-0.3-0.7-0.5-1-0.8V113.3z M190.2,113.3h1v17.1c-0.3-0.2-0.7-0.5-1-0.7V113.3z M197.3,46.5c-1.1,0-2.1-0.7-2.1-1.6
			c0-0.9,0.9-1.6,2.1-1.6H260c1.1,0,2.1,0.7,2.1,1.6c0,0.9-0.9,1.6-2.1,1.6h-3.6v6l0.3,0.3c0.7,0.6,1.3,1.3,1.9,2h-59.9
			c0.6-0.7,1.2-1.4,1.9-2l0.3-0.3v-6H197.3z M196.9,56.9h63.4c5.6,7.1,8.7,15.8,8.7,25c0,0.6-0.1,1.2-0.1,1.7h-7.2V73
			c0-1.6-1.3-2.9-2.9-2.9h-6.4c-1.6,0-2.9,1.3-2.9,2.9v26.1c0,1.6,1.3,2.9,2.9,2.9h6.4c1.6,0,2.9-1.3,2.9-2.9V88.5h6.7
			c-1.5,8.6-5.7,16.7-12.1,22.8H201c-8.1-7.6-12.7-18.3-12.7-29.4C188.2,72.6,191.3,64,196.9,56.9z M259.2,111.3
			c6-6.3,10-14.2,11.4-22.8h23.4c-1.7,8.2-4.8,15.9-9.2,22.8H259.2z M179.3,120c0.1,0.1,0.2,0.3,0.4,0.4
			C179.5,120.3,179.4,120.1,179.3,120z M181.3,122.2c0.2,0.2,0.4,0.4,0.5,0.5C181.7,122.5,181.5,122.4,181.3,122.2z M191.3,130.4
			c0.3,0.2,0.7,0.4,1,0.7C191.9,130.9,191.6,130.7,191.3,130.4z M228.6,142c-13.4,0-25.9-4-36.4-10.9v-17.8h1v18.4
			c0.3,0.2,0.7,0.4,1,0.6v-19.1h1V133c0.3,0.2,0.7,0.4,1,0.6v-20.2h1v20.8c0.3,0.2,0.7,0.3,1,0.5v-21.3h1v21.8
			c0.3,0.2,0.7,0.3,1,0.5v-22.3h1v22.8c0.3,0.2,0.7,0.3,1,0.5v-23.3h1V137c0.3,0.1,0.7,0.3,1,0.4v-24.1h1v24.5
			c0.3,0.1,0.7,0.2,1,0.4v-24.8h1v25.2c0.3,0.1,0.7,0.2,1,0.3v-25.5h1v25.8c0.3,0.1,0.7,0.2,1,0.3v-26.1h1v26.4
			c0.3,0.1,0.7,0.2,1,0.3v-26.7h1v26.9c0.3,0.1,0.7,0.2,1,0.2v-27.1h1v27.3c0.3,0.1,0.7,0.1,1,0.2v-27.5h1V141
			c0.3,0.1,0.7,0.1,1,0.2v-27.9h1v28c0.3,0,0.7,0.1,1,0.1v-28.1h1v28.3c0.3,0,0.7,0,1,0.1v-28.3h1v28.4c0.3,0,0.7,0.1,1,0.1v-28.5h1
			v28.5c0.3,0,0.7,0,1,0v-28.6h1v28.6C228.1,141.9,228.4,141.9,228.6,142c0.1,0,0.2,0,0.3,0v-28.6h1v28.6c0.3,0,0.7,0,1,0v-28.6h1
			v28.5c0.3,0,0.7-0.1,1-0.1v-28.5h1v28.4c0.3,0,0.7,0,1-0.1v-28.3h1v28.2c0.3,0,0.7-0.1,1-0.1v-28.1h1v27.9c0.3-0.1,0.7-0.1,1-0.2
			v-27.8h1v27.6c0.3-0.1,0.7-0.1,1-0.2v-27.4h1v27.2c0.3-0.1,0.7-0.2,1-0.2v-27h1v26.7c0.3-0.1,0.7-0.2,1-0.2v-26.5h1v26.2
			c0.3-0.1,0.7-0.2,1-0.3v-25.9h1V139c0.3-0.1,0.7-0.2,1-0.3v-25.3h1v25c0.3-0.1,0.7-0.2,1-0.3v-24.6h1v24.2c0.3-0.1,0.7-0.3,1-0.4
			v-23.8h1v23.4c0.3-0.1,0.7-0.3,1-0.5v-23h1v22.5c0.3-0.2,0.7-0.3,1-0.5v-22h1v21.5c0.3-0.2,0.7-0.3,1-0.5v-21h1v20.5
			c0.3-0.2,0.7-0.4,1-0.6v-19.9h1v19.3c0.3-0.2,0.7-0.4,1-0.6v-18.7h1v18c0.3-0.2,0.7-0.4,1-0.7v-17.4h1V130c0.3-0.2,0.7-0.5,1-0.7
			v-15.9h1v15.2c0.3-0.3,0.7-0.5,1-0.8v-14.4h1v13.6c0.3-0.3,0.7-0.6,1-0.9v-12.7h1v11.8c0.3-0.3,0.7-0.6,1-0.9v-10.9h1v9.9
			c0.3-0.3,0.7-0.6,1-1v-9h1v7.9c0.3-0.4,0.7-0.7,1-1.1v-6.8h1v5.6c0.3-0.4,0.7-0.8,1-1.2v-4.5h1v3.2c0.3-0.4,0.7-0.9,1-1.3v-1.9
			h1.4C271.3,130.6,251.3,142,228.6,142z"/>
		<ellipse transform="matrix(0.5578 0.83 -0.83 0.5578 125.1647 -215.7282)" fill="#F6FAEE" cx="265" cy="9.6" rx="2.8" ry="4.1"/>
		<path fill="#F6FAEE" d="M262.4,26.4c0.7,1.3,8.7,5.4,15.4,0.1c4.8-3.8,5.4-9.6,3.8-13c-1.7-3.7,1,6.9-6.4,11
			C267.8,28.6,261.7,25.1,262.4,26.4z"/>
		<path fill="#F6FAEE" d="M214.5,66.7c0.4,0,0.7-0.3,0.7-0.7c0-0.4-0.3-0.7-0.7-0.7c-0.4,0-0.7,0.3-0.7,0.7
			C213.8,66.4,214.1,66.7,214.5,66.7z"/>
		<path fill="#F6FAEE" d="M225.7,68.3c1,0,1.8-0.8,1.8-1.8c0-1-0.8-1.8-1.8-1.8c-1,0-1.8,0.8-1.8,1.8
			C223.9,67.5,224.7,68.3,225.7,68.3z"/>
		<path fill="#F6FAEE" d="M231.6,70.7c0.4,0,0.7-0.3,0.7-0.7c0-0.4-0.3-0.7-0.7-0.7c-0.4,0-0.7,0.3-0.7,0.7
			C230.9,70.4,231.2,70.7,231.6,70.7z"/>
		<path fill="#F6FAEE" d="M234.8,77.4c0.6,0,1.2-0.5,1.2-1.2c0-0.6-0.5-1.2-1.2-1.2c-0.6,0-1.2,0.5-1.2,1.2
			C233.6,76.8,234.1,77.4,234.8,77.4z"/>
		<path fill="#F6FAEE" d="M226.2,75.9c0,0.8,0.7,1.5,1.5,1.5s1.5-0.7,1.5-1.5c0-0.8-0.7-1.5-1.5-1.5S226.2,75.1,226.2,75.9z"/>
		<path fill="#F6FAEE" d="M218.8,75c1.2,0,2.1-0.9,2.1-2.1c0-1.2-1-2.2-2.1-2.2c-1.2,0-2.2,1-2.2,2.2C216.6,74.1,217.6,75,218.8,75z
			"/>
		<path fill="#F6FAEE" d="M213.1,79.1c0.8,0,1.5-0.7,1.5-1.5c0-0.8-0.7-1.5-1.5-1.5c-0.8,0-1.5,0.7-1.5,1.5
			C211.6,78.5,212.2,79.1,213.1,79.1z"/>
		<path fill="#F6FAEE" d="M228.6,88.2c0.6,0,1.1-0.5,1.1-1.2s-0.5-1.2-1.1-1.2c-0.6,0-1.2,0.5-1.2,1.2S228,88.2,228.6,88.2z"/>
		<path fill="#F6FAEE" d="M205,95.4c1.8-0.7,3.6-1.6,5.5-3c9.7,7.1,18.9,3.6,23.8,0.6c0.5-0.3,4-2.4,4-4c0-1.6-3.5-3.7-4-4
			c-4.9-3-14.2-6.4-23.8,0.6c-1.8-1.4-3.7-2.3-5.5-3l-2.1-0.6V96L205,95.4z M205,84.9c1.3,0.5,2.6,1.2,3.9,2.1l1.6,1.2l1.6-1.2
			c10.4-7.1,20.1-1.3,23.8,1.5c0.3,0.2,0.3,1,0,1.2c-3.7,2.8-13.3,8.6-23.8,1.5l-1.6-1.1l-1.6,1.1c-1.3,0.9-2.6,1.6-3.9,2.1V84.9z"
			/>
		<path fill="#F6FAEE" d="M178.7,132.4c-5.4,0-9.8,4.4-9.8,9.8c0,5.4,4.4,9.8,9.8,9.8c5.4,0,9.8-4.4,9.8-9.8
			C188.5,136.8,184.1,132.4,178.7,132.4z M178.7,150.8c-4.7,0-8.6-3.9-8.6-8.6c0-4.7,3.9-8.6,8.6-8.6c4.7,0,8.6,3.9,8.6,8.6
			C187.4,147,183.5,150.8,178.7,150.8z"/>
		
			<ellipse transform="matrix(0.5577 0.8301 -0.8301 0.5577 192.2081 -85.0174)" fill="#F6FAEE" cx="175.9" cy="137.8" rx="1.6" ry="2.3"/>
		<path fill="#F6FAEE" d="M181.6,146.3c-4.2,2.3-7.7,0.4-7.3,1.1c0.4,0.7,4.9,3,8.7,0.1c2.7-2.1,3.1-5.4,2.2-7.4
			C184.3,138,185.8,144,181.6,146.3z"/>
	</g>
	<path opacity="0.7" fill="#F6FAEE" d="M260.4,56.9h-63.5c-5.6,7.1-8.6,15.8-8.6,25c0,11.1,4.6,21.8,12.8,29.5h55.3
		c8.1-7.6,12.8-18.3,12.8-29.5C269,72.7,266,63.9,260.4,56.9z M255.6,102H214V70.1h41.6V102z"/>
</g>
<rect x="332.9" y="111.3" fill="#F6FAEE" width="114.6" height="2.1"/>
<path fill="#F6FAEE" d="M442.2,29.1c11,12.3,17.6,28.5,17.6,46.3c0,38.4-31.2,69.6-69.6,69.6s-69.6-31.2-69.6-69.6
	c0-38.4,31.2-69.6,69.6-69.6c9.5,0,18.6,1.9,26.8,5.4l-0.9,2.9c-8-3.4-16.7-5.2-25.9-5.2c-36.7,0-66.6,29.9-66.6,66.6
	c0,36.7,29.9,66.6,66.6,66.6s66.6-29.9,66.6-66.6c0-17.1-6.5-32.7-17.1-44.5L442.2,29.1z"/>
<path fill="#F6FAEE" d="M431.7,34.6c-9.5,0-17.3-7.8-17.3-17.3c0-9.5,7.8-17.3,17.3-17.3c9.5,0,17.3,7.8,17.3,17.3
	C449,26.9,441.2,34.6,431.7,34.6z M431.7,2.1c-8.4,0-15.2,6.8-15.2,15.2c0,8.4,6.8,15.2,15.2,15.2s15.2-6.8,15.2-15.2
	C446.9,8.9,440.1,2.1,431.7,2.1z"/>
<path fill="#F6FAEE" d="M335.5,113.3h1v1.4c0.3,0.5,0.7,0.9,1,1.3v-2.7h1v4c0.3,0.4,0.7,0.8,1,1.2v-5.3h1v6.4c0.3,0.4,0.7,0.7,1,1.1
	v-7.5h1v8.6c0.3,0.3,0.7,0.7,1,1v-9.6h1v10.6c0.3,0.3,0.7,0.6,1,0.9v-11.5h1v12.4c0.3,0.3,0.7,0.6,1,0.9v-13.3h1v14.1
	c0.3,0.3,0.7,0.5,1,0.8v-14.9h1V129c0.3,0.2,0.7,0.5,1,0.7v-16.4h1v17.1c0.3,0.2,0.7,0.4,1,0.7v-17.8h1v18.5c0.3,0.2,0.7,0.4,1,0.6
	v-19.1h1V133c0.3,0.2,0.7,0.4,1,0.6v-20.3h1v20.8c0.3,0.2,0.7,0.3,1,0.5v-21.3h1v21.9c0.3,0.2,0.7,0.3,1,0.5v-22.4h1v22.8
	c0.3,0.2,0.7,0.3,1,0.5v-23.3h1V137c0.3,0.1,0.7,0.3,1,0.4v-24.1h1v24.5c0.3,0.1,0.7,0.2,1,0.4v-24.9h1v25.2c0.3,0.1,0.7,0.2,1,0.3
	v-25.5h1v25.9c0.3,0.1,0.7,0.2,1,0.3v-26.1h1v26.4c0.3,0.1,0.7,0.2,1,0.3v-26.7h1v26.9c0.3,0.1,0.7,0.2,1,0.2v-27.2h1v27.4
	c0.3,0.1,0.7,0.1,1,0.2v-27.6h1V141c0.3,0.1,0.7,0.1,1,0.2v-27.9h1v28c0.3,0,0.7,0.1,1,0.1v-28.2h1v28.3c0.3,0,0.7,0,1,0.1v-28.4h1
	v28.4c0.3,0,0.7,0.1,1,0.1v-28.5h1v28.6c0.3,0,0.7,0,1,0v-28.6h1v28.6c0.2,0,0.5,0,0.7,0c0.1,0,0.2,0,0.3,0v-28.6h1v28.6
	c0.3,0,0.7,0,1,0v-28.6h1v28.6c0.3,0,0.7-0.1,1-0.1v-28.5h1v28.4c0.3,0,0.7,0,1-0.1v-28.3h1v28.2c0.3,0,0.7-0.1,1-0.1v-28.1h1v28
	c0.3-0.1,0.7-0.1,1-0.2v-27.8h1v27.6c0.3-0.1,0.7-0.1,1-0.2v-27.4h1v27.2c0.3-0.1,0.7-0.2,1-0.2v-27h1v26.8c0.3-0.1,0.7-0.2,1-0.2
	v-26.5h1v26.2c0.3-0.1,0.7-0.2,1-0.3v-26h1V139c0.3-0.1,0.7-0.2,1-0.3v-25.3h1v25c0.3-0.1,0.7-0.2,1-0.3v-24.6h1v24.2
	c0.3-0.1,0.7-0.3,1-0.4v-23.8h1v23.4c0.3-0.1,0.7-0.3,1-0.5v-23h1v22.5c0.3-0.2,0.7-0.3,1-0.5v-22.1h1v21.5c0.3-0.2,0.7-0.3,1-0.5
	v-21h1v20.5c0.3-0.2,0.7-0.4,1-0.6v-19.9h1v19.3c0.3-0.2,0.7-0.4,1-0.6v-18.7h1v18c0.3-0.2,0.7-0.4,1-0.7v-17.4h1V130
	c0.3-0.2,0.7-0.5,1-0.7v-15.9h1v15.2c0.3-0.3,0.7-0.5,1-0.8v-14.4h1v13.6c0.3-0.3,0.7-0.6,1-0.9v-12.7h1v11.9c0.3-0.3,0.7-0.6,1-0.9
	v-10.9h1v10c0.3-0.3,0.7-0.6,1-1v-9h1v7.9c0.3-0.4,0.7-0.7,1-1.1v-6.8h1v5.7c0.3-0.4,0.7-0.8,1-1.2v-4.5h1v3.2
	c0.3-0.4,0.7-0.9,1-1.3v-1.9h1h0.4"/>
<ellipse transform="matrix(0.8299 -0.5579 0.5579 0.8299 67.2082 239.6301)" fill="#F6FAEE" cx="426.6" cy="9.6" rx="4.1" ry="2.8"/>
<path fill="#F6FAEE" d="M443.1,13.5c1.6,3.4,1,9.3-3.8,13c-6.6,5.2-14.6,1.2-15.4-0.1c-0.7-1.3,5.4,2.2,12.8-1.9
	C444.1,20.4,441.4,9.8,443.1,13.5z"/>
<path fill="#F6FAEE" d="M340.3,152c-5.4,0-9.8-4.4-9.8-9.8c0-5.4,4.4-9.8,9.8-9.8c5.4,0,9.8,4.4,9.8,9.8
	C350.1,147.6,345.7,152,340.3,152z M340.3,133.6c-4.7,0-8.6,3.9-8.6,8.6c0,4.7,3.9,8.6,8.6,8.6s8.6-3.9,8.6-8.6
	C348.9,137.5,345,133.6,340.3,133.6z"/>
<ellipse transform="matrix(0.83 -0.5578 0.5578 0.83 -19.5191 211.6426)" fill="#F6FAEE" cx="337.4" cy="137.8" rx="2.3" ry="1.6"/>
<path fill="#F6FAEE" d="M346.8,140.1c0.9,1.9,0.5,5.2-2.2,7.4c-3.7,3-8.3,0.7-8.7-0.1c-0.4-0.7,3.1,1.2,7.3-1.1
	C347.4,144,345.8,138,346.8,140.1z"/>
<g>
	<path fill-rule="evenodd" clip-rule="evenodd" fill="#F6FAEE" d="M605.5,30.2c3.6-3.2,5.8-7.8,5.8-12.9C611.4,7.8,603.6,0,594,0
		c-7.2,0-13.3,4.4-16,10.6c-7.9-3.1-16.5-4.9-25.5-4.9c-38.4,0-69.6,31.2-69.6,69.6c0,38.4,31.2,69.6,69.6,69.6s69.6-31.2,69.6-69.6
		C622.2,58.2,615.9,42.4,605.5,30.2z M594,2.1c8.4,0,15.2,6.8,15.2,15.2c0,8.4-6.8,15.2-15.2,15.2s-15.2-6.8-15.2-15.2
		C578.8,8.9,585.6,2.1,594,2.1z M552.6,8.9c8.7,0,17,1.7,24.6,4.7c-0.3,1.2-0.4,2.5-0.4,3.7c0,9.5,7.8,17.3,17.3,17.3
		c3.3,0,6.4-0.9,9-2.6c10,11.7,16.1,26.8,16.1,43.3c0,13.2-3.9,25.5-10.5,35.9h-30.3c0,0,0,0,0,0h4.4c-3-2.4-3.6-5.6-1.6-9.1
		c1.7-3,7.3-6.7,9.5-9.5c2.3-3,2-7,1.5-10.6c-0.4-2.9-3.6-14.3-3.8-15.6c-1.3-10.2,3.2-14.1,3.8-16.8c0.5-2.6,1.4-6-1.1-10
		c-0.6-1-2.4-4.9-1.8-1.3c0.2,0.7,0.5,2,0.8,2.7c1.1,2.8,0,5.3-1.7,7.8c-1.8,2.7-4.3,4.9-4.6,8.3c-0.3,2.9,0.6,6.4,1.7,9
		c1.6,3.6,2.7,6.6,2.7,10.6c-0.1,6.2,0,13.4-3.4,18.6c-2,3.1-4.4,4.9-6.4,8c-0.9,1.5-1.1,3.8-1.1,5.9c-2.4-4.8-3.1-5.3-2.4-11.2
		c0.4-4,4.4-8.5,6.4-11.8c1.4-2.4,3.2-4.9,3.2-10.8c0-3.5-3.3-9.1-4.8-12c-1.3-2.7-2.2-5.3-0.7-8c0.4-0.7,0.8-1.9,1.1-2.6
		c1.1-3.6-1.2,0.2-1.9,1c-3,3.7-2.5,7.2-2.3,9.8c0.2,2.8,4.2,7.2,1.7,17.1c-0.3,1.3-5,12.2-5.7,15.1c-0.9,3.5-0.5,7.3,1.4,10.5
		c0.8,1.4,1.1,3.2,2.6,4.9h-42.4c-0.1-1.2,0-2.6,0.5-4.1c1.1-3.3,5.3-7.9,6.8-11c0.1-0.2,0.2-0.5,0.3-0.7c11,3.4,20.8-0.5,26.5-4
		c0.7-0.4,6.1-3.7,6.1-6c0-2.5-5.3-5.6-6.1-6c-6.3-3.8-17.5-8.2-29.7-2.8c-1-2.7-1.9-5.1-2-5.7c-0.1-0.2-0.1-0.5-0.1-0.7
		c1-0.2,1.8-1.1,1.8-2.2c0-1.2-1-2.2-2.2-2.2c-0.1,0-0.1,0-0.1,0c-0.3-6.4,1.8-9.8,2-12.1c0-0.7,0.1-1.6,0.1-2.4
		c0.1,0,0.2,0.1,0.3,0.1c0.6,0,1.1-0.5,1.1-1.1c0-0.6-0.5-1.1-1.1-1.1c-0.2,0-0.3,0-0.5,0.1c-0.2-1.7-0.8-3.4-2.1-5.2
		c-0.6-0.8-2.6-4.4-1.6-0.9c0.3,0.7,0.7,1.8,1,2.5c1.3,2.6,0.6,5.2-0.5,8c-1.2,3-3,5.5-2.9,9c0.1,2.9,1.2,6.2,2.5,8.5
		c1.1,2.1,2.1,4.1,2.7,6.3c-1.6,0.8-3.2,1.8-4.8,2.9c-1-0.7-2-1.4-3-2c-1.3-8.2,2-12.2,2.2-14.7c0.2-2.6,0.6-6.2-2.3-9.8
		c-0.7-0.9-3-4.6-1.9-1c0.3,0.7,0.7,1.9,1.1,2.6c1.5,2.7,0.6,5.3-0.7,8c-1.4,2.9-4.8,8.6-4.8,12c0,0,0,0,0,0.1l-2-0.6v21.1l3.1-0.9
		c1.9-0.7,3.9-1.7,6-2.9c1.3,2,2.3,4.1,2.5,6c0.7,6.2-0.1,6.4-2.8,11.9c-0.2,0.5-0.4,0.9-0.7,1.3h-31.6
		c-6.7-10.4-10.5-22.7-10.5-35.9C486,38.7,515.9,8.9,552.6,8.9z M498.9,113.3v1.4c-0.3-0.4-0.6-0.9-1-1.4H498.9z M499.9,113.3h1v4
		c-0.3-0.4-0.7-0.9-1-1.3V113.3z M499.4,115.4c-0.1-0.1-0.1-0.2-0.2-0.3C499.3,115.2,499.3,115.3,499.4,115.4z M501.9,113.3h1v6.4
		c-0.3-0.4-0.7-0.8-1-1.2V113.3z M501.4,117.9c-0.1-0.1-0.1-0.1-0.2-0.2C501.2,117.7,501.3,117.8,501.4,117.9z M505,113.3v8.6
		c-0.3-0.4-0.7-0.7-1-1.1v-7.5H505z M507,113.3v10.6c-0.3-0.3-0.7-0.6-1-1v-9.6H507z M508.1,113.3h1v12.4c-0.3-0.3-0.7-0.6-1-0.9
		V113.3z M507.9,124.7c-0.1-0.1-0.2-0.2-0.3-0.3C507.7,124.5,507.8,124.6,507.9,124.7z M510.1,113.3h1v14.1c-0.3-0.3-0.7-0.5-1-0.8
		V113.3z M512.1,113.3h1V129c-0.3-0.3-0.7-0.5-1-0.8V113.3z M514.2,113.3h1v17.1c-0.3-0.2-0.7-0.5-1-0.7V113.3z M523.1,82.3
		c0.6,1.6,1.4,2.8,2.1,4c0.6,1,1.4,2.2,2.2,3.3c-1.5,0.9-2.9,1.6-4.3,2.1V82.3z M529.5,82.6l1.9,1.4l2.4-1.8c1-0.7,2-1.3,3-1.8
		c0,0.2,0.1,0.4,0.1,0.7c0.3,3.1,0.7,6.4,0.7,9.7c-1.3-0.6-2.5-1.3-3.8-2.2l-2.4-1.7l-0.2,0.1C530.6,85.3,529.9,83.7,529.5,82.6z
		 M540.9,85.5c-0.3-1.1-1.1-3.6-2-6.1c13.8-6.1,26.1,1.3,31,5.1c0.4,0.3,0.4,1.5,0,1.8c-4.6,3.5-15.6,10.2-28.2,6.1
		C541.9,90.1,541.4,87.8,540.9,85.5z M537.5,94c-0.2,2-0.5,4-1.2,5.9c-0.6,1.7-1.4,3.1-2.2,4.4c1-2.7,1.2-5.7,0.5-8.5
		c-0.2-0.9-0.8-2.5-1.5-4.3C534.6,92.5,536,93.4,537.5,94z M531.4,111.3h-1c0.6-0.6,0.9-1.3,1.3-1.9
		C531.6,109.9,531.5,110.6,531.4,111.3z M503.2,120c0.1,0.1,0.3,0.3,0.4,0.4C503.5,120.3,503.3,120.1,503.2,120z M505.3,122.2
		c0.2,0.2,0.4,0.4,0.6,0.6C505.6,122.5,505.4,122.3,505.3,122.2z M515.2,130.4c0.3,0.2,0.6,0.4,1,0.6
		C515.8,130.9,515.5,130.7,515.2,130.4z M552.6,142c-13.4,0-25.9-4-36.4-10.9v-17.8h1v18.4c0.3,0.2,0.7,0.4,1,0.6v-19.1h1V133
		c0.3,0.2,0.7,0.4,1,0.6v-20.2h1v20.8c0.3,0.2,0.7,0.3,1,0.5v-21.3h1v21.8c0.3,0.2,0.7,0.3,1,0.5v-22.3h1v22.8
		c0.3,0.2,0.7,0.3,1,0.5v-23.3h1V137c0.3,0.1,0.7,0.3,1,0.4v-24.1h1v24.5c0.3,0.1,0.7,0.2,1,0.4v-24.8h1v25.2c0.3,0.1,0.7,0.2,1,0.3
		v-25.5h1v25.8c0.3,0.1,0.7,0.2,1,0.3v-26.1h1v26.4c0.3,0.1,0.7,0.2,1,0.3v-26.7h1v26.9c0.3,0.1,0.7,0.2,1,0.2v-27.1h1v27.3
		c0.3,0.1,0.7,0.1,1,0.2v-27.5h1V141c0.3,0.1,0.7,0.1,1,0.2v-27.9h1v28c0.3,0,0.7,0.1,1,0.1v-28.1h1v28.3c0.3,0,0.7,0,1,0.1v-28.3h1
		v28.4c0.3,0,0.7,0.1,1,0.1v-28.5h1v28.5c0.3,0,0.7,0,1,0v-28.6h1v28.6C552.1,141.9,552.3,141.9,552.6,142c0.1,0,0.2,0,0.3,0v-28.6
		h1v28.6c0.3,0,0.7,0,1,0v-28.6h1v28.5c0.3,0,0.7-0.1,1-0.1v-28.5h1v28.4c0.3,0,0.7,0,1-0.1v-28.3h1v28.2c0.3,0,0.7-0.1,1-0.1v-28.1
		h1v27.9c0.3-0.1,0.7-0.1,1-0.2v-27.8h1v27.6c0.3-0.1,0.7-0.1,1-0.2v-27.4h1v27.2c0.3-0.1,0.7-0.2,1-0.2v-27h1v26.7
		c0.3-0.1,0.7-0.2,1-0.2v-26.5h1v26.2c0.3-0.1,0.7-0.2,1-0.3v-25.9h1V139c0.3-0.1,0.7-0.2,1-0.3v-25.3h1v25c0.3-0.1,0.7-0.2,1-0.3
		v-24.6h1v24.2c0.3-0.1,0.7-0.3,1-0.4v-23.8h1v23.4c0.3-0.1,0.7-0.3,1-0.5v-23h1v22.5c0.3-0.2,0.7-0.3,1-0.5v-22h1v21.5
		c0.3-0.2,0.7-0.3,1-0.5v-21h1v20.5c0.3-0.2,0.7-0.4,1-0.6v-19.9h1v19.3c0.3-0.2,0.7-0.4,1-0.6v-18.7h1v18c0.3-0.2,0.7-0.4,1-0.7
		v-17.4h1V130c0.3-0.2,0.7-0.5,1-0.7v-15.9h1v15.2c0.3-0.3,0.7-0.5,1-0.8v-14.4h1v13.6c0.3-0.3,0.7-0.6,1-0.9v-12.7h1v11.8
		c0.3-0.3,0.7-0.6,1-0.9v-10.9h1v9.9c0.3-0.3,0.7-0.6,1-1v-9h1v7.9c0.3-0.4,0.7-0.7,1-1.1v-6.8h1v5.6c0.3-0.4,0.7-0.8,1-1.2v-4.5h1
		v3.2c0.3-0.4,0.7-0.9,1-1.3v-1.9h1.4C595.2,130.6,575.2,142,552.6,142z"/>
	
		<ellipse transform="matrix(0.5578 0.83 -0.83 0.5578 268.4135 -484.5904)" fill-rule="evenodd" clip-rule="evenodd" fill="#F6FAEE" cx="589" cy="9.6" rx="2.8" ry="4.1"/>
	<path fill-rule="evenodd" clip-rule="evenodd" fill="#F6FAEE" d="M586.3,26.4c0.7,1.3,8.7,5.4,15.4,0.1c4.8-3.8,5.4-9.6,3.8-13
		c-1.7-3.7,1,6.9-6.4,11C591.8,28.6,585.6,25.1,586.3,26.4z"/>
	<path fill-rule="evenodd" clip-rule="evenodd" fill="#F6FAEE" d="M502.7,132.4c-5.4,0-9.8,4.4-9.8,9.8c0,5.4,4.4,9.8,9.8,9.8
		c5.4,0,9.8-4.4,9.8-9.8C512.5,136.8,508.1,132.4,502.7,132.4z M502.7,150.8c-4.7,0-8.6-3.9-8.6-8.6c0-4.7,3.9-8.6,8.6-8.6
		c4.7,0,8.6,3.9,8.6,8.6C511.3,147,507.4,150.8,502.7,150.8z"/>
	
		<ellipse transform="matrix(0.5576 0.8301 -0.8301 0.5576 335.5162 -353.9105)" fill-rule="evenodd" clip-rule="evenodd" fill="#F6FAEE" cx="499.8" cy="137.8" rx="1.6" ry="2.3"/>
	<path fill-rule="evenodd" clip-rule="evenodd" fill="#F6FAEE" d="M505.6,146.3c-4.2,2.3-7.7,0.4-7.3,1.1c0.4,0.7,4.9,3,8.7,0.1
		c2.7-2.1,3.1-5.4,2.2-7.4C508.2,138,509.7,144,505.6,146.3z"/>
	<path fill-rule="evenodd" clip-rule="evenodd" fill="#F6FAEE" d="M554.5,53.7c1.5,0,2.7-1.2,2.7-2.7c0-1.5-1.2-2.7-2.7-2.7
		c-1.5,0-2.7,1.2-2.7,2.7C551.8,52.5,553,53.7,554.5,53.7z"/>
	<path fill-rule="evenodd" clip-rule="evenodd" fill="#F6FAEE" d="M563.6,57.4c0.6,0,1.1-0.5,1.1-1.1c0-0.6-0.5-1.1-1.1-1.1
		c-0.6,0-1.1,0.5-1.1,1.1C562.5,57,563,57.4,563.6,57.4z"/>
	<path fill-rule="evenodd" clip-rule="evenodd" fill="#F6FAEE" d="M568.4,67.5c1,0,1.8-0.8,1.8-1.8c0-1-0.8-1.8-1.8-1.8
		c-1,0-1.8,0.8-1.8,1.8C566.6,66.7,567.4,67.5,568.4,67.5z"/>
	<path fill-rule="evenodd" clip-rule="evenodd" fill="#F6FAEE" d="M555.4,65.2c0,1.2,1,2.3,2.2,2.3c1.2,0,2.2-1,2.2-2.3
		c0-1.2-1-2.2-2.2-2.2C556.4,63,555.4,64,555.4,65.2z"/>
	<path fill-rule="evenodd" clip-rule="evenodd" fill="#F6FAEE" d="M544,63.9c1.8,0,3.3-1.4,3.3-3.2c0-1.8-1.5-3.3-3.3-3.3
		c-1.8,0-3.3,1.5-3.3,3.3C540.8,62.5,542.2,63.9,544,63.9z"/>
	<path fill-rule="evenodd" clip-rule="evenodd" fill="#F6FAEE" d="M559,84c1,0,1.7-0.8,1.7-1.8c0-1-0.8-1.8-1.7-1.8
		c-1,0-1.8,0.8-1.8,1.8C557.2,83.2,558.1,84,559,84z"/>
	<path fill-rule="evenodd" clip-rule="evenodd" fill="#F6FAEE" d="M511.9,66.4c-0.2,1.4-3.5,12.7-3.8,15.6
		c-0.4,3.6-0.8,7.6,1.5,10.6c2.1,2.8,7.7,6.5,9.5,9.5c2,3.5,1.4,6.8-1.6,9.1h5.4c0.2-2.3,0.3-6-1-7.9c-2-3.1-4.4-4.9-6.4-8
		c-3.3-5.2-3.3-12.4-3.4-18.6c0-4,1.1-7,2.7-10.6c1.1-2.6,2-6.1,1.7-9c-0.4-3.5-2.8-5.6-4.6-8.3c-1.7-2.5-2.8-5-1.7-7.8
		c0.3-0.7,0.6-2,0.8-2.7c0.6-3.7-1.1,0.3-1.8,1.3c-2.5,4-1.6,7.4-1.1,10C508.7,52.3,513.2,56.2,511.9,66.4z"/>
</g>
</svg>
