<?xml version="1.0" standalone="no"?>
<!DOCTYPE svg PUBLIC "-//W3C//DTD SVG 1.1//EN" "http://www.w3.org/Graphics/SVG/1.1/DTD/svg11.dtd" >
<svg>
<metadata>
Created by FontForge 20090914 at Thu Apr 23 10:26:54 2015
 By www-data
Copyright \\\(c\\\) 2010 by Ryoichi Tsunekawa. All rights reserved.
</metadata>
<defs>
<font id="BebasNeueLight" horiz-adv-x="772" >
  <font-face 
    font-family="Bebas Neue Light"
    font-weight="300"
    font-stretch="normal"
    units-per-em="2048"
    panose-1="0 0 5 0 0 0 0 0 0 0"
    ascent="1536"
    descent="-512"
    x-height="1434"
    cap-height="1434"
    bbox="0 -309.123 1462 1792"
    underline-thickness="102"
    underline-position="-123"
    unicode-range="U+000D-U+25FC"
  />
<missing-glyph horiz-adv-x="748" 
d="M68 0v1365h544v-1365h-544zM136 68h408v1229h-408v-1229z" />
    <glyph glyph-name=".notdef" horiz-adv-x="748" 
d="M68 0v1365h544v-1365h-544zM136 68h408v1229h-408v-1229z" />
    <glyph glyph-name="glyph1" horiz-adv-x="2048" 
 />
    <glyph glyph-name="glyph1" horiz-adv-x="2048" 
 />
    <glyph glyph-name="uni000D" unicode="&#xd;" horiz-adv-x="2048" 
 />
    <glyph glyph-name="space" unicode=" " horiz-adv-x="317" 
 />
    <glyph glyph-name="exclam" unicode="!" horiz-adv-x="208" 
d="M82 0v164h45v-164h-45zM82 631v805h45v-805l-6 -314h-33z" />
    <glyph glyph-name="quotedbl" unicode="&#x22;" horiz-adv-x="329" 
d="M82 1436h45l-4 -330h-37zM205 1436h43l-4 -330h-35z" />
    <glyph glyph-name="numbersign" unicode="#" horiz-adv-x="849" 
d="M76 473l2 35h149l52 500h-150l2 34h152l39 394h40l-40 -394h280l41 394h41l-41 -394h131l-2 -34h-133l-51 -500h131l-2 -35h-133l-49 -473h-41l51 473h-283l-49 -473h-41l51 473h-147zM266 508h281l53 500h-283z" />
    <glyph glyph-name="dollar" unicode="$" horiz-adv-x="757" 
d="M80 348l-0.000976562 72.002h45v-74c0 -94.667 20.167 -170.167 60.5 -226.5s104.833 -84.5 193.5 -84.5c89.333 0 154.333 28.167 195 84.5s61 131.833 61 226.5c0 48.667 -10.167 93.167 -30.5 133.5s-46.5 74.666 -78.5 102.999s-67.5 55.666 -106.5 81.999l-117.5 80
c-39.333 27 -75 55.5 -107 85.5s-58.167 67 -78.5 111s-30.5 92.667 -30.5 146c0 106 22.333 190.167 67 252.5s114.334 96.5 209.001 102.5v129h39v-129c49.333 -2.66699 92.166 -13.834 128.499 -33.501s65.166 -46 86.499 -79s37 -69.833 47 -110.5
s15 -85.334 15 -134.001v-26h-43v28c0 92.667 -20.167 167.834 -60.5 225.501s-104.166 86.5 -191.499 86.5s-151.166 -28.333 -191.499 -85s-60.5 -131.334 -60.5 -224.001c0 -50 10.167 -95.5 30.5 -136.5s46.5 -75.833 78.5 -104.5s67.5 -56.167 106.5 -82.5l117.5 -80
c39.333 -27 75 -55.5 107 -85.5s58.167 -66.5 78.5 -109.5s30.5 -90.833 30.5 -143.5c0 -66.667 -8.83301 -125.167 -26.5 -175.5s-47.834 -92.166 -90.501 -125.499s-96.667 -51.666 -162 -54.999v-117h-39v117c-97.333 4 -168.666 38.333 -213.999 103s-68 149 -68 253z
" />
    <glyph glyph-name="percent" unicode="%" horiz-adv-x="1222" 
d="M80 780v422c0 68 14.667 124 44 168s76 66 140 66c64.667 0 112 -22 142 -66s45 -100 45 -168v-422c0 -68 -15 -123.833 -45 -167.5s-77.333 -65.5 -142 -65.5c-64 0 -110.667 21.833 -140 65.5s-44 99.5 -44 167.5zM115 778c0 -57.333 11.333 -104.668 34 -142.001
s61 -56 115 -56s92.5 18.667 115.5 56s34.5 84.666 34.5 141.999v424c0 27.333 -2.5 52.333 -7.5 75s-12.833 43.834 -23.5 63.501s-26.167 35 -46.5 46s-44.5 16.5 -72.5 16.5c-36.667 0 -66.667 -10 -90 -30s-39 -44.167 -47 -72.5s-12 -61.166 -12 -98.499v-424z
M309 -0.00195312l565 1436h35l-565 -1436h-35zM772 232.998l0.000976562 416.003c0 43.333 5.5 81.666 16.5 114.999s31 61.5 60 84.5s65.5 34.5 109.5 34.5c33.333 0 62.333 -6.33301 87 -19s44 -30.334 58 -53.001s24.167 -47.334 30.5 -74.001s9.5 -56 9.5 -88v-416
c0 -68.667 -14.667 -125 -44 -169s-76.333 -66 -141 -66s-111.834 22 -141.501 66s-44.5 100.333 -44.5 169zM809.001 231.001c0 -57.333 11.333 -104.666 34 -141.999s61 -56 115 -56s92.5 18.667 115.5 56s34.5 84.666 34.5 141.999v418c0 58 -11.5 105.667 -34.5 143
s-61.5 56 -115.5 56c-99.333 0 -149 -66.333 -149 -199v-418z" />
    <glyph glyph-name="ampersand" unicode="&#x26;" horiz-adv-x="817" 
d="M82 322v130.999c0 69.333 17.167 131.166 51.5 185.499s83.5 91.5 147.5 111.5c-65.333 16 -114.833 50.5 -148.5 103.5s-50.5 114.5 -50.5 184.5v39c0 115.333 29 203.666 87 264.999s144.333 92 259 92h182v-43h-182c-200.667 0 -301 -104 -301 -312v-47
c0 -70.667 19.5 -131.167 58.5 -181.5s92.5 -77.833 160.5 -82.5h266v160h45v-160h86v-41h-86v-532c0 -31.333 0.5 -55.166 1.5 -71.499s4.66699 -36.166 11 -59.499s15.833 -44.666 28.5 -63.999h-49c-23.333 40.667 -35 89 -35 145
c-20.667 -50.667 -53.5 -89.167 -98.5 -115.5s-96.167 -39.5 -153.5 -39.5c-94.667 0 -165 30.167 -211 90.5s-69 140.833 -69 241.5zM127 323.999c0 -88.667 20 -159.667 60 -213s102 -80 186 -80c70 0 127.333 20.833 172 62.5s67 97.167 67 166.5v467h-254
c-72 -6 -128.5 -34 -169.5 -84s-61.5 -112.667 -61.5 -188v-131z" />
    <glyph glyph-name="quotesingle" unicode="'" horiz-adv-x="206" 
d="M82 1436h43l-4 -330h-37z" />
    <glyph glyph-name="parenleft" unicode="(" horiz-adv-x="458" 
d="M84 319v797c0 104 19.167 183.333 57.5 238s106.5 82 204.5 82h37v-41h-35c-44 0 -80.667 -6.66699 -110 -20s-51.833 -33 -67.5 -59s-26.5 -54.833 -32.5 -86.5s-9 -69.5 -9 -113.5v-797c0 -44.667 3 -82.667 9 -114s16.667 -60 32 -86s37.833 -45.5 67.5 -58.5
s66.5 -19.5 110.5 -19.5h35v-41h-37c-98.667 0 -167 27 -205 81s-57 133.333 -57 238z" />
    <glyph glyph-name="parenright" unicode=")" horiz-adv-x="458" 
d="M76 0l-0.00195312 41.001h35c84 0 141.5 23.333 172.5 70s46.5 116 46.5 208v797c0 44 -3.16699 81.833 -9.5 113.5s-17.333 60.5 -33 86.5s-38.167 45.667 -67.5 59s-65.666 20 -108.999 20h-35v41h35c98 0 166.5 -27.333 205.5 -82s58.5 -134 58.5 -238v-797
c0 -50.667 -4 -94.334 -12 -131.001s-21.5 -69.667 -40.5 -99s-46.167 -51.5 -81.5 -66.5s-78.666 -22.5 -129.999 -22.5h-35z" />
    <glyph glyph-name="asterisk" unicode="*" horiz-adv-x="804" 
d="M90 1169l12 39l287 -92l-8 303h41l-6 -303l286 86l13 -39l-293 -71l178 -244l-31 -23l-168 250l-165 -248l-33 21l178 244z" />
    <glyph glyph-name="plus" unicode="+" horiz-adv-x="788" 
d="M78 698v37h299v301h37v-301h297v-37h-297v-305h-37v305h-299z" />
    <glyph glyph-name="comma" unicode="," horiz-adv-x="235" 
d="M86 -137l23 137v166h45v-164l-45 -139h-23z" />
    <glyph glyph-name="hyphen" unicode="-" horiz-adv-x="524" 
d="M80 696v41h364v-41h-364z" />
    <glyph glyph-name="period" unicode="." horiz-adv-x="208" 
d="M82 0v166h45v-166h-45z" />
    <glyph glyph-name="slash" unicode="/" horiz-adv-x="753" 
d="M74 0l565 1434h41l-565 -1434h-41z" />
    <glyph glyph-name="zero" unicode="0" horiz-adv-x="770" 
d="M80 352v729c0 108.667 24.833 196.334 74.5 263.001s126.5 100 230.5 100s180.833 -33.333 230.5 -100s74.5 -154.334 74.5 -263.001v-729c0 -70 -9.83301 -131.333 -29.5 -184s-53 -95.5 -100 -128.5s-105.5 -49.5 -175.5 -49.5s-128.5 16.5 -175.5 49.5
s-80.333 75.833 -100 128.5s-29.5 114 -29.5 184zM125 352c0 -46 4.83105 -87.833 14.498 -125.5s24.334 -71.5 44.001 -101.5s46.667 -53.167 81 -69.5s74.5 -24.5 120.5 -24.5s86.167 8.16699 120.5 24.5s61.333 39.5 81 69.5s34.334 63.833 44.001 101.5
s14.5 79.5 14.5 125.5v731c0 95.333 -21 172.5 -63 231.5s-107.667 88.5 -197 88.5s-155 -29.5 -197 -88.5s-63 -136.167 -63 -231.5v-731z" />
    <glyph glyph-name="one" unicode="1" horiz-adv-x="487" 
d="M98 1188l-0.000976562 41c116.667 11.333 197.334 80.333 242.001 207h43v-1436h-45v1348c-47.333 -94.667 -127.333 -148 -240 -160z" />
    <glyph glyph-name="two" unicode="2" horiz-adv-x="757" 
d="M82 0l0.000976562 31c0 72.667 10.167 141.334 30.5 206.001s46.833 121.167 79.5 169.5s68.5 94.666 107.5 138.999s78.167 86.666 117.5 126.999s75.333 80.5 108 120.5s59.167 84 79.5 132s30.5 98 30.5 150c0 218.667 -85.333 328 -256 328
c-46.667 0 -87 -8.83301 -121 -26.5s-60.333 -42.167 -79 -73.5s-32.334 -65.833 -41.001 -103.5s-13 -79.167 -13 -124.5v-78h-43v76c0 52 5.33301 99.5 16 142.5s27.334 82 50.001 117s53.834 62.333 93.501 82s86.167 29.5 139.5 29.5c44 0 83.167 -6.33301 117.5 -19
s62.666 -29.834 84.999 -51.501s40.833 -48.167 55.5 -79.5s25.167 -64.833 31.5 -100.5s9.5 -74.5 9.5 -116.5c0 -54 -10 -106 -30 -156s-46.167 -95.5 -78.5 -136.5s-67.833 -81.833 -106.5 -122.5l-117 -126c-39.333 -43.333 -75.333 -88.166 -108 -134.499
s-59.334 -99.666 -80.001 -159.999s-31.667 -123.833 -33 -190.5v-8h545v-43h-590z" />
    <glyph glyph-name="three" unicode="3" horiz-adv-x="759" 
d="M80 352l0.000976562 67.999h45v-68c0 -46 4.5 -87.667 13.5 -125s23 -71 42 -101s45.333 -53.333 79 -70s73.5 -25 119.5 -25s86 8.33301 120 25s60.667 40 80 70s33.5 63.833 42.5 101.5s13.5 79.834 13.5 126.501v109c0 78.667 -20.667 141.334 -62 188.001
s-100 72 -176 76h-104v41h106c71.333 6 128.5 34.333 171.5 85s64.5 113 64.5 187v41c0 46.667 -4.5 88.667 -13.5 126s-23.167 71 -42.5 101s-46 53.333 -80 70s-74 25 -120 25s-85.833 -8.33301 -119.5 -25s-60 -39.834 -79 -69.501s-33 -63.167 -42 -100.5
s-13.5 -79 -13.5 -125v-43h-45v41c0 108.667 24.333 196.334 73 263.001s124.667 100 228 100c53.333 0 99.666 -9.33301 138.999 -28s70.333 -44.834 93 -78.501s39.5 -71.834 50.5 -114.501s16.5 -90 16.5 -142v-34c0 -69.333 -18.333 -131.166 -55 -185.499
s-86.667 -91.5 -150 -111.5c66.667 -17.333 117.5 -51.5 152.5 -102.5s52.5 -112.5 52.5 -184.5v-111c0 -108.667 -24 -196.167 -72 -262.5s-123.667 -99.5 -227 -99.5s-179.333 33.167 -228 99.5s-73 153.833 -73 262.5z" />
    <glyph glyph-name="four" unicode="4" horiz-adv-x="831" 
d="M76 338v45l499 1053h56v-1055h125v-43h-125v-338h-45v338h-510zM119 381h467v975z" />
    <glyph glyph-name="five" unicode="5" horiz-adv-x="759" 
d="M80 352l-0.00195312 62.001h45v-62c0 -95.333 20.333 -172.333 61 -231s105 -88 193 -88c46 0 86 8.33301 120 25s60.667 40 80 70s33.5 63.5 42.5 100.5s13.5 78.167 13.5 123.5v215c0 44.667 -4.5 85.5 -13.5 122.5s-23.167 70.5 -42.5 100.5s-46 53.333 -80 70
s-74 25 -120 25c-58 0 -107.167 -14.833 -147.5 -44.5s-70.5 -72.167 -90.5 -127.5v-17h-43l37 740h518v-43h-477l-29 -592c52.667 84.667 134 127 244 127c51.333 0 96 -9.33301 134 -28s68 -44.834 90 -78.501s38.333 -71.5 49 -113.5s16 -88.333 16 -139v-217
c0 -51.333 -5.5 -98.333 -16.5 -141s-28 -80.834 -51 -114.501s-54.167 -59.834 -93.5 -78.501s-85.333 -28 -138 -28s-98.667 9.33301 -138 28s-70.666 44.834 -93.999 78.501s-40.666 71.834 -51.999 114.501s-17 89.667 -17 141z" />
    <glyph glyph-name="six" unicode="6" 
d="M80 352l-0.000976562 729.002c0 109.333 25 197.166 75 263.499s127.333 99.5 232 99.5c70 0 127.833 -15.833 173.5 -47.5s78 -73.167 97 -124.5s28.5 -112 28.5 -182v-11h-43v13c0 94.667 -20.333 170.167 -61 226.5s-105.667 84.5 -195 84.5
c-62 0 -113 -14.833 -153 -44.5s-68.167 -67.834 -84.5 -114.501s-24.5 -101.667 -24.5 -165v-395c28.667 60.667 63.834 104.167 105.501 130.5s97.167 39.5 166.5 39.5c100.667 0 175 -32.833 223 -98.5s72 -152.167 72 -259.5v-144c0 -70 -9.83301 -131.333 -29.5 -184
s-53 -95.5 -100 -128.5s-105.5 -49.5 -175.5 -49.5c-104.667 0 -182 33.333 -232 100s-75 154 -75 262zM124.999 352.002c0 -46 4.66699 -87.667 14 -125s24 -70.833 44 -100.5s47.333 -52.667 82 -69s75.334 -24.5 122.001 -24.5c90 0 155.833 29.167 197.5 87.5
s62.5 135.5 62.5 231.5v142c0 94.667 -21 171.167 -63 229.5s-107.667 87.5 -197 87.5c-46.667 0 -87.334 -8.5 -122.001 -25.5s-62 -40.5 -82 -70.5s-34.667 -63.333 -44 -100s-14 -77 -14 -121v-142z" />
    <glyph glyph-name="seven" unicode="7" horiz-adv-x="759" 
d="M80 1393v43h600v-43l-428 -1393h-47l428 1393h-553z" />
    <glyph glyph-name="eight" unicode="8" horiz-adv-x="788" 
d="M78 342l-0.00195312 96.001c0 84.667 16.333 153.5 49 206.5s87.334 88.167 164.001 105.5c-142 32 -213 133.667 -213 305v47c0 105.333 26.833 188.666 80.5 249.999s131.834 92 234.501 92c104 0 182.667 -30.5 236 -91.5s80 -144.5 80 -250.5v-47
c0 -80 -16.667 -146.833 -50 -200.5s-85.666 -88.5 -156.999 -104.5c138 -31.333 207 -135.333 207 -312v-96c0 -107.333 -26.5 -192.833 -79.5 -256.5s-131.833 -95.5 -236.5 -95.5s-183.334 31.833 -236.001 95.5s-79 149.167 -79 256.5zM122.998 342.001
c0 -95.333 22.5 -171 67.5 -227s112.5 -84 202.5 -84c90.667 0 158.5 28 203.5 84s67.5 131.667 67.5 227v100c0 190 -90.333 285 -271 285c-180 0 -270 -95 -270 -285v-100zM122.998 1051c0 -92 22.6689 -162.167 68.002 -210.5s112.666 -72.5 201.999 -72.5
c90 0 157.667 24.167 203 72.5s68 118.5 68 210.5v51c0 92.667 -23 166 -69 220s-113.333 81 -202 81s-155.834 -27 -201.501 -81s-68.5 -127.333 -68.5 -220v-51z" />
    <glyph glyph-name="nine" unicode="9" 
d="M80 348l-0.00292969 10.0039h43v-12c0 -94.667 21.167 -170.834 63.5 -228.501s108.5 -86.5 198.5 -86.5s155.833 29.667 197.5 89s62.5 138 62.5 236v400c-38.667 -116 -128.667 -174 -270 -174c-100.667 0 -175 32.833 -223 98.5s-72 152.167 -72 259.5v141
c0 52 5.83301 99.667 17.5 143s29.167 81.833 52.5 115.5s55 59.834 95 78.501s86.667 28 140 28s100 -9.33301 140 -28s71.667 -44.834 95 -78.501s40.833 -72.167 52.5 -115.5s17.5 -91 17.5 -143v-727c0 -52.667 -5.66699 -100.334 -17 -143.001
s-28.666 -80.834 -51.999 -114.501s-55.166 -59.834 -95.499 -78.501s-87.166 -28 -140.499 -28c-103.333 0 -180 32.667 -230 98s-75 152 -75 260zM124.997 942.004c0 -95.333 21 -172.333 63 -231s107.667 -88 197 -88s155 29.333 197 88s63 135.667 63 231v141
c0 95.333 -21 172.5 -63 231.5s-107.667 88.5 -197 88.5s-155 -29.5 -197 -88.5s-63 -136.167 -63 -231.5v-141z" />
    <glyph glyph-name="colon" unicode=":" horiz-adv-x="208" 
d="M82 0v166h45v-166h-45zM82 780v166h45v-166h-45z" />
    <glyph glyph-name="semicolon" unicode=";" horiz-adv-x="235" 
d="M86 -137l23 137v166h45v-164l-45 -139h-23zM109 780v166h45v-166h-45z" />
    <glyph glyph-name="less" unicode="&#x3c;" horiz-adv-x="739" 
d="M80 698v37l577 285v-41l-530 -262l530 -262v-41z" />
    <glyph glyph-name="equal" unicode="=" horiz-adv-x="555" 
d="M80 629v35h395v-35h-395zM80 848v35h395v-35h-395z" />
    <glyph glyph-name="greater" unicode="&#x3e;" horiz-adv-x="739" 
d="M82 414v41l530 262l-530 262v41l577 -285v-37z" />
    <glyph glyph-name="question" unicode="?" horiz-adv-x="745" 
d="M78 997l-0.00292969 75.998c0 40.667 3.16699 78.834 9.5 114.501s16.666 69.334 30.999 101.001s32.666 58.834 54.999 81.501s50.5 40.667 84.5 54s72.333 20 115 20c54.667 0 101.5 -9.5 140.5 -28.5s69.5 -45.833 91.5 -80.5s38 -73.167 48 -115.5
s15 -89.833 15 -142.5c0 -40.667 -5.66699 -79.5 -17 -116.5s-26.166 -70 -44.499 -99s-38.666 -57.5 -60.999 -85.5l-67 -83.5c-22.333 -27.667 -42.666 -55.834 -60.999 -84.501s-33.166 -61.334 -44.499 -98.001s-17 -75 -17 -115c0 -20.667 3.66699 -45 11 -73h-41
c-7.33301 30.667 -11 55.667 -11 75c0 48.667 7.66699 94.834 23 138.501s34.333 81 57 112l74 98l74 96.5c22.667 30 41.667 65.667 57 107s23 84.666 23 129.999c0 216 -83.333 324 -250 324c-37.333 0 -70.666 -6 -99.999 -18s-53.333 -28.167 -72 -48.5
s-34.167 -44.666 -46.5 -72.999s-21 -58 -26 -89s-7.5 -64.167 -7.5 -99.5v-78h-43zM321.997 -0.00195312v164h45v-164h-45z" />
    <glyph glyph-name="at" unicode="@" horiz-adv-x="1409" 
d="M78 582c0 94.667 8.16895 185.002 24.502 271.002s43.166 167.833 80.499 245.5s83.166 145 137.499 202s122.333 102.333 204 136s172.5 50.5 272.5 50.5c181.333 0 316 -49.833 404 -149.5s132 -239.5 132 -419.5c0 -50.667 -3.33301 -102.334 -10 -155.001
s-18.334 -106.834 -35.001 -162.501s-37.334 -105 -62.001 -148s-56.667 -78.167 -96 -105.5s-83 -41.333 -131 -42c-40.667 0 -71.667 13.833 -93 41.5s-32.666 62.5 -33.999 104.5c-45.333 -112 -121.666 -168 -228.999 -168c-42 0.666992 -77.667 10 -107 28
s-50.666 41.833 -63.999 71.5s-22.833 63 -28.5 100s-5.5 74.833 0.5 113.5l21 201c8.66699 86.667 34.834 157.167 78.501 211.5s104.834 81.5 183.501 81.5c103.333 -2 167.666 -52.667 192.999 -152l14 139h43l-62 -581c-3.33301 -40.667 2 -75.834 16 -105.501
s39.667 -44.5 77 -44.5c44 0.666992 83.5 14.834 118.5 42.501s62.667 62.167 83 103.5s37.166 88.5 50.499 141.5s22.5 102.667 27.5 149s7.16699 90.5 6.5 132.5c0 170.667 -41 302.167 -123 394.5s-207.333 138.5 -376 138.5c-94.667 0 -180.334 -16 -257.001 -48
s-140.667 -75.167 -192 -129.5s-94.333 -118.833 -129 -193.5s-59.667 -153.334 -75 -236.001s-23 -169.667 -23 -261c0 -203.333 48.333 -358.666 145 -465.999s245 -161 445 -161c150 0 272 37.667 366 113l-2 -48c-101.333 -69.333 -223.333 -104 -366 -104
c-212 0 -369.833 57.5 -473.5 172.5s-155.5 280.167 -155.5 495.5zM485.002 496.502c4.66699 -31.667 12.333 -60.333 23 -86s28.667 -46.5 54 -62.5s56.333 -24 93 -24s69.334 7.66699 98.001 23s51.667 36.166 69 62.499s31 55 41 86s16.667 64.5 20 100.5l22 199
c4.66699 32 4.66699 63.167 0 93.5s-12.834 57.333 -24.501 81s-30 42.5 -55 56.5s-55.167 21 -90.5 21c-48 0 -88.667 -12.167 -122 -36.5s-58 -54.666 -74 -90.999s-27 -78.5 -33 -126.5l-21 -201c-4.66699 -32 -4.66699 -63.833 0 -95.5z" />
    <glyph glyph-name="A" unicode="A" horiz-adv-x="915" 
d="M76 0l346 1436h63l355 -1436h-45l-84 338h-510l-84 -338h-41zM209 379h493l-249 1003z" />
    <glyph glyph-name="B" unicode="B" horiz-adv-x="751" 
d="M82 0l-0.000976562 1434h287c100.667 0 171.834 -24.333 213.501 -73s62.5 -123.334 62.5 -224.001v-93c0 -84.667 -14.833 -149.5 -44.5 -194.5s-83.167 -73.5 -160.5 -85.5c156 -22.667 234 -125 234 -307v-127c0 -220 -101 -330 -303 -330h-289zM126.999 43.001
l243.999 0.000976562c90.667 0 156.334 24.333 197.001 73s61 120 61 214v129c0 101.333 -23.833 173.666 -71.5 216.999s-122.167 65 -223.5 65h-207v-698zM126.998 782.002h186.001c104.667 0 178.667 17.5 222 52.5s65 102.833 65 203.5v97
c0 88 -16.833 152.667 -50.5 194s-93.834 62 -180.501 62h-242v-609z" />
    <glyph glyph-name="C" unicode="C" horiz-adv-x="757" 
d="M80 352v728.999c0 51.333 5.5 98.333 16.5 141s28 80.834 51 114.501s54.167 60 93.5 79s85.333 28.5 138 28.5c53.333 0 99.666 -9.5 138.999 -28.5s70.666 -45.333 93.999 -79s40.5 -71.834 51.5 -114.501s16.5 -89.667 16.5 -141v-110h-45v112
c0 95.333 -20.333 172.5 -61 231.5s-105 88.5 -193 88.5c-46 0 -86 -8.33301 -120 -25s-60.667 -40 -80 -70s-33.5 -63.667 -42.5 -101s-13.5 -78.666 -13.5 -123.999v-733c0 -45.333 4.5 -86.5 13.5 -123.5s23.167 -70.333 42.5 -100s46 -52.667 80 -69s74 -24.5 120 -24.5
c45.333 0 84.833 8.16699 118.5 24.5s60.167 39.333 79.5 69s33.5 63 42.5 100s13.5 78.167 13.5 123.5v158h45v-156c0 -51.333 -5.5 -98.333 -16.5 -141s-28.167 -80.834 -51.5 -114.501s-54.666 -59.834 -93.999 -78.501s-85.666 -28 -138.999 -28
c-52.667 0 -98.667 9.33301 -138 28s-70.5 44.834 -93.5 78.501s-40 71.834 -51 114.501s-16.5 89.667 -16.5 141z" />
    <glyph glyph-name="D" unicode="D" horiz-adv-x="770" 
d="M82 0v1434h299c104.667 0 182.667 -32.667 234 -98s77 -152.333 77 -261v-719c0 -107.333 -25.5 -193.5 -76.5 -258.5s-128.5 -97.5 -232.5 -97.5h-301zM127 43h254c92 0 159.333 28 202 84s64 131.667 64 227v723c0 96 -21.667 172.333 -65 229s-110.333 85 -201 85
h-254v-1348z" />
    <glyph glyph-name="E" unicode="E" horiz-adv-x="706" 
d="M82 0v1434h547v-43h-502v-643h422v-41h-422v-664h502v-43h-547z" />
    <glyph glyph-name="F" unicode="F" horiz-adv-x="681" 
d="M82 0v1434h526v-43h-481v-678h401v-43h-401v-670h-45z" />
    <glyph glyph-name="G" unicode="G" horiz-adv-x="759" 
d="M80 352v728.999c0 51.333 5.5 98.333 16.5 141s28 80.834 51 114.501s54.167 60 93.5 79s85.333 28.5 138 28.5c53.333 0 99.666 -9.5 138.999 -28.5s70.666 -45.333 93.999 -79s40.5 -71.834 51.5 -114.501s16.5 -89.667 16.5 -141v-94h-45v96
c0 95.333 -20.333 172.5 -61 231.5s-105 88.5 -193 88.5c-46 0 -86 -8.33301 -120 -25s-60.667 -40 -80 -70s-33.5 -63.667 -42.5 -101s-13.5 -78.666 -13.5 -123.999v-733c0 -45.333 4.5 -86.5 13.5 -123.5s23.167 -70.333 42.5 -100s46 -52.667 80 -69s74 -24.5 120 -24.5
c45.333 0 84.833 8.16699 118.5 24.5s60.167 39.333 79.5 69s33.5 63 42.5 100s13.5 78.167 13.5 123.5v326h-223v41h268v-365c0 -51.333 -5.5 -98.333 -16.5 -141s-28.167 -80.834 -51.5 -114.501s-54.666 -59.834 -93.999 -78.501s-85.666 -28 -138.999 -28
c-52.667 0 -98.667 9.33301 -138 28s-70.5 44.834 -93.5 78.501s-40 71.834 -51 114.501s-16.5 89.667 -16.5 141z" />
    <glyph glyph-name="H" unicode="H" 
d="M82 0v1434h45v-697h518v697h45v-1434h-45v696h-518v-696h-45z" />
    <glyph glyph-name="I" unicode="I" horiz-adv-x="208" 
d="M82 0v1434h45v-1434h-45z" />
    <glyph glyph-name="J" unicode="J" horiz-adv-x="516" 
d="M74 0l-0.000976562 43c7.33301 -0.666992 15.333 -1 24 -1c17.333 0 38 1 62 3c80.667 7.33301 139.334 34.666 176.001 81.999s55 121 55 221v1086h45v-1084c0 -115.333 -22.833 -200.666 -68.5 -255.999s-113.5 -86 -203.5 -92c-26 -2 -48 -3 -66 -3
c-8.66699 0 -16.667 0.333008 -24 1z" />
    <glyph glyph-name="K" unicode="K" horiz-adv-x="821" 
d="M82 0v1434h45v-809l532 809h50l-445 -678l481 -756h-49l-460 713l-109 -164v-549h-45z" />
    <glyph glyph-name="L" unicode="L" horiz-adv-x="681" 
d="M82 0v1434h45v-1391h481v-43h-526z" />
    <glyph glyph-name="M" unicode="M" horiz-adv-x="1007" 
d="M82 0v1434h70l352 -1360l352 1360h70v-1434h-45v1366l-353 -1362h-51l-354 1362v-1366h-41z" />
    <glyph glyph-name="N" unicode="N" horiz-adv-x="774" 
d="M82 0v1434h63l504 -1342v1342h43v-1434h-55l-512 1368v-1368h-43z" />
    <glyph glyph-name="O" unicode="O" horiz-adv-x="770" 
d="M80 352v729c0 119.333 25.667 209.666 77 270.999s126.666 92 225.999 92c101.333 0 177.833 -30.667 229.5 -92s77.5 -151.666 77.5 -270.999v-729c0 -119.333 -25.833 -209.5 -77.5 -270.5s-128.167 -91.5 -229.5 -91.5c-99.333 0 -174.666 30.667 -225.999 92
s-77 151.333 -77 270zM125 350c0 -212.667 85.999 -319 257.999 -319c86 0 151.167 26.833 195.5 80.5s66.5 133.167 66.5 238.5v733c0 105.333 -22.167 185 -66.5 239s-109.5 81 -195.5 81c-85.333 0 -149.666 -27 -192.999 -81s-65 -133.667 -65 -239v-733z" />
    <glyph glyph-name="P" unicode="P" horiz-adv-x="737" 
d="M82 0l0.000976562 1434h283c198 0 297 -115.667 297 -347v-143c0 -114 -26.833 -198.5 -80.5 -253.5s-136.834 -82.5 -249.501 -82.5h-205v-608h-45zM127.001 651h205c100 0 172.333 23 217 69s67 120 67 222v148c0 95.333 -19 169.333 -57 222s-102.667 79 -194 79h-238
v-740z" />
    <glyph glyph-name="Q" unicode="Q" horiz-adv-x="843" 
d="M80 352v729c0 52 5.83301 99.333 17.5 142s29.167 80.834 52.5 114.501s55 59.834 95 78.501s86.667 28 140 28s100 -9.33301 140 -28s72 -44.834 96 -78.501s41.833 -71.834 53.5 -114.501s17.5 -90 17.5 -142v-729c0 -111.333 -26 -199.333 -78 -264
c27.333 -45.333 71 -68 131 -68h23v-40h-23c-73.333 0 -126.333 26.333 -159 79c-50 -46 -117 -69 -201 -69c-70 0 -128.5 16.5 -175.5 49.5s-80.333 75.833 -100 128.5s-29.5 114 -29.5 184zM125 350c0 -95.333 20.999 -172.333 62.999 -231s107.667 -88 197 -88
c60.667 0 111.167 14.667 151.5 44s68.833 67.166 85.5 113.499s25 100.166 25 161.499v733c0 45.333 -4.83301 86.833 -14.5 124.5s-24.667 71.334 -45 101.001s-47.666 52.834 -81.999 69.501s-74.5 25 -120.5 25c-89.333 0 -155 -29.5 -197 -88.5
s-63 -136.167 -63 -231.5v-733z" />
    <glyph glyph-name="R" unicode="R" horiz-adv-x="778" 
d="M82 0l0.000976562 1434h285c196.667 0 295 -107.333 295 -322v-129c0 -88.667 -18.333 -157.334 -55 -206.001s-94.334 -80.334 -173.001 -95.001c152 -24 228 -119.667 228 -287v-225c0 -78.667 12.667 -135.334 38 -170.001h-49c-23.333 36 -35 92.667 -35 170v225
c0 99.333 -26.833 168.666 -80.5 207.999s-131.167 59 -232.5 59h-176v-662h-45zM127.001 705.004l176.002 -0.000976562c52.667 0 97.167 3.83301 133.5 11.5s68.666 21.334 96.999 41.001s49.166 47.667 62.499 84s20 81.5 20 135.5v131c0 91.333 -19.667 161.333 -59 210
s-103.333 73 -192 73h-238v-686z" />
    <glyph glyph-name="S" unicode="S" horiz-adv-x="755" 
d="M78 346v69.9961h43v-72c0 -94 20.5 -169.333 61.5 -226s105.833 -85 194.5 -85s153.5 28.333 194.5 85s61.5 132 61.5 226c0 48.667 -10.167 93.334 -30.5 134.001s-46.5 75.334 -78.5 104.001s-67.5 56.167 -106.5 82.5l-117.5 80.5c-39.333 27.333 -75 56.333 -107 87
s-58.167 68 -78.5 112s-30.5 92.667 -30.5 146c0 109.333 24.167 195.5 72.5 258.5s122.5 94.833 222.5 95.5c52.667 0 98.5 -9.16699 137.5 -27.5s69.833 -44.166 92.5 -77.499s39.5 -70.833 50.5 -112.5s16.5 -88.167 16.5 -139.5v-26h-45v29
c0 44.667 -4.5 85.167 -13.5 121.5s-22.833 69.166 -41.5 98.499s-44.667 52.166 -78 68.499s-72.333 24.5 -117 24.5c-88 0 -152 -28.5 -192 -85.5s-60 -132.167 -60 -225.5c0 -49.333 10.167 -94.5 30.5 -135.5s46.5 -76.167 78.5 -105.5s67.5 -57.166 106.5 -83.499
l117.5 -80.5c39.333 -27.333 75 -56.166 107 -86.499s58.167 -67.166 78.5 -110.499s30.5 -91.333 30.5 -144c0 -107.333 -24.333 -193.5 -73 -258.5s-124.667 -97.5 -228 -97.5c-102.667 0 -178.167 32.5 -226.5 97.5s-72.5 151.167 -72.5 258.5z" />
    <glyph glyph-name="T" unicode="T" horiz-adv-x="765" 
d="M45 1391v43h672v-43h-314v-1391h-45v1391h-313z" />
    <glyph glyph-name="U" unicode="U" horiz-adv-x="751" 
d="M80 354l0.000976562 1080h45v-1082c0 -45.333 4.33301 -86.5 13 -123.5s22.5 -70.667 41.5 -101s45.167 -54 78.5 -71s73 -25.5 119 -25.5s85.667 8.5 119 25.5s59.5 40.667 78.5 71s32.833 64 41.5 101s13 78.167 13 123.5v1082h43v-1080
c0 -40.667 -3.16699 -78.5 -9.5 -113.5s-17 -68.167 -32 -99.5s-33.667 -58 -56 -80s-50.333 -39.333 -84 -52s-71.5 -19 -113.5 -19c-52.667 0 -98.667 9.5 -138 28.5s-70.333 45.667 -93 80s-39.334 72.666 -50.001 114.999s-16 89.166 -16 140.499z" />
    <glyph glyph-name="V" unicode="V" horiz-adv-x="913" 
d="M76 1434h47l336 -1383l336 1383h43l-344 -1434h-68z" />
    <glyph glyph-name="W" unicode="W" horiz-adv-x="1265" 
d="M76 1434h45l250 -1373l247 1364h56l233 -1355l242 1364h41l-254 -1434h-59l-232 1327l-246 -1327h-65z" />
    <glyph glyph-name="X" unicode="X" horiz-adv-x="909" 
d="M76 0l350 745l-326 689h47l310 -650l309 650h45l-326 -689l349 -745h-50l-331 705l-330 -705h-47z" />
    <glyph glyph-name="Y" unicode="Y" horiz-adv-x="864" 
d="M74 1434h45l313 -793l313 793h48l-340 -854v-580h-45v580z" />
    <glyph glyph-name="Z" unicode="Z" horiz-adv-x="808" 
d="M78 0v43l602 1348h-574v43h623v-45l-604 -1346h594v-43h-641z" />
    <glyph glyph-name="bracketleft" unicode="[" horiz-adv-x="460" 
d="M84 0v1436h301v-41h-256v-1354h256v-41h-301z" />
    <glyph glyph-name="backslash" unicode="\" horiz-adv-x="753" 
d="M74 1434h41l565 -1434h-41z" />
    <glyph glyph-name="bracketright" unicode="]" horiz-adv-x="460" 
d="M78 0v41h256v1354h-256v41h301v-1436h-301z" />
    <glyph glyph-name="asciicircum" unicode="^" horiz-adv-x="847" 
d="M78 801l325 633h41l326 -633h-43l-303 588l-303 -588h-43z" />
    <glyph glyph-name="underscore" unicode="_" horiz-adv-x="1060" 
d="M72 -20h899v-37h-899v37z" />
    <glyph glyph-name="grave" unicode="`" horiz-adv-x="362" 
d="M82 1737h53l150 -183h-43z" />
    <glyph glyph-name="a" unicode="a" horiz-adv-x="915" 
d="M76 0l346 1436h63l355 -1436h-45l-84 338h-510l-84 -338h-41zM209 379h493l-249 1003z" />
    <glyph glyph-name="b" unicode="b" horiz-adv-x="751" 
d="M82 0l-0.000976562 1434h287c100.667 0 171.834 -24.333 213.501 -73s62.5 -123.334 62.5 -224.001v-93c0 -84.667 -14.833 -149.5 -44.5 -194.5s-83.167 -73.5 -160.5 -85.5c156 -22.667 234 -125 234 -307v-127c0 -220 -101 -330 -303 -330h-289zM126.999 43.001
l243.999 0.000976562c90.667 0 156.334 24.333 197.001 73s61 120 61 214v129c0 101.333 -23.833 173.666 -71.5 216.999s-122.167 65 -223.5 65h-207v-698zM126.998 782.002h186.001c104.667 0 178.667 17.5 222 52.5s65 102.833 65 203.5v97
c0 88 -16.833 152.667 -50.5 194s-93.834 62 -180.501 62h-242v-609z" />
    <glyph glyph-name="c" unicode="c" horiz-adv-x="757" 
d="M80 352v728.999c0 51.333 5.5 98.333 16.5 141s28 80.834 51 114.501s54.167 60 93.5 79s85.333 28.5 138 28.5c53.333 0 99.666 -9.5 138.999 -28.5s70.666 -45.333 93.999 -79s40.5 -71.834 51.5 -114.501s16.5 -89.667 16.5 -141v-110h-45v112
c0 95.333 -20.333 172.5 -61 231.5s-105 88.5 -193 88.5c-46 0 -86 -8.33301 -120 -25s-60.667 -40 -80 -70s-33.5 -63.667 -42.5 -101s-13.5 -78.666 -13.5 -123.999v-733c0 -45.333 4.5 -86.5 13.5 -123.5s23.167 -70.333 42.5 -100s46 -52.667 80 -69s74 -24.5 120 -24.5
c45.333 0 84.833 8.16699 118.5 24.5s60.167 39.333 79.5 69s33.5 63 42.5 100s13.5 78.167 13.5 123.5v158h45v-156c0 -51.333 -5.5 -98.333 -16.5 -141s-28.167 -80.834 -51.5 -114.501s-54.666 -59.834 -93.999 -78.501s-85.666 -28 -138.999 -28
c-52.667 0 -98.667 9.33301 -138 28s-70.5 44.834 -93.5 78.501s-40 71.834 -51 114.501s-16.5 89.667 -16.5 141z" />
    <glyph glyph-name="d" unicode="d" horiz-adv-x="770" 
d="M82 0v1434h299c104.667 0 182.667 -32.667 234 -98s77 -152.333 77 -261v-719c0 -107.333 -25.5 -193.5 -76.5 -258.5s-128.5 -97.5 -232.5 -97.5h-301zM127 43h254c92 0 159.333 28 202 84s64 131.667 64 227v723c0 96 -21.667 172.333 -65 229s-110.333 85 -201 85
h-254v-1348z" />
    <glyph glyph-name="e" unicode="e" horiz-adv-x="706" 
d="M82 0v1434h547v-43h-502v-643h422v-41h-422v-664h502v-43h-547z" />
    <glyph glyph-name="f" unicode="f" horiz-adv-x="681" 
d="M82 0v1434h526v-43h-481v-678h401v-43h-401v-670h-45z" />
    <glyph glyph-name="g" unicode="g" horiz-adv-x="759" 
d="M80 352v728.999c0 51.333 5.5 98.333 16.5 141s28 80.834 51 114.501s54.167 60 93.5 79s85.333 28.5 138 28.5c53.333 0 99.666 -9.5 138.999 -28.5s70.666 -45.333 93.999 -79s40.5 -71.834 51.5 -114.501s16.5 -89.667 16.5 -141v-94h-45v96
c0 95.333 -20.333 172.5 -61 231.5s-105 88.5 -193 88.5c-46 0 -86 -8.33301 -120 -25s-60.667 -40 -80 -70s-33.5 -63.667 -42.5 -101s-13.5 -78.666 -13.5 -123.999v-733c0 -45.333 4.5 -86.5 13.5 -123.5s23.167 -70.333 42.5 -100s46 -52.667 80 -69s74 -24.5 120 -24.5
c45.333 0 84.833 8.16699 118.5 24.5s60.167 39.333 79.5 69s33.5 63 42.5 100s13.5 78.167 13.5 123.5v326h-223v41h268v-365c0 -51.333 -5.5 -98.333 -16.5 -141s-28.167 -80.834 -51.5 -114.501s-54.666 -59.834 -93.999 -78.501s-85.666 -28 -138.999 -28
c-52.667 0 -98.667 9.33301 -138 28s-70.5 44.834 -93.5 78.501s-40 71.834 -51 114.501s-16.5 89.667 -16.5 141z" />
    <glyph glyph-name="h" unicode="h" 
d="M82 0v1434h45v-697h518v697h45v-1434h-45v696h-518v-696h-45z" />
    <glyph glyph-name="i" unicode="i" horiz-adv-x="208" 
d="M82 0v1434h45v-1434h-45z" />
    <glyph glyph-name="j" unicode="j" horiz-adv-x="516" 
d="M74 0l-0.000976562 43c7.33301 -0.666992 15.333 -1 24 -1c17.333 0 38 1 62 3c80.667 7.33301 139.334 34.666 176.001 81.999s55 121 55 221v1086h45v-1084c0 -115.333 -22.833 -200.666 -68.5 -255.999s-113.5 -86 -203.5 -92c-26 -2 -48 -3 -66 -3
c-8.66699 0 -16.667 0.333008 -24 1z" />
    <glyph glyph-name="k" unicode="k" horiz-adv-x="821" 
d="M82 0v1434h45v-809l532 809h50l-445 -678l481 -756h-49l-460 713l-109 -164v-549h-45z" />
    <glyph glyph-name="l" unicode="l" horiz-adv-x="681" 
d="M82 0v1434h45v-1391h481v-43h-526z" />
    <glyph glyph-name="m" unicode="m" horiz-adv-x="1007" 
d="M82 0v1434h70l352 -1360l352 1360h70v-1434h-45v1366l-353 -1362h-51l-354 1362v-1366h-41z" />
    <glyph glyph-name="n" unicode="n" horiz-adv-x="774" 
d="M82 0v1434h63l504 -1342v1342h43v-1434h-55l-512 1368v-1368h-43z" />
    <glyph glyph-name="o" unicode="o" horiz-adv-x="770" 
d="M80 352v729.002c0 108 24.833 195.5 74.5 262.5s125.834 100.5 228.501 100.5c53.333 0 100.166 -9.33301 140.499 -28s72.333 -44.834 96 -78.501s41.334 -71.834 53.001 -114.501s17.5 -90 17.5 -142v-729c0 -108 -25 -195.333 -75 -262s-127.333 -100 -232 -100
c-102.667 0 -178.834 33.333 -228.501 100s-74.5 154 -74.5 262zM125 350.002c0 -96 20.667 -173.167 62 -231.5s106.666 -87.5 195.999 -87.5c90.667 0 157 29.167 199 87.5s63 135.5 63 231.5v733c0 96 -21 173.333 -63 232s-108.333 88 -199 88
c-89.333 0 -154.666 -29.333 -195.999 -88s-62 -136 -62 -232v-733z" />
    <glyph glyph-name="p" unicode="p" horiz-adv-x="735" 
d="M82 0l0.000976562 1434h283c198 0 297 -115.667 297 -347v-143c0 -114 -26.833 -198.5 -80.5 -253.5s-136.834 -82.5 -249.501 -82.5h-205v-608h-45zM127.001 651h205c100 0 172.333 23 217 69s67 120 67 222v148c0 95.333 -19 169.333 -57 222s-102.667 79 -194 79h-238
v-740z" />
    <glyph glyph-name="q" unicode="q" horiz-adv-x="790" 
d="M80 352v729c0 52 5.83301 99.333 17.5 142s29.167 80.834 52.5 114.501s55 59.834 95 78.501s86.667 28 140 28s100 -9.33301 140 -28s72 -44.834 96 -78.501s41.833 -71.834 53.5 -114.501s17.5 -90 17.5 -142v-729c0 -111.333 -26 -199.333 -78 -264
c27.333 -45.333 71 -68 131 -68h23v-40h-23c-73.333 0 -126.333 26.333 -159 79c-50 -46 -117 -69 -201 -69c-70 0 -128.5 16.5 -175.5 49.5s-80.333 75.833 -100 128.5s-29.5 114 -29.5 184zM125 350c0 -95.333 20.999 -172.333 62.999 -231s107.667 -88 197 -88
c60.667 0 111.167 14.667 151.5 44s68.833 67.166 85.5 113.499s25 100.166 25 161.499v733c0 45.333 -4.83301 86.833 -14.5 124.5s-24.667 71.334 -45 101.001s-47.666 52.834 -81.999 69.501s-74.5 25 -120.5 25c-89.333 0 -155 -29.5 -197 -88.5
s-63 -136.167 -63 -231.5v-733z" />
    <glyph glyph-name="r" unicode="r" horiz-adv-x="778" 
d="M82 0l0.000976562 1434h285c196.667 0 295 -107.333 295 -322v-129c0 -88.667 -18.333 -157.334 -55 -206.001s-94.334 -80.334 -173.001 -95.001c152 -24 228 -119.667 228 -287v-225c0 -78.667 12.667 -135.334 38 -170.001h-49c-23.333 36 -35 92.667 -35 170v225
c0 99.333 -26.833 168.666 -80.5 207.999s-131.167 59 -232.5 59h-176v-662h-45zM127.001 705.004l176.002 -0.000976562c52.667 0 97.167 3.83301 133.5 11.5s68.666 21.334 96.999 41.001s49.166 47.667 62.499 84s20 81.5 20 135.5v131c0 91.333 -19.667 161.333 -59 210
s-103.333 73 -192 73h-238v-686z" />
    <glyph glyph-name="s" unicode="s" horiz-adv-x="755" 
d="M78 346v69.9961h43v-72c0 -94 20.5 -169.333 61.5 -226s105.833 -85 194.5 -85s153.5 28.333 194.5 85s61.5 132 61.5 226c0 48.667 -10.167 93.334 -30.5 134.001s-46.5 75.334 -78.5 104.001s-67.5 56.167 -106.5 82.5l-117.5 80.5c-39.333 27.333 -75 56.333 -107 87
s-58.167 68 -78.5 112s-30.5 92.667 -30.5 146c0 109.333 24.167 195.5 72.5 258.5s122.5 94.833 222.5 95.5c52.667 0 98.5 -9.16699 137.5 -27.5s69.833 -44.166 92.5 -77.499s39.5 -70.833 50.5 -112.5s16.5 -88.167 16.5 -139.5v-26h-45v29
c0 44.667 -4.5 85.167 -13.5 121.5s-22.833 69.166 -41.5 98.499s-44.667 52.166 -78 68.499s-72.333 24.5 -117 24.5c-88 0 -152 -28.5 -192 -85.5s-60 -132.167 -60 -225.5c0 -49.333 10.167 -94.5 30.5 -135.5s46.5 -76.167 78.5 -105.5s67.5 -57.166 106.5 -83.499
l117.5 -80.5c39.333 -27.333 75 -56.166 107 -86.499s58.167 -67.166 78.5 -110.499s30.5 -91.333 30.5 -144c0 -107.333 -24.333 -193.5 -73 -258.5s-124.667 -97.5 -228 -97.5c-102.667 0 -178.167 32.5 -226.5 97.5s-72.5 151.167 -72.5 258.5z" />
    <glyph glyph-name="t" unicode="t" horiz-adv-x="751" 
d="M39 1391v43h670v-43h-314v-1391h-45v1391h-311z" />
    <glyph glyph-name="u" unicode="u" horiz-adv-x="751" 
d="M80 354l0.000976562 1080h45v-1082c0 -45.333 4.33301 -86.5 13 -123.5s22.5 -70.667 41.5 -101s45.167 -54 78.5 -71s73 -25.5 119 -25.5s85.667 8.5 119 25.5s59.5 40.667 78.5 71s32.833 64 41.5 101s13 78.167 13 123.5v1082h43v-1080
c0 -40.667 -3.16699 -78.5 -9.5 -113.5s-17 -68.167 -32 -99.5s-33.667 -58 -56 -80s-50.333 -39.333 -84 -52s-71.5 -19 -113.5 -19c-52.667 0 -98.667 9.5 -138 28.5s-70.333 45.667 -93 80s-39.334 72.666 -50.001 114.999s-16 89.166 -16 140.499z" />
    <glyph glyph-name="v" unicode="v" horiz-adv-x="913" 
d="M76 1434h47l336 -1383l336 1383h43l-344 -1434h-68z" />
    <glyph glyph-name="w" unicode="w" horiz-adv-x="1265" 
d="M76 1434h45l250 -1373l247 1364h56l233 -1355l242 1364h41l-254 -1434h-59l-232 1327l-246 -1327h-65z" />
    <glyph glyph-name="x" unicode="x" horiz-adv-x="909" 
d="M76 0l350 745l-326 689h47l310 -650l309 650h45l-326 -689l349 -745h-50l-331 705l-330 -705h-47z" />
    <glyph glyph-name="y" unicode="y" horiz-adv-x="864" 
d="M74 1434h45l313 -793l313 793h48l-340 -854v-580h-45v580z" />
    <glyph glyph-name="z" unicode="z" horiz-adv-x="808" 
d="M78 0v43l602 1348h-574v43h623v-45l-604 -1346h594v-43h-641z" />
    <glyph glyph-name="braceleft" unicode="{" horiz-adv-x="524" 
d="M76 692v49.001c24 4.66699 44.167 11.334 60.5 20.001s29.333 18 39 28s17 23.833 22 41.5s8.33301 34.167 10 49.5s2.83398 36.666 3.50098 63.999l14 285c1.33301 31.333 4.66602 58.333 9.99902 81s13.666 44 24.999 64s27.666 35.333 48.999 46s47.333 16 78 16h62
v-41h-52c-21.333 0 -39.666 -3.16699 -54.999 -9.5s-27.333 -14.333 -36 -24s-15.834 -23 -21.501 -40s-9.5 -33 -11.5 -48s-3.66699 -33.833 -5 -56.5l-14 -279c-1.33301 -30.667 -3.5 -55.667 -6.5 -75s-8.83301 -39.5 -17.5 -60.5s-22 -38.333 -40 -52
s-41 -24.834 -69 -33.501c28 -8 51 -18.833 69 -32.5s31.333 -31 40 -52s14.5 -41.167 17.5 -60.5s5.16699 -44.666 6.5 -75.999l14 -277c1.33301 -23.333 3 -42.5 5 -57.5s5.83301 -30.833 11.5 -47.5s12.834 -29.834 21.501 -39.501s20.667 -17.667 36 -24
s33.666 -9.5 54.999 -9.5h52v-41h-62c-30.667 0 -56.667 5.16699 -78 15.5s-37.666 25.5 -48.999 45.5s-19.666 41.5 -24.999 64.5s-8.66602 50.167 -9.99902 81.5l-14 285c-0.666992 26.667 -1.83398 47.5 -3.50098 62.5s-5.16699 31.333 -10.5 49s-12.5 31.5 -21.5 41.5
s-21.833 19.167 -38.5 27.5s-37 14.833 -61 19.5z" />
    <glyph glyph-name="bar" unicode="|" horiz-adv-x="321" 
d="M141 -16v1468h41v-1468h-41z" />
    <glyph glyph-name="braceright" unicode="}" horiz-adv-x="524" 
d="M76 0l-0.00195312 41h51c21.333 0 39.666 3.16699 54.999 9.5s27.333 14.333 36 24s15.834 22.834 21.501 39.501s9.5 32.5 11.5 47.5s3.66699 34.167 5 57.5l14 277c1.33301 31.333 3.5 56.666 6.5 75.999s8.83301 39.5 17.5 60.5s22 38.333 40 52s41 24.5 69 32.5
c-28 8.66699 -51 19.834 -69 33.501s-31.333 31 -40 52s-14.5 41.167 -17.5 60.5s-5.16699 44.333 -6.5 75l-14 279c-1.33301 22.667 -3 41.5 -5 56.5s-5.83301 31 -11.5 48s-12.834 30.333 -21.501 40s-20.667 17.667 -36 24s-33.666 9.5 -54.999 9.5h-51v41h61
c25.333 0 47.333 -3.66699 66 -11s33.667 -17 45 -29s20.833 -27.167 28.5 -45.5s13 -37 16 -56s5.16699 -40.833 6.5 -65.5l14 -285c2 -66 11.167 -113.5 27.5 -142.5s53.166 -49.167 110.499 -60.5v-49c-57.333 -10.667 -94.166 -30.334 -110.499 -59.001
s-25.5 -75.667 -27.5 -141l-14 -285c-1.33301 -32 -4.66602 -59.333 -9.99902 -82s-13.666 -44 -24.999 -64s-27.5 -35.167 -48.5 -45.5s-47.167 -15.5 -78.5 -15.5h-61z" />
    <glyph glyph-name="asciitilde" unicode="~" horiz-adv-x="813" 
d="M74 672c50.667 83.333 109.998 124.999 177.998 124.999c28 0.666992 57.833 -5.5 89.5 -18.5s59.334 -27.667 83.001 -44s50 -31 79 -44s55.167 -19.167 78.5 -18.5c26.667 0.666992 49.834 10.5 69.501 29.5s39.5 45.167 59.5 78.5l28 -22
c-46 -80 -97.667 -121.667 -155 -125c-26.667 -1.33301 -55.5 4.5 -86.5 17.5s-58.333 27.833 -82 44.5s-50.667 31.834 -81 45.501s-58.5 20.167 -84.5 19.5c-56 0 -106 -36.333 -150 -109z" />
    <glyph glyph-name="uni00A0" unicode="&#xa0;" horiz-adv-x="317" 
 />
    <glyph glyph-name="cent" unicode="&#xa2;" horiz-adv-x="757" 
d="M82 455l-0.000976562 528c0 103.333 22.167 188 66.5 254s114.166 101.333 209.499 106v95h41v-95c96.667 -4 167.334 -37.167 212.001 -99.5s67 -145.166 67 -248.499v-51h-43v53c0 94 -20.167 168.5 -60.5 223.5s-105.5 82.5 -195.5 82.5
c-45.333 0 -84.666 -8.33301 -117.999 -25s-59.5 -40 -78.5 -70s-33 -63.5 -42 -100.5s-13.5 -77.833 -13.5 -122.5v-532c0 -44.667 4.5 -85.334 13.5 -122.001s23 -70 42 -100s45.167 -53.5 78.5 -70.5s72.666 -25.5 117.999 -25.5c89.333 0 154.333 28.667 195 86
s61 133.333 61 228v92h43v-90c0 -104 -22.5 -188.5 -67.5 -253.5s-115.5 -99.5 -211.5 -103.5v-98h-41v98c-95.333 4 -165.166 39.167 -209.499 105.5s-66.5 151.5 -66.5 255.5z" />
    <glyph glyph-name="sterling" unicode="&#xa3;" horiz-adv-x="784" 
d="M80 0v40.999c164 172.667 231.667 330.334 203 473.001h-179v39h172c-11.333 39.333 -27.833 81.5 -49.5 126.5s-41 83.333 -58 115s-32 72.5 -45 122.5s-19.5 103.333 -19.5 160c0 52.667 5.16699 100.334 15.5 143.001s26.666 81.167 48.999 115.5s53.166 61 92.499 80
s86 28.5 140 28.5c53.333 0 99.5 -10 138.5 -30s69.167 -47.833 90.5 -83.5s37 -74.834 47 -117.501s15 -90 15 -142v-65h-43v67c0 45.333 -4 86.666 -12 123.999s-21 72 -39 104s-43.667 57 -77 75s-73.333 27 -120 27c-167.333 0 -251 -108 -251 -324
c0 -56 6.66699 -109 20 -159s28.333 -91.167 45 -123.5s35.5 -71.166 56.5 -116.499s36.833 -87.666 47.5 -126.999h322v-39h-313c12.667 -66.667 5.33398 -136.834 -21.999 -210.501s-83.666 -160.5 -168.999 -260.5h565v-43h-622z" />
    <glyph glyph-name="yen" unicode="&#xa5;" horiz-adv-x="909" 
d="M74 1434h49l332 -818l336 818h43l-355 -871h234v-31h-236v-170h236v-30h-236v-332h-45v332h-235v30h235v170h-235v31h231z" />
    <glyph glyph-name="dieresis" unicode="&#xa8;" horiz-adv-x="342" 
d="M111 1532v166h41v-166h-41zM190 1532v166h43v-166h-43z" />
    <glyph glyph-name="copyright" unicode="&#xa9;" horiz-adv-x="1540" 
d="M78 717c0 133.333 29.167 254 87.5 362s140.5 193 246.5 255s225.333 93 358 93c99.333 0 192 -18.167 278 -54.5s159.167 -86 219.5 -149s107.833 -138.333 142.5 -226s52 -181.167 52 -280.5c0 -133.333 -29.333 -254 -88 -362s-141 -193.167 -247 -255.5
s-225 -93.5 -357 -93.5c-132.667 0 -252 31.167 -358 93.5s-188.167 147.5 -246.5 255.5s-87.5 228.667 -87.5 362zM113 717c0 -126 27.667 -240.5 83 -343.5s133.333 -184.5 234 -244.5s214 -90 340 -90s239.333 30 340 90s178.667 141.5 234 244.5s83 217.5 83 343.5
c0 94 -16.333 182.667 -49 266s-77.5 155 -134.5 215s-126.5 107.5 -208.5 142.5s-170.333 52.5 -265 52.5s-183 -17.5 -265 -52.5s-151.5 -82.5 -208.5 -142.5s-101.833 -131.667 -134.5 -215s-49 -172 -49 -266zM551 520v393c0 75.333 17.167 136.166 51.5 182.499
s87.5 69.5 159.5 69.5c70.667 0 122.834 -23.167 156.501 -69.5s50.5 -107.166 50.5 -182.499v-39h-35v41c0 64.667 -13.5 116.667 -40.5 156s-70.833 59 -131.5 59s-104.834 -19.833 -132.501 -59.5s-41.5 -91.5 -41.5 -155.5v-397c0 -64 13.833 -116.167 41.5 -156.5
s71.834 -60.5 132.501 -60.5s104.5 20 131.5 60s40.5 92.333 40.5 157v60h35v-58c0 -75.333 -16.833 -136.5 -50.5 -183.5s-85.834 -70.5 -156.501 -70.5c-72 0 -125.167 23.5 -159.5 70.5s-51.5 108.167 -51.5 183.5z" />
    <glyph glyph-name="guillemotleft" unicode="&#xab;" horiz-adv-x="530" 
d="M76 719l137 491h41l-135 -491l135 -494h-41zM276 719l136 491h43l-136 -491l136 -494h-43z" />
    <glyph glyph-name="uni00AD" unicode="&#xad;" horiz-adv-x="524" 
d="M80 696v41h364v-41h-364z" />
    <glyph glyph-name="registered" unicode="&#xae;" horiz-adv-x="1540" 
d="M78 717c0 133.333 29.167 254 87.5 362s140.5 193 246.5 255s225.333 93 358 93c99.333 0 192 -18.167 278 -54.5s159.167 -86 219.5 -149s107.833 -138.333 142.5 -226s52 -181.167 52 -280.5c0 -133.333 -29.333 -254 -88 -362s-141 -193.167 -247 -255.5
s-225 -93.5 -357 -93.5c-132.667 0 -252 31.167 -358 93.5s-188.167 147.5 -246.5 255.5s-87.5 228.667 -87.5 362zM113 717c0 -126 27.667 -240.5 83 -343.5s133.333 -184.5 234 -244.5s214 -90 340 -90s239.333 30 340 90s178.667 141.5 234 244.5s83 217.5 83 343.5
c0 94 -16.333 182.667 -49 266s-77.5 155 -134.5 215s-126.5 107.5 -208.5 142.5s-170.333 52.5 -265 52.5s-183 -17.5 -265 -52.5s-151.5 -82.5 -208.5 -142.5s-101.833 -131.667 -134.5 -215s-49 -172 -49 -266zM578 279v876h198c139.333 0 209 -75.667 209 -227v-29
c0 -115.333 -46.333 -185 -139 -209c94 -25.333 141 -91.333 141 -198v-95c0 -58 9 -97.333 27 -118h-41c-15.333 30 -23 69.333 -23 118v95c0 70 -18.833 117.833 -56.5 143.5s-92.5 38.5 -164.5 38.5h-115v-395h-36zM614 709l138 -0.000976562
c67.333 0 116.833 14.333 148.5 43s47.5 76.334 47.5 143.001v31c0 63.333 -13.333 111.5 -40 144.5s-70.667 49.5 -132 49.5h-162v-411z" />
    <glyph glyph-name="acute" unicode="&#xb4;" horiz-adv-x="362" 
d="M78 1554l149 183h52l-158 -183h-43z" />
    <glyph glyph-name="cedilla" unicode="&#xb8;" horiz-adv-x="503" 
d="M78 -180l37 -0.00195312v-6c0 -32.667 14.167 -57 42.5 -73s60.5 -24.667 96.5 -26c34 0 65 8.16699 93 24.5s42 40.5 42 72.5c0 34.667 -12.5 58 -37.5 70s-57.5 18 -97.5 18h-10v104h28v-84c47.333 -1.33301 84.833 -9.66602 112.5 -24.999s41.5 -43 41.5 -83
c0 -41.333 -17.333 -72.166 -52 -92.499s-74.667 -29.833 -120 -28.5c-46 0 -86.833 10 -122.5 30s-53.5 50.333 -53.5 91v8z" />
    <glyph glyph-name="guillemotright" unicode="&#xbb;" horiz-adv-x="530" 
d="M76 225l135 494l-135 491h43l135 -491l-135 -494h-43zM276 225l136 494l-136 491h43l136 -491l-136 -494h-43z" />
    <glyph glyph-name="circumflex" unicode="&#x2c6;" horiz-adv-x="512" 
d="M70 1569l168 168h36l168 -168h-49l-137 135l-139 -135h-47z" />
    <glyph glyph-name="ring" unicode="&#x2da;" horiz-adv-x="421" 
d="M84 1667c0 34.667 12.333 64.167 37 88.5s54.667 36.5 90 36.5s65.333 -12.167 90 -36.5s37 -53.833 37 -88.5c0 -36 -12.333 -66.167 -37 -90.5s-54.667 -36.5 -90 -36.5s-65.333 12.167 -90 36.5s-37 54.5 -37 90.5zM113 1667c0 -28 9.33301 -51 28 -69s42 -27 70 -27
c27.333 0 50.5 9 69.5 27s28.5 41 28.5 69c0 27.333 -9.5 49.833 -28.5 67.5s-42.167 26.5 -69.5 26.5c-28 0 -51.333 -8.83301 -70 -26.5s-28 -40.167 -28 -67.5z" />
    <glyph glyph-name="tilde" unicode="&#x2dc;" horiz-adv-x="544" 
d="M70 1579c28 52.667 64.666 80.001 109.999 82.001c26.667 0.666992 61 -12 103 -38s72.667 -38.667 92 -38c24.667 1.33301 48.334 22.666 71.001 63.999l29 -19c-24.667 -52.667 -57.334 -80 -98.001 -82c-24.667 -0.666992 -57.667 12 -99 38
s-72.666 38.667 -93.999 38c-33.333 0 -62 -21 -86 -63z" />
    <glyph glyph-name="afii10023" unicode="&#x401;" horiz-adv-x="706" 
d="M82 0v1434h547v-43h-502v-643h422v-41h-422v-664h502v-43h-547zM258 1532v166h41v-166h-41zM414 1532v166h41v-166h-41z" />
    <glyph glyph-name="afii10017" unicode="&#x410;" horiz-adv-x="915" 
d="M76 0l346 1436h63l355 -1436h-45l-84 338h-510l-84 -338h-41zM209 379h493l-249 1003z" />
    <glyph glyph-name="afii10018" unicode="&#x411;" horiz-adv-x="770" 
d="M82 0l-0.000976562 1434h559v-43h-514v-582h231c114 0 197.833 -23.333 251.5 -70s80.5 -125.667 80.5 -237v-166c0 -109.333 -24.667 -192.666 -74 -249.999s-127.666 -86 -234.999 -86h-299zM126.999 42.999h254.001c93.333 0 160.666 24.5 201.999 73.5
s62 121.5 62 217.5v170c0 98.667 -22.667 167 -68 205s-118.333 57 -219 57h-231v-723z" />
    <glyph glyph-name="afii10019" unicode="&#x412;" horiz-adv-x="751" 
d="M82 0v1434h287c100.667 0 171.834 -24.333 213.501 -73s62.5 -123.334 62.5 -224.001v-93c0 -86 -14 -151.5 -42 -196.5s-80.333 -73.5 -157 -85.5c81.333 -12 139.666 -43.833 174.999 -95.5s53 -121.5 53 -209.5v-127c0 -220 -101 -330 -303 -330h-289zM127 43.001
l243.999 0.000976562c90.667 0 156.334 24.333 197.001 73s61 120 61 214v129c0 101.333 -23.833 173.666 -71.5 216.999s-122.167 65 -223.5 65h-207v-698zM126.999 782.002h186.001c104.667 0 178.667 17.5 222 52.5s65 102.833 65 203.5v97
c0 88 -16.833 152.667 -50.5 194s-93.834 62 -180.501 62h-242v-609z" />
    <glyph glyph-name="afii10020" unicode="&#x413;" horiz-adv-x="694" 
d="M82 0v1434h532v-43h-487v-1391h-45z" />
    <glyph glyph-name="afii10021" unicode="&#x414;" horiz-adv-x="1003" 
d="M76 43l101.998 -0.000976562c28.667 28.667 47.834 62.334 57.501 101.001s15.834 87 18.501 145l59 1145h486v-1391h127v-244h-45v201h-760v-201h-45v244zM228.998 42.999h525.001v1348h-398l-57 -1104c-2.66699 -41.333 -5.33398 -72.5 -8.00098 -93.5
s-9 -46.167 -19 -75.5s-24.333 -54.333 -43 -75z" />
    <glyph glyph-name="afii10022" unicode="&#x415;" horiz-adv-x="706" 
d="M82 0v1434h547v-43h-502v-643h422v-41h-422v-664h502v-43h-547z" />
    <glyph glyph-name="afii10024" unicode="&#x416;" horiz-adv-x="1290" 
d="M74 0l409 788l-387 646h47l389 -646l89 -151v797h45v-797l90 156l389 641h49l-387 -646l407 -788h-47l-389 748l-112 -183v-565h-45v565l-109 183l-391 -748h-47z" />
    <glyph glyph-name="afii10025" unicode="&#x417;" horiz-adv-x="759" 
d="M80 352l0.00195312 105.002h45v-107c0 -45.333 4.5 -86.5 13.5 -123.5s23 -70.5 42 -100.5s45.333 -53.333 79 -70s73.5 -25 119.5 -25s86 8.33301 120 25s60.667 40 80 70s33.5 63.667 42.5 101s13.5 79 13.5 125v111c0 77.333 -22.667 140.666 -68 189.999
s-105.333 74 -180 74h-92v41h94c70 0 128.5 26.833 175.5 80.5s70.5 116.834 70.5 189.501v43c0 46.667 -4.5 88.667 -13.5 126s-23.167 71 -42.5 101s-46 53.333 -80 70s-74 25 -120 25c-89.333 0 -154.333 -29.333 -195 -88s-61 -136 -61 -232v-61h-41v61
c0 51.333 5.5 98.166 16.5 140.499s27.833 80.333 50.5 114s53.667 59.834 93 78.501s85.666 28 138.999 28s99.666 -9.33301 138.999 -28s70.333 -44.834 93 -78.501s39.5 -71.834 50.5 -114.501s16.5 -90 16.5 -142v-37c0 -69.333 -18.667 -130.833 -56 -184.5
s-88.333 -90.167 -153 -109.5c67.333 -16 119 -50 155 -102s54 -113.667 54 -185v-111c0 -108.667 -24 -196.167 -72 -262.5s-123.667 -99.5 -227 -99.5s-179.333 33.167 -228 99.5s-73 153.833 -73 262.5z" />
    <glyph glyph-name="afii10026" unicode="&#x418;" horiz-adv-x="774" 
d="M82 0v1434h43v-1348l506 1348h61v-1434h-43v1364l-260 -684l-252 -680h-55z" />
    <glyph glyph-name="afii10027" unicode="&#x419;" horiz-adv-x="774" 
d="M82 0v1434h43v-1348l506 1348h61v-1434h-43v1364l-246 -649l-266 -715h-55zM207 1686h37.002c0.666992 -38.667 16 -68.167 46 -88.5s67 -30.5 111 -30.5c43.333 0 80 10.167 110 30.5s46 49.833 48 88.5h37c-2 -46.667 -21.833 -84 -59.5 -112s-82.834 -42 -135.501 -42
c-53.333 0 -98.833 13.833 -136.5 41.5s-56.834 65.167 -57.501 112.5z" />
    <glyph glyph-name="afii10028" unicode="&#x41a;" horiz-adv-x="821" 
d="M82 0v1434h45v-809l532 809h50l-445 -678l481 -756h-49l-460 713l-109 -164v-549h-45z" />
    <glyph glyph-name="afii10029" unicode="&#x41b;" horiz-adv-x="888" 
d="M74 -2l0.00195312 42.9961c20 0 38.5 2.16699 55.5 6.5s31.5 9.33301 43.5 15s22.833 14.334 32.5 26.001s17.667 22 24 31s11.666 22.333 15.999 40s7.66602 31.667 9.99902 42s4.33301 26.333 6 48s2.66699 37.334 3 47.001s0.833008 26.167 1.5 49.5l43 1088h498
v-1434h-47v1391h-408l-41 -1045c-1.33301 -24 -2.33301 -43 -3 -57s-2.16699 -32.167 -4.5 -54.5s-5 -40.166 -8 -53.499s-7.33301 -29.166 -13 -47.499s-12.167 -33 -19.5 -44s-16.5 -22.833 -27.5 -35.5s-23.5 -22.5 -37.5 -29.5s-30.333 -13 -49 -18
s-39 -7.83301 -61 -8.5h-14z" />
    <glyph glyph-name="afii10030" unicode="&#x41c;" horiz-adv-x="1007" 
d="M82 0v1434h70l352 -1360l352 1360h70v-1434h-45v1366l-353 -1362h-51l-354 1362v-1366h-41z" />
    <glyph glyph-name="afii10031" unicode="&#x41d;" 
d="M82 0v1434h45v-697h518v697h45v-1434h-45v696h-518v-696h-45z" />
    <glyph glyph-name="afii10032" unicode="&#x41e;" horiz-adv-x="770" 
d="M80 352v729.002c0 108 24.833 195.5 74.5 262.5s125.834 100.5 228.501 100.5c53.333 0 100.166 -9.33301 140.499 -28s72.333 -44.834 96 -78.501s41.334 -71.834 53.001 -114.501s17.5 -90 17.5 -142v-729c0 -108 -25 -195.333 -75 -262s-127.333 -100 -232 -100
c-102.667 0 -178.834 33.333 -228.501 100s-74.5 154 -74.5 262zM125 350.002c0 -96 20.667 -173.167 62 -231.5s106.666 -87.5 195.999 -87.5c90.667 0 157 29.167 199 87.5s63 135.5 63 231.5v733c0 96 -21 173.333 -63 232s-108.333 88 -199 88
c-89.333 0 -154.666 -29.333 -195.999 -88s-62 -136 -62 -232v-733z" />
    <glyph glyph-name="afii10033" unicode="&#x41f;" 
d="M82 0v1434h608v-1434h-45v1391h-518v-1391h-45z" />
    <glyph glyph-name="afii10034" unicode="&#x420;" horiz-adv-x="735" 
d="M82 0l0.000976562 1434h283c198 0 297 -115.667 297 -347v-143c0 -114 -26.833 -198.5 -80.5 -253.5s-136.834 -82.5 -249.501 -82.5h-205v-608h-45zM127.001 651h205c100 0 172.333 23 217 69s67 120 67 222v148c0 95.333 -19 169.333 -57 222s-102.667 79 -194 79h-238
v-740z" />
    <glyph glyph-name="afii10035" unicode="&#x421;" horiz-adv-x="757" 
d="M80 352v728.999c0 51.333 5.5 98.333 16.5 141s28 80.834 51 114.501s54.167 60 93.5 79s85.333 28.5 138 28.5c53.333 0 99.666 -9.5 138.999 -28.5s70.666 -45.333 93.999 -79s40.5 -71.834 51.5 -114.501s16.5 -89.667 16.5 -141v-110h-45v112
c0 95.333 -20.333 172.5 -61 231.5s-105 88.5 -193 88.5c-46 0 -86 -8.33301 -120 -25s-60.667 -40 -80 -70s-33.5 -63.667 -42.5 -101s-13.5 -78.666 -13.5 -123.999v-733c0 -45.333 4.5 -86.5 13.5 -123.5s23.167 -70.333 42.5 -100s46 -52.667 80 -69s74 -24.5 120 -24.5
c45.333 0 84.833 8.16699 118.5 24.5s60.167 39.333 79.5 69s33.5 63 42.5 100s13.5 78.167 13.5 123.5v158h45v-156c0 -51.333 -5.5 -98.333 -16.5 -141s-28.167 -80.834 -51.5 -114.501s-54.666 -59.834 -93.999 -78.501s-85.666 -28 -138.999 -28
c-52.667 0 -98.667 9.33301 -138 28s-70.5 44.834 -93.5 78.501s-40 71.834 -51 114.501s-16.5 89.667 -16.5 141z" />
    <glyph glyph-name="afii10036" unicode="&#x422;" horiz-adv-x="819" 
d="M74 1391v43h671v-43h-313v-1391h-45v1391h-313z" />
    <glyph glyph-name="afii10037" unicode="&#x423;" horiz-adv-x="886" 
d="M74 1434l47.001 -0.000976562l332 -912l137 404l174 508h49l-420 -1205c-25.333 -80.667 -56 -139.167 -92 -175.5s-92.667 -54.166 -170 -53.499v41c32.667 0 60.834 4 84.501 12s43.667 21 60 39s29.666 37.167 39.999 57.5s21.166 46.833 32.499 79.5l82 234z" />
    <glyph glyph-name="afii10038" unicode="&#x424;" horiz-adv-x="1118" 
d="M80 516v390.999c0 118 25.833 208 77.5 270s135.167 93 250.5 93h129v164h43v-164h129c114.667 0 198.167 -31.167 250.5 -93.5s78.5 -152.166 78.5 -269.499v-391c0 -117.333 -26.167 -207 -78.5 -269s-135.833 -93 -250.5 -93h-129v-154h-43v154h-129
c-115.333 0 -198.833 30.833 -250.5 92.5s-77.5 151.5 -77.5 269.5zM125 513.999c0 -104.667 22 -184 66 -238s116.333 -81 217 -81h129v1034h-129c-100.667 0 -173 -27.167 -217 -81.5s-66 -133.833 -66 -238.5v-395zM580 194.999h129c100.667 0 173.167 27.167 217.5 81.5
s66.5 133.5 66.5 237.5v395c0 104.667 -22 184.167 -66 238.5s-116.667 81.5 -218 81.5h-129v-1034z" />
    <glyph glyph-name="afii10039" unicode="&#x425;" horiz-adv-x="909" 
d="M76 0l350 745l-326 689h47l310 -650l309 650h45l-326 -689l349 -745h-50l-331 705l-330 -705h-47z" />
    <glyph glyph-name="afii10040" unicode="&#x426;" horiz-adv-x="931" 
d="M119 0v1434h43v-1391h516v1391h47v-1391h127v-236h-45v193h-688z" />
    <glyph glyph-name="afii10041" unicode="&#x427;" 
d="M80 924l-0.00195312 509.999h45v-508c0 -59.333 8 -112.166 24 -158.499s43.667 -84.833 83 -115.5s88.333 -46 147 -46c132.667 0 221.334 67 266.001 201v627h45v-1434h-45v731c-56 -110.667 -147.333 -166 -274 -166c-50.667 0 -95.167 9.66699 -133.5 29
s-68.666 45.833 -90.999 79.5s-39 71.5 -50 113.5s-16.5 87.667 -16.5 137z" />
    <glyph glyph-name="afii10042" unicode="&#x428;" horiz-adv-x="1126" 
d="M82 0v1434h45v-1391h414v1391h45v-1391h413v1391h45v-1434h-962z" />
    <glyph glyph-name="afii10043" unicode="&#x429;" horiz-adv-x="1249" 
d="M82 0v1434h45v-1391h412v1391h45v-1391h415l-2 1391h45v-1391h129v-236h-45v193h-1044z" />
    <glyph glyph-name="afii10044" unicode="&#x42a;" horiz-adv-x="884" 
d="M20 1391l-0.000976562 43h252v-609h205c112.667 0 195.834 -27.5 249.501 -82.5s80.5 -139.5 80.5 -253.5v-143c0 -230.667 -99 -346 -297 -346h-283v1391h-207zM271.999 43h238c91.333 0 156.166 26.333 194.499 79s57.5 126.667 57.5 222v148
c0 101.333 -22.667 175 -68 221s-117.666 69 -216.999 69h-205v-739z" />
    <glyph glyph-name="afii10045" unicode="&#x42b;" horiz-adv-x="925" 
d="M82 0v1434h45v-609h203c114 0 197.833 -27.5 251.5 -82.5s80.5 -139.5 80.5 -253.5v-143c0 -230.667 -100 -346 -300 -346h-280zM127 43h235c91.333 0 156.5 26.333 195.5 79s58.5 126.667 58.5 222v148c0 101.333 -22.5 175 -67.5 221s-117.833 69 -218.5 69h-203v-739z
M799 0v1434h45v-1434h-45z" />
    <glyph glyph-name="afii10046" unicode="&#x42c;" horiz-adv-x="739" 
d="M82 0v1434h45v-609h203c114 0 197.833 -27.5 251.5 -82.5s80.5 -139.5 80.5 -253.5v-143c0 -230.667 -100 -346 -300 -346h-280zM127 43h235c91.333 0 156.5 26.333 195.5 79s58.5 126.667 58.5 222v148c0 101.333 -22.5 175 -67.5 221s-117.833 69 -218.5 69h-203v-739z
" />
    <glyph glyph-name="afii10047" unicode="&#x42d;" horiz-adv-x="755" 
d="M78 352v129.001h45v-131c0 -95.333 20 -172 60 -230s104 -87 192 -87c46.667 0 87 8.16699 121 24.5s60.667 39.333 80 69s33.333 63 42 100s13 78.167 13 123.5v371h-324v41h324v321c0 45.333 -4.5 86.5 -13.5 123.5s-23 70.667 -42 101s-45.5 53.833 -79.5 70.5
s-74.333 25 -121 25c-88 0 -152 -29.5 -192 -88.5s-60 -136.167 -60 -231.5v-82h-43v80c0 108 24 195.5 72 262.5s123 100.5 225 100.5c52.667 0 98.667 -9.5 138 -28.5s70.5 -45.333 93.5 -79s40 -71.834 51 -114.501s16.5 -89.667 16.5 -141v-729
c0 -51.333 -5.5 -98.333 -16.5 -141s-28 -80.834 -51 -114.501s-54.167 -59.834 -93.5 -78.501s-85.333 -28 -138 -28s-98.667 9.33301 -138 28s-70.5 44.834 -93.5 78.501s-40 71.834 -51 114.501s-16.5 89.667 -16.5 141z" />
    <glyph glyph-name="afii10048" unicode="&#x42e;" horiz-adv-x="1095" 
d="M82 0v1434h45v-697h279v344c0 108.667 24.667 196.334 74 263.001s125.666 100 228.999 100c53.333 0 100 -9.33301 140 -28s72 -44.834 96 -78.501s41.833 -71.834 53.5 -114.501s17.5 -90 17.5 -142v-729c0 -70 -10 -131.333 -30 -184s-53.667 -95.5 -101 -128.5
s-106 -49.5 -176 -49.5c-103.333 0 -179.666 33.167 -228.999 99.5s-74 153.833 -74 262.5v344h-279v-696h-45zM451 350.001c0 -96 20.666 -173.167 61.999 -231.5s106.666 -87.5 195.999 -87.5c60.667 0 111.167 14.667 151.5 44s68.833 67.166 85.5 113.499
s25 100.166 25 161.499v733c0 45.333 -4.83301 86.833 -14.5 124.5s-24.667 71.334 -45 101.001s-47.666 52.834 -81.999 69.501s-74.5 25 -120.5 25c-89.333 0 -154.666 -29.333 -195.999 -88s-62 -136 -62 -232v-733z" />
    <glyph glyph-name="afii10049" unicode="&#x42f;" horiz-adv-x="778" 
d="M78 0c26 35.333 39 91.9971 39 169.997v225c0 168 75.667 263.667 227 287c-78.667 14.667 -136.167 46.334 -172.5 95.001s-54.5 117.334 -54.5 206.001v129c0 214.667 98.333 322 295 322h284v-1434h-45v662h-176c-101.333 0 -178.833 -19.667 -232.5 -59
s-80.5 -108.666 -80.5 -207.999v-225c0 -77.333 -11.667 -134 -35 -170h-49zM162 976.997c0 -54 6.66992 -99.166 20.0029 -135.499s34.166 -64.333 62.499 -84s60.666 -33.334 96.999 -41.001s80.833 -11.5 133.5 -11.5h176v686h-237
c-88.667 0 -152.834 -24.333 -192.501 -73s-59.5 -118.667 -59.5 -210v-131z" />
    <glyph glyph-name="afii10065" unicode="&#x430;" horiz-adv-x="915" 
d="M76 0l346 1436h63l355 -1436h-45l-84 338h-510l-84 -338h-41zM209 379h493l-249 1003z" />
    <glyph glyph-name="afii10066" unicode="&#x431;" horiz-adv-x="770" 
d="M82 0l-0.000976562 1434h559v-43h-514v-582h231c114 0 197.833 -23.333 251.5 -70s80.5 -125.667 80.5 -237v-166c0 -109.333 -24.667 -192.666 -74 -249.999s-127.666 -86 -234.999 -86h-299zM126.999 42.999h254.001c93.333 0 160.666 24.5 201.999 73.5
s62 121.5 62 217.5v170c0 98.667 -22.667 167 -68 205s-118.333 57 -219 57h-231v-723z" />
    <glyph glyph-name="afii10067" unicode="&#x432;" horiz-adv-x="751" 
d="M82 0l-0.000976562 1434h287c100.667 0 171.834 -24.333 213.501 -73s62.5 -123.334 62.5 -224.001v-93c0 -84.667 -14.833 -149.5 -44.5 -194.5s-83.167 -73.5 -160.5 -85.5c156 -22.667 234 -125 234 -307v-127c0 -220 -101 -330 -303 -330h-289zM126.999 43.001
l243.999 0.000976562c90.667 0 156.334 24.333 197.001 73s61 120 61 214v129c0 101.333 -23.833 173.666 -71.5 216.999s-122.167 65 -223.5 65h-207v-698zM126.998 782.002h186.001c104.667 0 178.667 17.5 222 52.5s65 102.833 65 203.5v97
c0 88 -16.833 152.667 -50.5 194s-93.834 62 -180.501 62h-242v-609z" />
    <glyph glyph-name="afii10068" unicode="&#x433;" horiz-adv-x="694" 
d="M82 0v1434h532v-43h-487v-1391h-45z" />
    <glyph glyph-name="afii10069" unicode="&#x434;" horiz-adv-x="1003" 
d="M76 43l101.998 -0.000976562c28.667 28.667 47.834 62.334 57.501 101.001s15.834 87 18.501 145l59 1145h486v-1391h127v-244h-45v201h-760v-201h-45v244zM228.998 42.999h525.001v1348h-398l-57 -1104c-2.66699 -41.333 -5.33398 -72.5 -8.00098 -93.5
s-9 -46.167 -19 -75.5s-24.333 -54.333 -43 -75z" />
    <glyph glyph-name="afii10070" unicode="&#x435;" horiz-adv-x="706" 
d="M82 0v1434h547v-43h-502v-643h422v-41h-422v-664h502v-43h-547z" />
    <glyph glyph-name="afii10072" unicode="&#x436;" horiz-adv-x="1290" 
d="M74 0l409 788l-387 646h47l389 -648l89 -153v801h45v-801l86 151l393 650h49l-387 -646l407 -788h-47l-389 748l-112 -185v-563h-45v565l-109 183l-391 -748h-47z" />
    <glyph glyph-name="afii10073" unicode="&#x437;" horiz-adv-x="759" 
d="M80 352l0.00195312 105.002h45v-107c0 -45.333 4.5 -86.5 13.5 -123.5s23 -70.5 42 -100.5s45.333 -53.333 79 -70s73.5 -25 119.5 -25s86 8.33301 120 25s60.667 40 80 70s33.5 63.667 42.5 101s13.5 79 13.5 125v111c0 77.333 -22.667 140.666 -68 189.999
s-105.333 74 -180 74h-92v41h94c70 0 128.5 26.833 175.5 80.5s70.5 116.834 70.5 189.501v43c0 46.667 -4.5 88.667 -13.5 126s-23.167 71 -42.5 101s-46 53.333 -80 70s-74 25 -120 25c-89.333 0 -154.333 -29.333 -195 -88s-61 -136 -61 -232v-61h-41v61
c0 51.333 5.5 98.166 16.5 140.499s27.833 80.333 50.5 114s53.667 59.834 93 78.501s85.666 28 138.999 28s99.666 -9.33301 138.999 -28s70.333 -44.834 93 -78.501s39.5 -71.834 50.5 -114.501s16.5 -90 16.5 -142v-37c0 -69.333 -18.667 -130.833 -56 -184.5
s-88.333 -90.167 -153 -109.5c67.333 -16 119 -50 155 -102s54 -113.667 54 -185v-111c0 -108.667 -24 -196.167 -72 -262.5s-123.667 -99.5 -227 -99.5s-179.333 33.167 -228 99.5s-73 153.833 -73 262.5z" />
    <glyph glyph-name="afii10074" unicode="&#x438;" horiz-adv-x="774" 
d="M82 0v1434h43v-1348l199 532l307 816h61v-1434h-43v1364l-262 -696l-250 -668h-55z" />
    <glyph glyph-name="afii10075" unicode="&#x439;" horiz-adv-x="774" 
d="M82 0v1434h43v-1348l217 584l289 764h61v-1434h-43v1364l-231 -619l-281 -745h-55zM207 1679h36.998c0.666992 -39.333 15.834 -68.833 45.501 -88.5s66.834 -29.5 111.501 -29.5c44 0 80.833 9.83301 110.5 29.5s45.5 49.167 47.5 88.5h37
c-2 -47.333 -21.667 -85 -59 -113s-82.666 -42 -135.999 -42s-98.833 13.833 -136.5 41.5s-56.834 65.5 -57.501 113.5z" />
    <glyph glyph-name="afii10076" unicode="&#x43a;" horiz-adv-x="821" 
d="M82 0v1434h45v-809l532 809h50l-445 -678l481 -756h-49l-460 713l-109 -164v-549h-45z" />
    <glyph glyph-name="afii10077" unicode="&#x43b;" horiz-adv-x="888" 
d="M74 -2l0.00195312 42.9961c20 0 38.5 2.16699 55.5 6.5s31.5 9.33301 43.5 15s22.833 14.334 32.5 26.001s17.667 22 24 31s11.666 22.333 15.999 40s7.66602 31.667 9.99902 42s4.33301 26.333 6 48s2.66699 37.334 3 47.001s0.833008 26.167 1.5 49.5l43 1088h498
v-1434h-47v1391h-408l-41 -1045c-1.33301 -24 -2.33301 -43 -3 -57s-2.16699 -32.167 -4.5 -54.5s-5 -40.166 -8 -53.499s-7.33301 -29.166 -13 -47.499s-12.167 -33 -19.5 -44s-16.5 -22.833 -27.5 -35.5s-23.5 -22.5 -37.5 -29.5s-30.333 -13 -49 -18
s-39 -7.83301 -61 -8.5h-14z" />
    <glyph glyph-name="afii10078" unicode="&#x43c;" horiz-adv-x="1007" 
d="M82 0v1434h70l352 -1360l352 1360h70v-1434h-45v1366l-353 -1362h-51l-354 1362v-1366h-41z" />
    <glyph glyph-name="afii10079" unicode="&#x43d;" 
d="M82 0v1434h45v-697h518v697h45v-1434h-45v696h-518v-696h-45z" />
    <glyph glyph-name="afii10080" unicode="&#x43e;" horiz-adv-x="770" 
d="M80 352v729.002c0 108 24.833 195.5 74.5 262.5s125.834 100.5 228.501 100.5c53.333 0 100.166 -9.33301 140.499 -28s72.333 -44.834 96 -78.501s41.334 -71.834 53.001 -114.501s17.5 -90 17.5 -142v-729c0 -108 -25 -195.333 -75 -262s-127.333 -100 -232 -100
c-102.667 0 -178.834 33.333 -228.501 100s-74.5 154 -74.5 262zM125 350.002c0 -96 20.667 -173.167 62 -231.5s106.666 -87.5 195.999 -87.5c90.667 0 157 29.167 199 87.5s63 135.5 63 231.5v733c0 96 -21 173.333 -63 232s-108.333 88 -199 88
c-89.333 0 -154.666 -29.333 -195.999 -88s-62 -136 -62 -232v-733z" />
    <glyph glyph-name="afii10081" unicode="&#x43f;" 
d="M82 0v1434h608v-1434h-45v1391h-518v-1391h-45z" />
    <glyph glyph-name="afii10082" unicode="&#x440;" horiz-adv-x="735" 
d="M82 0l0.000976562 1434h283c198 0 297 -115.667 297 -347v-143c0 -114 -26.833 -198.5 -80.5 -253.5s-136.834 -82.5 -249.501 -82.5h-205v-608h-45zM127.001 651h205c100 0 172.333 23 217 69s67 120 67 222v148c0 95.333 -19 169.333 -57 222s-102.667 79 -194 79h-238
v-740z" />
    <glyph glyph-name="afii10083" unicode="&#x441;" horiz-adv-x="757" 
d="M80 352v728.999c0 51.333 5.5 98.333 16.5 141s28 80.834 51 114.501s54.167 60 93.5 79s85.333 28.5 138 28.5c53.333 0 99.666 -9.5 138.999 -28.5s70.666 -45.333 93.999 -79s40.5 -71.834 51.5 -114.501s16.5 -89.667 16.5 -141v-110h-45v112
c0 95.333 -20.333 172.5 -61 231.5s-105 88.5 -193 88.5c-46 0 -86 -8.33301 -120 -25s-60.667 -40 -80 -70s-33.5 -63.667 -42.5 -101s-13.5 -78.666 -13.5 -123.999v-733c0 -45.333 4.5 -86.5 13.5 -123.5s23.167 -70.333 42.5 -100s46 -52.667 80 -69s74 -24.5 120 -24.5
c45.333 0 84.833 8.16699 118.5 24.5s60.167 39.333 79.5 69s33.5 63 42.5 100s13.5 78.167 13.5 123.5v158h45v-156c0 -51.333 -5.5 -98.333 -16.5 -141s-28.167 -80.834 -51.5 -114.501s-54.666 -59.834 -93.999 -78.501s-85.666 -28 -138.999 -28
c-52.667 0 -98.667 9.33301 -138 28s-70.5 44.834 -93.5 78.501s-40 71.834 -51 114.501s-16.5 89.667 -16.5 141z" />
    <glyph glyph-name="afii10084" unicode="&#x442;" horiz-adv-x="819" 
d="M74 1391v43h671v-43h-313v-1391h-45v1391h-313z" />
    <glyph glyph-name="afii10085" unicode="&#x443;" horiz-adv-x="886" 
d="M74 1434l47.001 -0.000976562l332 -912l137 404l174 508h49l-420 -1205c-25.333 -80.667 -56 -139.167 -92 -175.5s-92.667 -54.166 -170 -53.499v41c32.667 0 60.834 4 84.501 12s43.667 21 60 39s29.666 37.167 39.999 57.5s21.166 46.833 32.499 79.5l82 234z" />
    <glyph glyph-name="afii10086" unicode="&#x444;" horiz-adv-x="1118" 
d="M80 516v390.999c0 118 25.833 208 77.5 270s135.167 93 250.5 93h129v164h43v-164h129c114.667 0 198.167 -31.167 250.5 -93.5s78.5 -152.166 78.5 -269.499v-391c0 -117.333 -26.167 -207 -78.5 -269s-135.833 -93 -250.5 -93h-129v-154h-43v154h-129
c-115.333 0 -198.833 30.833 -250.5 92.5s-77.5 151.5 -77.5 269.5zM125 513.999c0 -104.667 22 -184 66 -238s116.333 -81 217 -81h129v1034h-129c-100.667 0 -173 -27.167 -217 -81.5s-66 -133.833 -66 -238.5v-395zM580 194.999h129c100.667 0 173.167 27.167 217.5 81.5
s66.5 133.5 66.5 237.5v395c0 104.667 -22 184.167 -66 238.5s-116.667 81.5 -218 81.5h-129v-1034z" />
    <glyph glyph-name="afii10087" unicode="&#x445;" horiz-adv-x="909" 
d="M76 0l350 745l-326 689h47l310 -650l309 650h45l-326 -689l349 -745h-50l-331 705l-330 -705h-47z" />
    <glyph glyph-name="afii10088" unicode="&#x446;" horiz-adv-x="931" 
d="M119 0v1434h43v-1391h516v1391h47v-1391h127v-236h-45v193h-688z" />
    <glyph glyph-name="afii10089" unicode="&#x447;" 
d="M80 924l-0.00195312 509.999h45v-508c0 -59.333 8 -112.166 24 -158.499s43.667 -84.833 83 -115.5s88.333 -46 147 -46c132.667 0 221.334 67 266.001 201v627h45v-1434h-45v727c-54.667 -108 -146 -162 -274 -162c-50.667 0 -95.167 9.66699 -133.5 29
s-68.666 45.833 -90.999 79.5s-39 71.5 -50 113.5s-16.5 87.667 -16.5 137z" />
    <glyph glyph-name="afii10090" unicode="&#x448;" horiz-adv-x="1126" 
d="M82 0v1434h45v-1391h414v1391h45v-1391h413v1391h45v-1434h-962z" />
    <glyph glyph-name="afii10091" unicode="&#x449;" horiz-adv-x="1249" 
d="M82 0v1434h45v-1391h412v1391h45v-1391h415l-2 1391h45v-1391h129v-236h-45v193h-1044z" />
    <glyph glyph-name="afii10092" unicode="&#x44a;" horiz-adv-x="884" 
d="M20 1391l-0.000976562 43h252v-609h205c112.667 0 195.834 -27.5 249.501 -82.5s80.5 -139.5 80.5 -253.5v-143c0 -230.667 -99 -346 -297 -346h-283v1391h-207zM271.999 43h238c91.333 0 156.166 26.333 194.499 79s57.5 126.667 57.5 222v148
c0 101.333 -22.667 175 -68 221s-117.666 69 -216.999 69h-205v-739z" />
    <glyph glyph-name="afii10093" unicode="&#x44b;" horiz-adv-x="925" 
d="M82 0v1434h45v-609h203c114 0 197.833 -27.5 251.5 -82.5s80.5 -139.5 80.5 -253.5v-143c0 -230.667 -100 -346 -300 -346h-280zM127 43h235c91.333 0 156.5 26.333 195.5 79s58.5 126.667 58.5 222v148c0 101.333 -22.5 175 -67.5 221s-117.833 69 -218.5 69h-203v-739z
M799 0v1434h45v-1434h-45z" />
    <glyph glyph-name="afii10094" unicode="&#x44c;" horiz-adv-x="739" 
d="M82 0v1434h45v-609h203c114 0 197.833 -27.5 251.5 -82.5s80.5 -139.5 80.5 -253.5v-143c0 -230.667 -100 -346 -300 -346h-280zM127 43h235c91.333 0 156.5 26.333 195.5 79s58.5 126.667 58.5 222v148c0 101.333 -22.5 175 -67.5 221s-117.833 69 -218.5 69h-203v-739z
" />
    <glyph glyph-name="afii10095" unicode="&#x44d;" horiz-adv-x="755" 
d="M78 352v129.001h45v-131c0 -95.333 20 -172 60 -230s104 -87 192 -87c46.667 0 87 8.16699 121 24.5s60.667 39.333 80 69s33.333 63 42 100s13 78.167 13 123.5v371h-324v41h324v321c0 45.333 -4.5 86.5 -13.5 123.5s-23 70.667 -42 101s-45.5 53.833 -79.5 70.5
s-74.333 25 -121 25c-88 0 -152 -29.5 -192 -88.5s-60 -136.167 -60 -231.5v-82h-43v80c0 108 24 195.5 72 262.5s123 100.5 225 100.5c52.667 0 98.667 -9.5 138 -28.5s70.5 -45.333 93.5 -79s40 -71.834 51 -114.501s16.5 -89.667 16.5 -141v-729
c0 -51.333 -5.5 -98.333 -16.5 -141s-28 -80.834 -51 -114.501s-54.167 -59.834 -93.5 -78.501s-85.333 -28 -138 -28s-98.667 9.33301 -138 28s-70.5 44.834 -93.5 78.501s-40 71.834 -51 114.501s-16.5 89.667 -16.5 141z" />
    <glyph glyph-name="afii10096" unicode="&#x44e;" horiz-adv-x="1095" 
d="M82 0v1434h45v-697h279v344c0 108.667 24.667 196.334 74 263.001s125.666 100 228.999 100c53.333 0 100 -9.33301 140 -28s72 -44.834 96 -78.501s41.833 -71.834 53.5 -114.501s17.5 -90 17.5 -142v-729c0 -70 -10 -131.333 -30 -184s-53.667 -95.5 -101 -128.5
s-106 -49.5 -176 -49.5c-103.333 0 -179.666 33.167 -228.999 99.5s-74 153.833 -74 262.5v344h-279v-696h-45zM451 350.001c0 -96 20.666 -173.167 61.999 -231.5s106.666 -87.5 195.999 -87.5c60.667 0 111.167 14.667 151.5 44s68.833 67.166 85.5 113.499
s25 100.166 25 161.499v733c0 45.333 -4.83301 86.833 -14.5 124.5s-24.667 71.334 -45 101.001s-47.666 52.834 -81.999 69.501s-74.5 25 -120.5 25c-89.333 0 -154.666 -29.333 -195.999 -88s-62 -136 -62 -232v-733z" />
    <glyph glyph-name="afii10097" unicode="&#x44f;" horiz-adv-x="778" 
d="M78 0c26 35.333 39 91.9971 39 169.997v225c0 168 75.667 263.667 227 287c-78.667 14.667 -136.167 46.334 -172.5 95.001s-54.5 117.334 -54.5 206.001v129c0 214.667 98.333 322 295 322h284v-1434h-45v662h-176c-101.333 0 -178.833 -19.667 -232.5 -59
s-80.5 -108.666 -80.5 -207.999v-225c0 -77.333 -11.667 -134 -35 -170h-49zM162 976.997c0 -54 6.66992 -99.166 20.0029 -135.499s34.166 -64.333 62.499 -84s60.666 -33.334 96.999 -41.001s80.833 -11.5 133.5 -11.5h176v686h-237
c-88.667 0 -152.834 -24.333 -192.501 -73s-59.5 -118.667 -59.5 -210v-131z" />
    <glyph glyph-name="afii10071" unicode="&#x451;" horiz-adv-x="706" 
d="M82 0v1434h547v-43h-502v-643h422v-41h-422v-664h502v-43h-547zM258 1532v166h41v-166h-41zM414 1532v166h41v-166h-41z" />
    <glyph glyph-name="uni2000" unicode="&#x2000;" horiz-adv-x="896" 
 />
    <glyph glyph-name="uni2001" unicode="&#x2001;" horiz-adv-x="1792" 
 />
    <glyph glyph-name="uni2002" unicode="&#x2002;" horiz-adv-x="896" 
 />
    <glyph glyph-name="uni2003" unicode="&#x2003;" horiz-adv-x="1792" 
 />
    <glyph glyph-name="uni2004" unicode="&#x2004;" horiz-adv-x="597" 
 />
    <glyph glyph-name="uni2005" unicode="&#x2005;" horiz-adv-x="448" 
 />
    <glyph glyph-name="uni2006" unicode="&#x2006;" horiz-adv-x="298" 
 />
    <glyph glyph-name="uni2007" unicode="&#x2007;" horiz-adv-x="298" 
 />
    <glyph glyph-name="uni2008" unicode="&#x2008;" horiz-adv-x="224" 
 />
    <glyph glyph-name="uni2009" unicode="&#x2009;" horiz-adv-x="358" 
 />
    <glyph glyph-name="uni200A" unicode="&#x200a;" horiz-adv-x="99" 
 />
    <glyph glyph-name="uni2010" unicode="&#x2010;" horiz-adv-x="524" 
d="M80 696v41h364v-41h-364z" />
    <glyph glyph-name="uni2011" unicode="&#x2011;" horiz-adv-x="524" 
d="M80 696v41h364v-41h-364z" />
    <glyph glyph-name="figuredash" unicode="&#x2012;" horiz-adv-x="524" 
d="M80 696v41h364v-41h-364z" />
    <glyph glyph-name="endash" unicode="&#x2013;" horiz-adv-x="790" 
d="M72 698v39h647v-39h-647z" />
    <glyph glyph-name="emdash" unicode="&#x2014;" horiz-adv-x="1120" 
d="M72 698v39h977v-39h-977z" />
    <glyph glyph-name="quoteleft" unicode="&#x2018;" horiz-adv-x="235" 
d="M82 1130v164l45 140h23l-23 -138v-166h-45z" />
    <glyph glyph-name="quoteright" unicode="&#x2019;" horiz-adv-x="235" 
d="M86 1130l23 138v166h45v-164l-45 -140h-23z" />
    <glyph glyph-name="quotesinglbase" unicode="&#x201a;" horiz-adv-x="235" 
d="M86 -137l23 137v166h45v-164l-45 -139h-23z" />
    <glyph glyph-name="quotedblleft" unicode="&#x201c;" horiz-adv-x="342" 
d="M82 1130v164l45 140h23l-23 -138v-166h-45zM190 1130v164l43 140h25l-25 -138v-166h-43z" />
    <glyph glyph-name="quotedblright" unicode="&#x201d;" horiz-adv-x="342" 
d="M82 1130l24 138v166h44v-164l-44 -140h-24zM190 1130l23 138v166h45v-164l-45 -140h-23z" />
    <glyph glyph-name="quotedblbase" unicode="&#x201e;" horiz-adv-x="356" 
d="M86 -137l23 137v166h45v-164l-45 -139h-23zM207 -137l24 137v166h43v-164l-43 -139h-24z" />
    <glyph glyph-name="bullet" unicode="&#x2022;" horiz-adv-x="436" 
d="M123 717c0 26.667 9.33301 49.334 28 68.001s40.667 28 66 28c26.667 0 49.334 -9.33301 68.001 -28s28 -41.334 28 -68.001s-9.33301 -49.334 -28 -68.001s-41.334 -28 -68.001 -28c-25.333 0 -47.333 9.33301 -66 28s-28 41.334 -28 68.001z" />
    <glyph glyph-name="ellipsis" unicode="&#x2026;" horiz-adv-x="430" 
d="M82 0v166h45v-166h-45zM193 0v166h43v-166h-43zM305 0v166h43v-166h-43z" />
    <glyph glyph-name="uni202F" unicode="&#x202f;" horiz-adv-x="358" 
 />
    <glyph glyph-name="guilsinglleft" unicode="&#x2039;" horiz-adv-x="331" 
d="M76 717l135 493h45l-135 -493l135 -496h-45z" />
    <glyph glyph-name="guilsinglright" unicode="&#x203a;" horiz-adv-x="331" 
d="M76 223l135 496l-135 493h43l137 -493l-137 -496h-43z" />
    <glyph glyph-name="uni205F" unicode="&#x205f;" horiz-adv-x="448" 
 />
    <glyph glyph-name="Euro" unicode="&#x20ac;" horiz-adv-x="815" 
d="M59 594l0.00390625 33.001h91v188h-91v33h91v233c0 51.333 5.33301 98.166 16 140.499s27.167 80.5 49.5 114.5s52.833 60.5 91.5 79.5s84.334 28.5 137.001 28.5c51.333 0 96.166 -9.5 134.499 -28.5s68.666 -45.5 90.999 -79.5s38.833 -72.167 49.5 -114.5
s16 -89.166 16 -140.499v-67h-43v69c0 44.667 -4.33301 85.5 -13 122.5s-22.334 70.667 -41.001 101s-44.5 54 -77.5 71s-71.833 25.5 -116.5 25.5c-36 0 -68.333 -5.66699 -97 -17s-52.334 -26.833 -71.001 -46.5s-34.167 -43.167 -46.5 -70.5s-21.166 -56.333 -26.499 -87
s-8 -63.667 -8 -99v-235h423v-33h-423v-188h423v-33h-423v-244c0 -44.667 4.33301 -85.334 13 -122.001s22.167 -70 40.5 -100s44.166 -53.333 77.499 -70s72.666 -25 117.999 -25c86.667 0 149.667 29.333 189 88s59 135 59 229v82h43v-80
c0 -40 -3.16699 -77.5 -9.5 -112.5s-16.833 -68 -31.5 -99s-33 -57.5 -55 -79.5s-49.667 -39.333 -83 -52s-70.666 -19 -111.999 -19c-52.667 0 -98.334 9.5 -137.001 28.5s-69.167 45.667 -91.5 80s-38.833 72.5 -49.5 114.5s-16 88.333 -16 139v242h-91z" />
    <glyph glyph-name="trademark" unicode="&#x2122;" horiz-adv-x="1181" 
d="M33 1401v33h426v-33h-195v-696h-35v696h-196zM561 705v729h49l221 -666l224 666h49v-729h-35v671l-219 -659h-37l-219 659v-671h-33z" />
    <glyph glyph-name="uni25FC" unicode="&#x25fc;" horiz-adv-x="1433" 
d="M0 0v1434h1434v-1434h-1434z" />
    </font>
</defs>
</svg>
